<svg xmlns="http://www.w3.org/2000/svg" width="103.617" height="126.13" viewBox="0 0 103.617 126.13"><defs><style>.a{fill:#292f33;}</style></defs><g transform="translate(-45.694)"><g transform="translate(45.694 0)"><path class="a" d="M222.821,401.314c-2.878-2.133-6.539-2.061-8.787.271a7.462,7.462,0,0,0,0,10.292l.027.027,6.934,6.878a1.883,1.883,0,0,0,.161.142l.078.062a2.251,2.251,0,0,0,3.171,0l.078-.062a1.88,1.88,0,0,0,.161-.142l6.934-6.878.027-.027a7.461,7.461,0,0,0,0-10.287c-2.243-2.336-5.9-2.409-8.789-.276Zm6.141,7.982-6.142,6.092-6.141-6.092a3.785,3.785,0,0,1,.014-5.144c1.148-1.191,3.064-.67,4.29.426.083.077.152.143.211.2a2.09,2.09,0,0,0,3.253,0c.058-.056.127-.122.209-.2,1.231-1.1,3.149-1.618,4.294-.425A3.786,3.786,0,0,1,228.962,409.3Z" transform="translate(-171.013 -301.289)"/><path class="a" d="M203.2,162.709a1.848,1.848,0,0,0-1.848,1.848v1.425a1.848,1.848,0,0,0,3.7,0v-1.425A1.848,1.848,0,0,0,203.2,162.709Z" transform="translate(-163.009 -122.626)"/><path class="a" d="M297.482,167.829a1.847,1.847,0,0,0,1.848-1.848v-1.425a1.848,1.848,0,1,0-3.7,0v1.425A1.847,1.847,0,0,0,297.482,167.829Z" transform="translate(-234.062 -122.626)"/><path class="a" d="M232.787,224.778a9.96,9.96,0,0,0,7.195-3.211,1.848,1.848,0,0,0-2.666-2.559,6.274,6.274,0,0,1-4.647,2.074,5.754,5.754,0,0,1-4.212-2.017,1.848,1.848,0,1,0-2.771,2.445,9.408,9.408,0,0,0,6.905,3.267Z" transform="translate(-180.997 -164.627)"/><path class="a" d="M149.231,121.437,145.6,95.383c-.78-5.608-3.943-9.777-8.246-12.967-5.33-4.677-7.368-22.757-7.5-38.586a7.3,7.3,0,0,0,1.489-4.6V36.84a5.693,5.693,0,0,0-1.5-3.859V32.5A32.561,32.561,0,0,0,97.509,0h-.017A32.561,32.561,0,0,0,65.159,32.5v.477a5.694,5.694,0,0,0-1.5,3.86v2.388a7.3,7.3,0,0,0,1.5,4.611c-.033,3.477-.169,8.489-.611,13.8a4.647,4.647,0,0,0,.023,2.052,1.848,1.848,0,0,0,3.074.564,2.95,2.95,0,0,0,.553-1.908c.012-.147.025-.292.034-.42.354-4.257.515-8.327.584-11.6a11.671,11.671,0,0,0,2.342.534C71.9,54.2,77.254,62.2,84.32,67.136v5.039c-.047.016-13.842,3.526-19.811,6.271a1.887,1.887,0,0,0-.192.019,54.778,54.778,0,0,0,2.667-10.379,1.848,1.848,0,0,0-3.643-.622c-1.63,9.544-3.942,13.409-5.7,14.954-4.3,3.189-7.464,7.358-8.244,12.965L45.77,121.442a4.244,4.244,0,0,0,.735,3.458,4.562,4.562,0,0,0,3.638,1.23h94.717a4.565,4.565,0,0,0,3.646-1.234,4.234,4.234,0,0,0,.725-3.459ZM130.712,78.469a1.829,1.829,0,0,0-.219-.023c-5.97-2.745-19.765-6.255-19.811-6.27V67.137C117.748,62.2,123.1,54.2,123.85,46.867a11.678,11.678,0,0,0,2.343-.535c.19,9.916,1.134,23.443,4.519,32.138ZM127.649,36.84v2.388c0,2.515-1.75,3.537-3.707,3.895V34.847h1.762A2,2,0,0,1,127.649,36.84Zm-56.59,6.283c-1.956-.357-3.707-1.38-3.707-3.895V36.84A2,2,0,0,1,69.3,34.847h1.763ZM68.886,31.168a28.639,28.639,0,0,1,57.23,0c-.136-.01-5.041-.016-5.041-.016-8.075.014-24.888.047-31.89-7.266l-3.408-3.561-.029-.029a2.264,2.264,0,0,0-3.485,0,1.85,1.85,0,0,0-.272.346,38.885,38.885,0,0,0-2.069,4.069c-1.943,4.232-3.138,6.441-7.016,6.441,0,0-3.885.007-4.021.017Zm5.869,13.968V34.708c5.009-.793,6.866-4.84,8.526-8.455.325-.708.657-1.43,1.012-2.134l2.223,2.323c7.727,8.07,24.364,8.408,33.335,8.408h.4V45.136c0,8.279-8.051,18.525-17.228,21.926a14.06,14.06,0,0,1-11.035,0C82.806,63.662,74.755,53.415,74.755,45.136Zm32.232,24.215v2.886a9.486,9.486,0,1,1-18.971,0V69.351A26.357,26.357,0,0,0,90.7,70.528a17.709,17.709,0,0,0,13.6,0,26.3,26.3,0,0,0,2.685-1.176ZM50.143,122.435a5.853,5.853,0,0,1-.753-.039,4.4,4.4,0,0,1,.041-.449l3.631-26.054c.765-5.494,4.6-9.416,9.622-12.335-.157,3.861-.586,7.515-1.007,11.072-1.139,9.611-2.218,18.741,3.273,27.806Zm19.241,0c-6.26-8.6-5.277-16.915-4.038-27.371a126.758,126.758,0,0,0,1.086-13.421c1.647-.743,3.362-1.407,5.095-2.009V91.35a3.066,3.066,0,0,0,3.063,3.063H93.332a1.848,1.848,0,0,0,0-3.7H75.223V78.443c2.918-.876,5.783-1.6,8.353-2.258l1.256-.32a13.177,13.177,0,0,0,25.338,0l1.257.32c2.57.653,5.435,1.382,8.353,2.258V90.718h-17.7a1.848,1.848,0,0,0,0,3.7h18.344a3.063,3.063,0,0,0,3.056-3.063V79.634c1.732.6,3.447,1.266,5.095,2.009a126.761,126.761,0,0,0,1.086,13.421c1.239,10.456,2.222,18.775-4.038,27.371H69.384Zm75.475,0H130.052c5.491-9.065,4.412-18.195,3.273-27.805-.422-3.557-.85-7.212-1.007-11.072,5.026,2.919,8.858,6.842,9.622,12.336l3.631,26.055c.027.193.039.339.043.448A5.909,5.909,0,0,1,144.859,122.435Z" transform="translate(-45.694 0)"/></g></g></svg>