<svg xmlns="http://www.w3.org/2000/svg" width="126.679" height="74.721" viewBox="0 0 126.679 74.721"><defs><style>.a{fill:#292f33;}</style></defs><g transform="translate(0 -105)"><path class="a" d="M122.349,130.608h-3.093V118.113a5.326,5.326,0,0,0-5.32-5.32h-7.917a5.294,5.294,0,0,0-1.608.25V112.3a7.307,7.307,0,0,0-7.3-7.3h-9.9a7.307,7.307,0,0,0-7.3,7.3v21.845H46.762V112.3a7.307,7.307,0,0,0-7.3-7.3h-9.9a7.307,7.307,0,0,0-7.3,7.3v.745a5.294,5.294,0,0,0-1.608-.25H12.742a5.326,5.326,0,0,0-5.32,5.32v2.4a1.856,1.856,0,0,0,3.711,0v-2.4a1.61,1.61,0,0,1,1.608-1.608H20.66a1.61,1.61,0,0,1,1.608,1.608v48.494a1.61,1.61,0,0,1-1.608,1.608H12.742a1.61,1.61,0,0,1-1.608-1.608V128.45a1.856,1.856,0,0,0-3.711,0v2.158H4.33A4.335,4.335,0,0,0,0,134.938v14.845a4.335,4.335,0,0,0,4.33,4.33H7.423v12.495a5.326,5.326,0,0,0,5.32,5.32H20.66a5.3,5.3,0,0,0,1.608-.25v.745a7.307,7.307,0,0,0,7.3,7.3h9.9a7.307,7.307,0,0,0,7.3-7.3V150.577h2.7a1.856,1.856,0,1,0,0-3.711h-2.7v-9.011H79.917v9.011H57.507a1.856,1.856,0,1,0,0,3.711H79.917v21.845a7.307,7.307,0,0,0,7.3,7.3h9.9a7.307,7.307,0,0,0,7.3-7.3v-.745a5.294,5.294,0,0,0,1.608.25h7.917a5.326,5.326,0,0,0,5.32-5.32V164.1a1.856,1.856,0,0,0-3.711,0v2.506a1.61,1.61,0,0,1-1.608,1.608h-7.917a1.61,1.61,0,0,1-1.608-1.608V118.113a1.61,1.61,0,0,1,1.608-1.608h7.917a1.61,1.61,0,0,1,1.608,1.608v37.979a1.856,1.856,0,1,0,3.711,0v-1.979h3.093a4.335,4.335,0,0,0,4.33-4.33V134.938A4.335,4.335,0,0,0,122.349,130.608ZM4.33,150.4a.619.619,0,0,1-.619-.619V134.938a.619.619,0,0,1,.619-.619H7.423V150.4Zm38.721,22.02a3.592,3.592,0,0,1-3.588,3.588h-9.9a3.592,3.592,0,0,1-3.588-3.588V112.3a3.592,3.592,0,0,1,3.588-3.588h9.9a3.592,3.592,0,0,1,3.588,3.588Zm57.649,0a3.592,3.592,0,0,1-3.588,3.588h-9.9a3.592,3.592,0,0,1-3.588-3.588V112.3a3.592,3.592,0,0,1,3.588-3.588h9.9A3.592,3.592,0,0,1,100.7,112.3Zm22.268-22.639a.619.619,0,0,1-.619.619h-3.093V134.319h3.093a.619.619,0,0,1,.619.619Z" transform="translate(0 0)"/></g></svg>