<svg xmlns="http://www.w3.org/2000/svg" width="117.989" height="117.989" viewBox="0 0 117.989 117.989"><defs><style>.a{fill:#707070;}</style></defs><g transform="translate(0)"><g transform="translate(0)"><path class="a" d="M240,192v11.418h60.9V192Zm57.091,7.612H243.806v-3.806h53.285Z" transform="translate(-182.909 -146.327)"/><path class="a" d="M256,95.142h3.806v-2.87l22.837-17.565,22.837,17.565v2.87h3.806V90.4L282.643,69.9,256,90.4Z" transform="translate(-195.102 -53.275)"/><path class="a" d="M117.989,328.74a23.684,23.684,0,0,0-5.172-14.745l-1.667-2.084a5.827,5.827,0,0,0-8.385-.773v-3.332H91.346v11.418h5.821a23.658,23.658,0,0,0-2.015,9.515,11.429,11.429,0,0,0,9.515,11.247v5.88H95.152V326.837H79.928v19.031H60.9v-5.88a11.426,11.426,0,0,0,9.515-11.247,23.684,23.684,0,0,0-5.172-14.745l-1.667-2.084a5.861,5.861,0,0,0-9.156,0l-1.669,2.086a23.684,23.684,0,0,0-5.172,14.745,11.429,11.429,0,0,0,9.515,11.247v5.88H39.964V326.837H24.74v19.031H13.321v-5.88a11.426,11.426,0,0,0,9.515-11.247,23.7,23.7,0,0,0-4.13-13.321h2.227V304H9.515v6.061a5.782,5.782,0,0,0-2.674,1.848l-1.669,2.086A23.684,23.684,0,0,0,0,328.74a11.429,11.429,0,0,0,9.515,11.247v5.88H3.806v-5.709H0v9.515H117.989v-9.515h-3.806v5.709h-5.709v-5.88A11.429,11.429,0,0,0,117.989,328.74ZM13.321,307.806h3.806v3.806H15.7a5.782,5.782,0,0,0-2.377-1.551Zm-3.806,19.03v9.245a7.6,7.6,0,0,1-5.709-7.342,19.87,19.87,0,0,1,4.337-12.366l1.669-2.088a2.057,2.057,0,0,1,3.212,0l1.669,2.086A19.87,19.87,0,0,1,19.03,328.74a7.6,7.6,0,0,1-5.709,7.342v-9.245Zm26.643,19.031H28.546V330.643h7.612Zm20.934-19.031v9.245a7.6,7.6,0,0,1-5.709-7.342,19.87,19.87,0,0,1,4.337-12.366l1.669-2.088a2.057,2.057,0,0,1,3.212,0l1.669,2.086a19.87,19.87,0,0,1,4.337,12.366,7.6,7.6,0,0,1-5.709,7.342v-9.245Zm34.255,19.031H83.734V330.643h7.612Zm3.806-30.449v-3.806h3.806v3.806Zm9.515,11.418v9.245a7.6,7.6,0,0,1-5.709-7.342,19.87,19.87,0,0,1,4.337-12.366l1.669-2.088a2.057,2.057,0,0,1,3.212,0l1.669,2.086a19.87,19.87,0,0,1,4.337,12.366,7.6,7.6,0,0,1-5.709,7.342v-9.245Z" transform="translate(0 -231.684)"/><rect class="a" width="3.631" height="15.252" transform="translate(61.173 61.173)"/><rect class="a" width="3.631" height="15.252" transform="translate(110.561 61.173)"/><path class="a" d="M395.418,256H384v11.418h11.418Zm-3.806,7.612h-3.806v-3.806h3.806Z" transform="translate(-292.654 -195.102)"/><path class="a" d="M315.418,256H304v11.418h11.418Zm-3.806,7.612h-3.806v-3.806h3.806Z" transform="translate(-231.684 -195.102)"/><path class="a" d="M115.418,112H104v11.418h11.418Zm-3.806,7.612h-3.806v-3.806h3.806Z" transform="translate(-79.26 -85.357)"/><path class="a" d="M179.418,112H168v11.418h11.418Zm-3.806,7.612h-3.806v-3.806h3.806Z" transform="translate(-128.036 -85.357)"/><path class="a" d="M51.418,112H40v11.418H51.418Zm-3.806,7.612H43.806v-3.806h3.806Z" transform="translate(-30.485 -85.357)"/><path class="a" d="M115.418,176H104v11.418h11.418Zm-3.806,7.612h-3.806v-3.806h3.806Z" transform="translate(-79.26 -134.133)"/><path class="a" d="M179.418,176H168v11.418h11.418Zm-3.806,7.612h-3.806v-3.806h3.806Z" transform="translate(-128.036 -134.133)"/><path class="a" d="M51.418,176H40v11.418H51.418Zm-3.806,7.612H43.806v-3.806h3.806Z" transform="translate(-30.485 -134.133)"/><path class="a" d="M115.418,240H104v11.418h11.418Zm-3.806,7.612h-3.806v-3.806h3.806Z" transform="translate(-79.26 -182.909)"/><path class="a" d="M179.418,240H168v11.418h11.418Zm-3.806,7.612h-3.806v-3.806h3.806Z" transform="translate(-128.036 -182.909)"/><path class="a" d="M40,251.418H51.418V240H40Zm3.806-7.612h3.806v3.806H43.806Z" transform="translate(-30.485 -182.909)"/><path class="a" d="M104,315.418h11.418V304H104Zm3.806-7.612h3.806v3.806h-3.806Z" transform="translate(-79.26 -231.684)"/><path class="a" d="M168,315.418h11.418V304H168Zm3.806-7.612h3.806v3.806h-3.806Z" transform="translate(-128.036 -231.684)"/><path class="a" d="M304,331.418h11.418V320H304Zm3.806-7.612h3.806v3.806h-3.806Z" transform="translate(-231.684 -243.878)"/><path class="a" d="M3.806,83.806H57.091v9.515H60.9V80H0v62.8H3.806Z" transform="translate(0 -60.97)"/><path class="a" d="M27.806,11.418H69.673v3.806h3.806V7.612H69.673V0H27.806V7.612H24v7.612h3.806Zm3.806-7.612H65.867V7.612H31.612Z" transform="translate(-18.291)"/></g></g></svg>