<svg xmlns="http://www.w3.org/2000/svg" width="62.997" height="70.005" viewBox="0 0 62.997 70.005"><defs><style>.a{fill:#292f33;}</style></defs><g transform="translate(-25.627)"><path class="a" d="M75.586,34.381h4.883a2,2,0,0,0,2-2V27.5a2,2,0,0,0-2-2H75.586a2,2,0,0,0-2,2v4.883A2,2,0,0,0,75.586,34.381Zm.049-6.836H80.42V32.33H75.635ZM75.586,47.37h4.883a2,2,0,0,0,2-2V40.485a2,2,0,0,0-2-2H75.586a2,2,0,0,0-2,2v4.883A2,2,0,0,0,75.586,47.37Zm.049-6.836H80.42v4.785H75.635ZM61.651,34.381h4.883a2,2,0,0,0,2-2V27.5a2,2,0,0,0-2-2H61.651a2,2,0,0,0-2,2v4.883A2,2,0,0,0,61.651,34.381Zm.049-6.836h4.785V32.33H61.7ZM38.665,50.863H33.782a2,2,0,0,0-2,2v4.883a2,2,0,0,0,2,2h4.883a2,2,0,0,0,2-2V52.865A2,2,0,0,0,38.665,50.863ZM38.616,57.7H33.831V52.914h4.785Zm.049-32.206H33.782a2,2,0,0,0-2,2v4.883a2,2,0,0,0,2,2h4.883a2,2,0,0,0,2-2V27.5A2,2,0,0,0,38.665,25.493Zm-.049,6.836H33.831V27.544h4.785ZM61.651,47.065h4.883a2,2,0,0,0,2-2V40.18a2,2,0,0,0-2-2H61.651a2,2,0,0,0-2,2v4.883A2,2,0,0,0,61.651,47.065Zm.049-6.836h4.785v4.785H61.7ZM83.49,4.686H79.105V3.118A3.122,3.122,0,0,0,75.987,0h-.471A3.122,3.122,0,0,0,72.4,3.118V4.686H41.853V3.118A3.122,3.122,0,0,0,38.735,0h-.471a3.122,3.122,0,0,0-3.118,3.118V4.686H30.761A5.14,5.14,0,0,0,25.627,9.82V64.877A5.133,5.133,0,0,0,30.754,70H83.5a5.133,5.133,0,0,0,5.127-5.127V9.82A5.14,5.14,0,0,0,83.49,4.686ZM74.449,3.118a1.069,1.069,0,0,1,1.067-1.067h.471a1.069,1.069,0,0,1,1.067,1.067V4.686H74.449Zm-37.252,0a1.069,1.069,0,0,1,1.067-1.067h.471A1.069,1.069,0,0,1,39.8,3.118V4.686H37.2V3.118ZM86.573,64.877A3.08,3.08,0,0,1,83.5,67.954H30.754a3.08,3.08,0,0,1-3.076-3.076v-.006A5.107,5.107,0,0,0,30.761,65.9H72.338a5.1,5.1,0,0,0,3.63-1.5l10.6-10.6ZM74.922,62.545a4.386,4.386,0,0,0,.124-1.034V54.666a2.344,2.344,0,0,1,2.341-2.341h6.845a4.386,4.386,0,0,0,1.034-.124Zm11.651-43.2H42.878a1.025,1.025,0,1,0,0,2.051H86.573V47.933a2.344,2.344,0,0,1-2.341,2.341H77.387a4.4,4.4,0,0,0-4.392,4.392v6.845a2.344,2.344,0,0,1-2.341,2.341H30.761a3.087,3.087,0,0,1-3.083-3.083V21.392h11.1a1.025,1.025,0,1,0,0-2.051h-11.1V9.82a3.087,3.087,0,0,1,3.083-3.083h4.384V9.752a3.122,3.122,0,0,0,3.118,3.118,1.025,1.025,0,1,0,0-2.051A1.069,1.069,0,0,1,37.2,9.752V6.737H72.4V9.752a3.122,3.122,0,0,0,3.118,3.118,1.025,1.025,0,1,0,0-2.051,1.069,1.069,0,0,1-1.067-1.067V6.737H83.49A3.087,3.087,0,0,1,86.573,9.82ZM38.665,38.178H33.782a2,2,0,0,0-2,2v4.883a2,2,0,0,0,2,2h4.883a2,2,0,0,0,2-2V40.18A2,2,0,0,0,38.665,38.178Zm-.049,6.836H33.831V40.229h4.785Zm9.1-10.634H52.6a2,2,0,0,0,2-2V27.5a2,2,0,0,0-2-2H47.716a2,2,0,0,0-2,2v4.883A2,2,0,0,0,47.716,34.381Zm.049-6.836h4.785V32.33H47.765ZM61.7,57.7a1.025,1.025,0,0,0-2.05.049,2,2,0,0,0,2,2h4.883a2,2,0,0,0,2-2V52.865a2,2,0,0,0-2-2H61.651a2,2,0,0,0-2,2v1.408a1.025,1.025,0,0,0,2.051,0V52.914h4.785V57.7ZM47.716,47.065H52.6a2,2,0,0,0,2-2V40.18a2,2,0,0,0-2-2H47.716a2,2,0,0,0-2,2v4.883A2,2,0,0,0,47.716,47.065Zm.049-6.836h4.785v4.785H47.765ZM47.716,59.75H52.6a2,2,0,0,0,2-2V52.865a2,2,0,0,0-2-2H47.716a2,2,0,0,0-2,2v4.883A2,2,0,0,0,47.716,59.75Zm.049-6.836h4.785V57.7H47.765Z" transform="translate(0 0)"/></g></svg>