<svg xmlns="http://www.w3.org/2000/svg" width="126.679" height="101.954" viewBox="0 0 126.679 101.954"><defs><style>.a{fill:#292f33;}</style></defs><g transform="translate(-1.306 -100.736)"><path class="a" d="M172.062,172.6l-17.19-13.354v-5.592A21.124,21.124,0,0,0,165.14,135.54V118.569a14.111,14.111,0,0,0-14.095-14.095h-15.78l-1.086-2.077a3.094,3.094,0,0,0-4.466-1.136,15.353,15.353,0,0,0-6.807,12.768V135.54a21.122,21.122,0,0,0,.942,6.254,1.861,1.861,0,0,0,3.555-1.1,17.4,17.4,0,0,1-.776-5.153V124.609a103.577,103.577,0,0,1,34.792.006V135.54A17.391,17.391,0,0,1,130.9,146.946a1.86,1.86,0,1,0-2.808,2.442,21.168,21.168,0,0,0,4.515,3.907v5.946L115.412,172.6a21.956,21.956,0,0,0-8.542,17.452v10.782a1.86,1.86,0,0,0,3.721,0V190.048a18.26,18.26,0,0,1,7.1-14.514l15.437-11.992a11.133,11.133,0,0,0,21.21,0l15.437,11.992a18.26,18.26,0,0,1,7.1,14.514v10.782a1.86,1.86,0,0,0,3.721,0V190.048A21.958,21.958,0,0,0,172.062,172.6Zm-45.435-51.758v-6.808a11.635,11.635,0,0,1,4.589-9.27l1.274,2.437a1.86,1.86,0,0,0,1.649,1h16.907a10.386,10.386,0,0,1,10.374,10.374v2.275A107.264,107.264,0,0,0,126.627,120.837Zm17.11,46.728a7.422,7.422,0,0,1-7.414-7.414V155.2a21.087,21.087,0,0,0,14.827.216v4.735A7.422,7.422,0,0,1,143.737,167.565Z" transform="translate(-79.377)"/><path class="a" d="M165.217,458.054a1.861,1.861,0,0,0-1.86,1.861v9.6a1.86,1.86,0,0,0,3.721,0v-9.6A1.86,1.86,0,0,0,165.217,458.054Z" transform="translate(-121.852 -268.68)"/><path class="a" d="M334.478,458.054a1.861,1.861,0,0,0-1.86,1.861v9.6a1.86,1.86,0,0,0,3.721,0v-9.6A1.861,1.861,0,0,0,334.478,458.054Z" transform="translate(-249.126 -268.68)"/><path class="a" d="M5.062,271.113,19.07,259.048a1.86,1.86,0,0,0,.646-1.41v-4.591a11.77,11.77,0,0,0,8.707,0v4.591a1.86,1.86,0,0,0,.646,1.41l3.618,3.116a1.861,1.861,0,1,0,2.428-2.819l-2.972-2.56v-6.1a11.781,11.781,0,0,0,3.74-8.613v-5.076a11.815,11.815,0,0,0-23.629,0v5.076A11.782,11.782,0,0,0,16,250.681v6.1L2.634,268.293a3.819,3.819,0,0,0-1.328,2.9v6.465a3.617,3.617,0,0,0,2.979,3.562,112.058,112.058,0,0,0,17.705,1.742h.035a1.86,1.86,0,0,0,.034-3.72,108.376,108.376,0,0,1-17.032-1.669v-6.381a.1.1,0,0,1,.035-.076Zm10.915-34.121a8.094,8.094,0,0,1,16.187,0v5.076a8.094,8.094,0,1,1-16.187,0Z" transform="translate(0 -93.572)"/><path class="a" d="M388.748,257.639a1.861,1.861,0,0,0,.646,1.41l3.079,2.652a1.861,1.861,0,1,0,2.428-2.819l-2.433-2.1v-6.1a11.781,11.781,0,0,0,3.74-8.613v-5.076a11.815,11.815,0,0,0-23.629,0v5.076a11.782,11.782,0,0,0,3.74,8.613v6.1l-2.972,2.56a1.861,1.861,0,0,0,2.428,2.819l3.619-3.116a1.86,1.86,0,0,0,.646-1.41v-4.591a11.77,11.77,0,0,0,8.707,0v4.591Zm-4.354-7.477a8.1,8.1,0,0,1-8.094-8.094v-5.076a8.094,8.094,0,0,1,16.187,0v5.076A8.1,8.1,0,0,1,384.394,250.162Z" transform="translate(-279.174 -93.572)"/><path class="a" d="M442.208,385.064l-4.81-4.143a1.861,1.861,0,0,0-2.428,2.82l4.811,4.143a.1.1,0,0,1,.035.076v6.381a108.38,108.38,0,0,1-17.032,1.669,1.86,1.86,0,0,0,.034,3.72h.035a112.079,112.079,0,0,0,17.7-1.742,3.617,3.617,0,0,0,2.979-3.562V387.96A3.821,3.821,0,0,0,442.208,385.064Z" transform="translate(-315.551 -210.342)"/></g></svg>