<svg xmlns="http://www.w3.org/2000/svg" xmlns:xlink="http://www.w3.org/1999/xlink" width="173.101" height="133.71" viewBox="0 0 173.101 133.71"><defs><style>.a,.aa,.ab,.ac,.af,.ah,.ai,.f,.g,.j,.k,.o,.p,.q,.t,.w,.x{mix-blend-mode:multiply;}.a,.aa,.ab,.ac,.ad,.af,.ah,.ai,.al,.b,.d,.e,.f,.g,.h,.j,.k,.l,.m,.o,.p,.q,.r,.s,.t,.w,.x{isolation:isolate;}.a{fill:url(#a);}.al,.b,.s{mix-blend-mode:hard-light;}.b{fill:url(#b);}.c{fill:#5ebcc9;}.d,.e,.h,.l,.r{mix-blend-mode:overlay;}.d{fill:url(#c);}.e{fill:url(#e);}.aa,.ab,.ac,.af,.ai,.f,.g,.j,.k,.o,.p,.q,.t,.w,.x{opacity:0.7;}.f{fill:url(#f);}.g{fill:url(#g);}.h{fill:#fff;}.h,.l{opacity:0.3;}.i{fill:#ccf9ff;}.j{fill:url(#h);}.k{fill:url(#i);}.l{fill:#1d1d1b;}.ad,.m{mix-blend-mode:screen;}.m{fill:url(#j);}.n{fill:#65bfc7;}.o{fill:url(#k);}.p{fill:url(#l);}.q{fill:url(#m);}.r{fill:url(#n);}.s{fill:url(#o);}.t{fill:url(#p);}.u{fill:#a4e4ed;}.v{fill:#18c945;}.w{fill:url(#q);}.x{fill:url(#r);}.y{fill:#8ff0a6;}.z{fill:#57a164;}.aa{fill:url(#s);}.ab{fill:url(#t);}.ac{fill:url(#u);}.ad{fill:url(#v);}.ae{fill:#9ef3ff;}.af{fill:url(#w);}.ag{fill:#c5e8ed;}.ah{fill:#4ba7b9;opacity:0.4;}.ai{fill:url(#x);}.aj{fill:#e0ffff;}.ak{fill:url(#y);}.al{fill:url(#aa);}</style><radialGradient id="a" cx="0.5" cy="0.5" r="2.049" gradientTransform="translate(0.389 -157.518) scale(0.244 0.244)" gradientUnits="objectBoundingBox"><stop offset="0" stop-color="#d1d1d1"/><stop offset="0.031" stop-color="#d3d3d3"/><stop offset="0.39" stop-color="#ebebeb"/><stop offset="0.722" stop-color="#f9f9f9"/><stop offset="1" stop-color="#fff"/></radialGradient><radialGradient id="b" cx="0.5" cy="0.5" r="2.605" gradientTransform="translate(0.404 -905.199) scale(0.192 0.192)" gradientUnits="objectBoundingBox"><stop offset="0" stop-color="#a3a3a3"/><stop offset="1" stop-color="gray"/></radialGradient><radialGradient id="c" cx="1.28" cy="-0.342" r="3.419" gradientTransform="translate(0.394) scale(0.213 1)" gradientUnits="objectBoundingBox"><stop offset="0" stop-color="#fff"/><stop offset="0.142" stop-color="#f8f8f8"/><stop offset="0.344" stop-color="#e5e5e5"/><stop offset="0.583" stop-color="#c6c6c6"/><stop offset="0.848" stop-color="#9b9b9b"/><stop offset="1" stop-color="gray"/></radialGradient><radialGradient id="e" cx="0.016" cy="1.442" r="3.41" gradientTransform="translate(0.404) scale(0.192 1)" xlink:href="#c"/><radialGradient id="f" cx="1.285" cy="0.524" r="1.92" gradientTransform="translate(-1.336) scale(3.673 1)" gradientUnits="objectBoundingBox"><stop offset="0.438" stop-color="#fff"/><stop offset="0.471" stop-color="#f8f9fa"/><stop offset="0.519" stop-color="#e4eaed"/><stop offset="0.576" stop-color="#c5d2d7"/><stop offset="0.641" stop-color="#99b1b9"/><stop offset="0.71" stop-color="#618694"/><stop offset="0.757" stop-color="#386778"/><stop offset="0.793" stop-color="#618694"/><stop offset="0.871" stop-color="#b5c6cd"/><stop offset="0.926" stop-color="#eaeff1"/><stop offset="0.953" stop-color="#fff"/></radialGradient><radialGradient id="g" cx="1.285" cy="0.524" r="5.489" gradientTransform="translate(0.39) scale(0.221 1)" xlink:href="#f"/><radialGradient id="h" cx="0.435" cy="3.244" r="4.556" gradientTransform="translate(0.374) scale(0.252 1)" gradientUnits="objectBoundingBox"><stop offset="0.438" stop-color="#fff"/><stop offset="0.475" stop-color="#f8fbfc"/><stop offset="0.53" stop-color="#e4f0f4"/><stop offset="0.595" stop-color="#c5dfe8"/><stop offset="0.668" stop-color="#99c6d7"/><stop offset="0.747" stop-color="#61a8c1"/><stop offset="0.757" stop-color="#5aa4bf"/><stop offset="0.764" stop-color="#61a8c1"/><stop offset="0.856" stop-color="#b5d6e2"/><stop offset="0.922" stop-color="#eaf3f7"/><stop offset="0.953" stop-color="#fff"/></radialGradient><radialGradient id="i" cx="1.13" cy="0.698" r="5.148" xlink:href="#h"/><linearGradient id="j" x1="-0.062" y1="2.107" x2="0.804" y2="-0.287" gradientUnits="objectBoundingBox"><stop offset="0.157"/><stop offset="0.229" stop-color="#0a0a0a"/><stop offset="0.353" stop-color="#252525"/><stop offset="0.512" stop-color="#525252"/><stop offset="0.702" stop-color="#8f8f8f"/><stop offset="0.915" stop-color="#ddd"/><stop offset="1" stop-color="#fff"/></linearGradient><linearGradient id="k" x1="-238.363" y1="0.49" x2="-237.365" y2="0.505" gradientUnits="objectBoundingBox"><stop offset="0.661" stop-color="#fff"/><stop offset="0.674" stop-color="#f8fafa"/><stop offset="0.692" stop-color="#e4eeef"/><stop offset="0.714" stop-color="#c6dbde"/><stop offset="0.729" stop-color="#96a9ac"/><stop offset="0.757" stop-color="#394a4d"/><stop offset="0.762" stop-color="#455558"/><stop offset="0.804" stop-color="#a1a9ab"/><stop offset="0.822" stop-color="#c6cbcc"/><stop offset="0.824" stop-color="#eaecec"/><stop offset="0.825" stop-color="#fff"/></linearGradient><linearGradient id="l" x1="0.067" y1="0.49" x2="1.066" y2="0.505" gradientUnits="objectBoundingBox"><stop offset="0.592" stop-color="#fff"/><stop offset="0.601" stop-color="#f8fafa"/><stop offset="0.615" stop-color="#e4eeef"/><stop offset="0.631" stop-color="#c6dbde"/><stop offset="0.652" stop-color="#96a9ac"/><stop offset="0.688" stop-color="#394a4d"/><stop offset="0.717" stop-color="#7e898b"/><stop offset="0.757" stop-color="#daddde"/><stop offset="0.776" stop-color="#fff"/><stop offset="0.922" stop-color="#c6cbcc"/></linearGradient><radialGradient id="m" cx="0.714" cy="-0.045" r="1.286" gradientTransform="translate(-1.4) scale(3.8 1)" gradientUnits="objectBoundingBox"><stop offset="0.661" stop-color="#fff"/><stop offset="0.674" stop-color="#f8fafa"/><stop offset="0.692" stop-color="#e4eeef"/><stop offset="0.714" stop-color="#c6dbde"/><stop offset="0.73" stop-color="#95afb2"/><stop offset="0.745" stop-color="#648387"/><stop offset="0.807" stop-color="#b5c4c6"/><stop offset="0.852" stop-color="#eaeeef"/><stop offset="0.874" stop-color="#fff"/></radialGradient><radialGradient id="n" cx="0.5" cy="0.5" r="0.048" gradientTransform="translate(-20469.939 -20.332) scale(10.375 10.371)" gradientUnits="objectBoundingBox"><stop offset="0" stop-color="#fff"/><stop offset="1" stop-color="gray"/></radialGradient><radialGradient id="o" cx="-0.955" cy="-0.274" r="5.219" gradientTransform="translate(0.292) scale(0.415 1)" gradientUnits="objectBoundingBox"><stop offset="0" stop-color="#a1efff"/><stop offset="1" stop-color="gray"/></radialGradient><radialGradient id="p" cx="0.482" cy="2.153" r="1.264" gradientTransform="translate(-0.037) scale(1.074 1)" xlink:href="#h"/><radialGradient id="q" cx="0.928" cy="-0.919" r="2.679" gradientTransform="translate(0.284) scale(0.431 1)" xlink:href="#h"/><radialGradient id="r" cx="0.185" cy="-1.137" r="2.777" gradientTransform="translate(0.284) scale(0.431 1)" xlink:href="#h"/><radialGradient id="s" cx="0.727" cy="-0.788" r="2.314" gradientTransform="translate(0.277) scale(0.446 1)" xlink:href="#h"/><radialGradient id="t" cx="0.165" cy="-0.824" r="2.314" gradientTransform="translate(0.277) scale(0.446 1)" xlink:href="#h"/><radialGradient id="u" cx="0.482" cy="2.154" r="1.655" gradientTransform="translate(0.277) scale(0.446 1)" xlink:href="#h"/><linearGradient id="v" x1="0.5" y1="1" x2="0.5" y2="0" xlink:href="#j"/><radialGradient id="w" cx="-0.243" cy="0.047" r="10.61" gradientTransform="translate(0.435) scale(0.131 1)" gradientUnits="objectBoundingBox"><stop offset="0.438" stop-color="#fff"/><stop offset="0.597" stop-color="#94c4d5"/><stop offset="0.757" stop-color="#2f8cad"/><stop offset="0.778" stop-color="#348faf"/><stop offset="0.806" stop-color="#4498b5"/><stop offset="0.837" stop-color="#5fa6c0"/><stop offset="0.87" stop-color="#84bbce"/><stop offset="0.906" stop-color="#b4d5e1"/><stop offset="0.943" stop-color="#edf5f8"/><stop offset="0.953" stop-color="#fff"/></radialGradient><radialGradient id="x" cx="-0.36" cy="1.697" r="13.569" gradientTransform="translate(0.44) scale(0.121 1)" xlink:href="#h"/><pattern id="y" preserveAspectRatio="none" width="100%" height="100%" viewBox="0 0 0 0"><image/></pattern><radialGradient id="aa" cx="0.354" cy="1.172" r="1.197" gradientTransform="translate(0.284) scale(0.431 1)" gradientUnits="objectBoundingBox"><stop offset="0" stop-color="#3bff6f"/><stop offset="1" stop-color="gray"/></radialGradient></defs><g transform="matrix(0.966, 0.259, -0.259, 0.966, -171.34, -84.493)"><g transform="translate(213.697 105.357)"><path class="a" d="M337.306,94.161c0-8.331-27.672-15.083-61.805-15.083s-61.8,6.752-61.8,15.083,27.67,15.079,61.8,15.079S337.306,102.49,337.306,94.161Z" transform="translate(-213.697 -79.078)"/></g><ellipse class="b" cx="21.706" cy="4.166" rx="21.706" ry="4.166" transform="translate(250.188 116.273)"/><g transform="translate(272.967 77.604)"><path class="c" d="M298.847,86.364c-2.485-1.934-11.542-.855-21.682-.855s-19.2-1.078-21.682.855c-.477.371-.2,3.263-.2,3.666,0,2.5,9.8,4.52,21.888,4.52s21.887-2.024,21.887-4.52v-.009C299.054,89.6,299.323,86.733,298.847,86.364Z" transform="translate(-255.201 -48.7)"/><path class="d" d="M298.847,86.364c-2.485-1.934-11.542-.855-21.682-.855s-19.2-1.078-21.682.855c-.477.371-.2,3.263-.2,3.666,0,2.5,9.8,4.52,21.888,4.52s21.887-2.024,21.887-4.52v-.009C299.054,89.6,299.323,86.733,298.847,86.364Z" transform="translate(-255.201 -48.7)"/><path class="d" d="M298.847,86.364c-2.485-1.934-11.542-.855-21.682-.855s-19.2-1.078-21.682.855c-.477.371-.2,3.263-.2,3.666,0,2.5,9.8,4.52,21.888,4.52s21.887-2.024,21.887-4.52v-.009C299.054,89.6,299.323,86.733,298.847,86.364Z" transform="translate(-255.201 -48.7)"/><path class="e" d="M277.613,93.736c-12.087,0-21.888-2.025-21.888-4.521a16.37,16.37,0,0,1,.036-3.327,2.78,2.78,0,0,0-.279.187c-.477.371-.2,3.263-.2,3.666,0,2.5,9.8,4.52,21.888,4.52,11.227,0,20.476-1.748,21.737-4C296.609,92.255,287.952,93.736,277.613,93.736Z" transform="translate(-255.201 -48.41)"/><path class="f" d="M255.482,86.2c-.477.371-.2,3.263-.2,3.666,0,.588.551,1.151,1.544,1.667V85.582A3.991,3.991,0,0,0,255.482,86.2Z" transform="translate(-255.201 -48.541)"/><path class="g" d="M298.361,86.364c-2.485-1.934-11.542-.855-21.682-.855-8.784,0-16.753-.808-20.343.233V91.7c3.215,1.671,11.108,2.853,20.344,2.853,12.087,0,21.887-2.024,21.887-4.52v-.009C298.568,89.6,298.837,86.733,298.361,86.364Z" transform="translate(-254.715 -48.7)"/><path class="h" d="M255.482,86.249c-.477.371-.2,3.263-.2,3.666,0,.7.768,1.36,2.138,1.951V85.478A4.811,4.811,0,0,0,255.482,86.249Z" transform="translate(-255.201 -48.585)"/><path class="i" d="M299.032,88.424c0,2.5-9.8,4.52-21.889,4.52s-21.889-2.022-21.889-4.52a1.265,1.265,0,0,1,.024-.226l.029-.1c.718-2.051,8.7-.923,21.837-6.182,13.143,5.26,21.118,4.131,21.837,6.182l.03.1A1.286,1.286,0,0,1,299.032,88.424Z" transform="translate(-255.178 -50.109)"/><path class="j" d="M299.032,88.424c0,2.5-9.8,4.52-21.889,4.52s-21.889-2.022-21.889-4.52a1.265,1.265,0,0,1,.024-.226l.029-.1c.718-2.051,8.7-.923,21.837-6.182,13.143,5.26,21.118,4.131,21.837,6.182l.03.1A1.286,1.286,0,0,1,299.032,88.424Z" transform="translate(-255.178 -50.109)"/><path class="k" d="M299.032,88.424c0,2.5-9.8,4.52-21.889,4.52s-21.889-2.022-21.889-4.52a1.265,1.265,0,0,1,.024-.226l.029-.1c.718-2.051,8.7-.923,21.837-6.182,13.143,5.26,21.118,4.131,21.837,6.182l.03.1A1.286,1.286,0,0,1,299.032,88.424Z" transform="translate(-255.178 -50.109)"/><path class="l" d="M277.129,81.991c-.063-.026-.123-.047-.186-.073A70.807,70.807,0,0,1,264.4,85.654c-4.948,1.657-8.107,2.75-8.681,3.877a8.7,8.7,0,0,0,2.706,1.3c2.048-1.8,8.054-3.993,18.968-8.356C277.3,82.319,277.209,82.158,277.129,81.991Z" transform="translate(-254.979 -50.109)"/><path class="m" d="M294.357,88.1c-.3-.393-2.4-.741-4.266-1.048a75.771,75.771,0,0,1-16.664-4.414,71.634,71.634,0,0,1-9.494,3.01c8.2,2.174,17.614.691,24.4,4.81.126-.024.254-.049.378-.074C293.243,89.445,294.312,88.388,294.357,88.1Z" transform="translate(-251.463 -49.802)"/><path class="n" d="M267.282,59.644H276.7l-2.59,34.034a2.154,2.154,0,0,1-4.241,0Z" transform="translate(-250.029 -59.644)"/><path class="o" d="M276.7,59.644h-9.422l2.591,34.034a2.154,2.154,0,0,0,4.241,0Z" transform="translate(-250.029 -59.644)"/><path class="p" d="M267.282,59.644H276.7l-2.59,34.034a2.154,2.154,0,0,1-4.241,0Z" transform="translate(-250.029 -59.644)"/><path class="q" d="M267.282,59.644H276.7l-2.59,34.034a2.154,2.154,0,0,1-4.241,0Z" transform="translate(-250.029 -59.644)"/><path class="r" d="M273.044,76.268c0,8.673-.678,15.7-1.514,15.7s-1.514-7.032-1.514-15.7.677-15.706,1.514-15.706S273.044,67.594,273.044,76.268Z" transform="translate(-248.858 -59.251)"/><path class="s" d="M264.594,84.534c-4.944,1.657-8.1,2.75-8.674,3.879a1.493,1.493,0,0,1-.667-1.108,1.265,1.265,0,0,1,.024-.226l.029-.1C255.753,85.7,259.017,85.656,264.594,84.534Z" transform="translate(-255.178 -48.989)"/></g><path class="t" d="M270.071,58.41l.084.073-.073-.091Z" transform="translate(24.132 17.424)"/><g transform="translate(234.862 17.688)"><path class="u" d="M335.28,32.988l-.112,1.611-49.8,42.94L235.581,34.6l-.111-1.611Z" transform="translate(-225.542 -11.138)"/><path class="v" d="M280.276,71.484l32.908-28.376h-65.81Z" transform="translate(-220.446 -6.806)"/><path class="w" d="M280.276,71.484l32.908-28.376h-65.81Z" transform="translate(-220.446 -6.806)"/><path class="x" d="M280.276,71.484l32.908-28.376h-65.81Z" transform="translate(-220.446 -6.806)"/><path class="y" d="M247.371,44.3c0-2.2,14.732-3.977,32.907-3.977S313.185,42.1,313.185,44.3s-14.733,3.98-32.907,3.98S247.371,46.5,247.371,44.3Z" transform="translate(-220.447 -7.998)"/><path class="z" d="M278.227,40.323a184.258,184.258,0,0,0-26.064,1.551,214.467,214.467,0,0,1,21.629-.981c18.174,0,32.906,1.781,32.906,3.979,0,.914-2.556,1.755-6.845,2.426,6.909-.73,11.28-1.8,11.28-3C311.134,42.1,296.4,40.323,278.227,40.323Z" transform="translate(-218.396 -7.998)"/><path class="aa" d="M335.28,32.988l-.112,1.611-49.8,42.94L235.581,34.6l-.111-1.611Z" transform="translate(-225.542 -11.138)"/><path class="ab" d="M335.28,32.988l-.112,1.611-49.8,42.94L235.581,34.6l-.111-1.611Z" transform="translate(-225.542 -11.138)"/><path class="ac" d="M335.28,32.988l-.112,1.611-49.8,42.94L235.581,34.6l-.111-1.611Z" transform="translate(-225.542 -11.138)"/><path class="ad" d="M296.353,37.859,272.5,71.247l.061.079.556.478,39.823-34.339.705-1.5C307.966,37.645,302,37.166,296.353,37.859Z" transform="translate(-209.689 -9.864)"/><path class="ae" d="M235.466,34.942c0-3.6,22.345-6.518,49.908-6.518s49.907,2.919,49.907,6.518-22.344,6.521-49.907,6.521S235.466,38.543,235.466,34.942Z" transform="translate(-225.543 -13.092)"/><path class="af" d="M235.466,34.942c0-3.6,22.345-6.518,49.908-6.518s49.907,2.919,49.907,6.518-22.344,6.521-49.907,6.521S235.466,38.543,235.466,34.942Z" transform="translate(-225.543 -13.092)"/><ellipse class="ag" cx="43.512" cy="5.26" rx="43.512" ry="5.26" transform="translate(16.318 16.167)"/><path class="ah" d="M242.333,34.691c0-2.9,19.482-5.26,43.512-5.26,14.192,0,26.793.821,34.736,2.094-7.649-1.509-21.412-2.516-37.124-2.516-24.032,0-43.513,2.353-43.513,5.26,0,1.188,3.27,2.286,8.777,3.167C244.671,36.638,242.333,35.7,242.333,34.691Z" transform="translate(-223.626 -12.841)"/><ellipse class="ai" cx="43.512" cy="5.26" rx="43.512" ry="5.26" transform="translate(16.318 16.167)"/><path class="aj" d="M254.333,29.956c-8.834.963-14.389,2.356-14.389,3.907,0,1.966,8.934,3.68,22.158,4.583A29.652,29.652,0,0,1,254.333,29.956Z" transform="translate(-223.626 -12.436)"/><path class="l" d="M311.852,34.248c0-2.622-15.852-4.793-36.593-5.192a17.608,17.608,0,0,1,1.662,1.618,20.733,20.733,0,0,1,4.11,8.607C298.869,38.624,311.852,36.62,311.852,34.248Z" transform="translate(-208.509 -12.821)"/><path class="l" d="M307.852,34.041c0-1.909-8.423-3.58-21.014-4.5-.116.121-.23.241-.343.356a17.2,17.2,0,0,0-1.849,8.8C298.445,37.811,307.852,36.061,307.852,34.041Z" transform="translate(-204.509 -12.614)"/><rect class="ak" width="42.842" height="42.842" transform="translate(83.628)"/><rect class="ak" width="62.035" height="50.382" transform="translate(0 6.855)"/><path class="al" d="M280.276,71.484l32.908-28.376h-65.81Z" transform="translate(-220.446 -6.806)"/><path class="l" d="M236.414,32.059l.084,1.612L284.8,76.74l.013-.02-34.4-44.429Z" transform="translate(-225.138 -11.536)"/></g></g></svg>