<svg xmlns="http://www.w3.org/2000/svg" width="100.601" height="100.635" viewBox="0 0 100.601 100.635"><defs><style>.a{fill:#292f33;}</style></defs><g transform="translate(-0.082)"><g transform="translate(0.082 23.78)"><g transform="translate(0)"><path class="a" d="M68.683,152.8a1.677,1.677,0,0,0-3.155,1.137c.008.021.016.043.025.064,1.529,3.99,1.64,7.042.3,8.383-1.623,1.62-5.665,1.113-10.816-1.351a71.714,71.714,0,0,1-18.558-13.849c-13.133-13.134-18.552-26.023-15.2-29.374a4.58,4.58,0,0,1,3.792-.885,1.677,1.677,0,0,0,.325-3.336,7.721,7.721,0,0,0-6.488,1.844c-6.143,6.141,3.248,22.161,15.2,34.115a74.983,74.983,0,0,0,19.482,14.5,33.028,33.028,0,0,0,4.044,1.618l-11.912,4.517a47.456,47.456,0,0,1-30.011-36.959,1.677,1.677,0,0,0-3.313.52A50.761,50.761,0,0,0,41.194,171.9l-19.606,7.419a1.647,1.647,0,0,0-.335-.4A23.36,23.36,0,0,1,12.6,162.681l-.778-9.421a1.657,1.657,0,0,0-1.764-1.542l-.052,0a1.677,1.677,0,0,0-1.538,1.8s0,.008,0,.012l.791,9.417a26.708,26.708,0,0,0,8.871,17.663L4.146,185.913l2.515-10.321A1.677,1.677,0,1,0,3.4,174.8L.131,188.21a1.677,1.677,0,0,0,2.223,1.967L64.388,166.7a1.562,1.562,0,0,0,.278-.174,6.513,6.513,0,0,0,3.559-1.776C69.887,163.093,71.317,159.668,68.683,152.8Z" transform="translate(-0.082 -113.468)"/></g></g><g transform="translate(48.748 55.282)"><path class="a" d="M268.051,267.286a55.211,55.211,0,0,0-28.407-2.758l-5.99,1.006a1.677,1.677,0,0,0,.553,3.306l5.989-1a51.819,51.819,0,0,1,26.678,2.592,1.726,1.726,0,0,0,.589.1,1.677,1.677,0,0,0,.588-3.248Z" transform="translate(-232.294 -263.781)"/></g><g transform="translate(52.066 31.855)"><path class="a" d="M286.525,152.953a1.677,1.677,0,0,0-2.235-.793l-35.209,16.766a1.677,1.677,0,0,0-.793,2.234h0a1.677,1.677,0,0,0,2.234.793h0l35.209-16.766A1.677,1.677,0,0,0,286.525,152.953Z" transform="translate(-248.126 -151.997)"/></g><g transform="translate(32.46 10.036)"><path class="a" d="M162.917,49.23a1.677,1.677,0,1,0-3.286.668c0,.02.009.04.013.06a46.9,46.9,0,0,1-2.5,28.35l-2.438,5.85a1.677,1.677,0,0,0,.9,2.186,1.652,1.652,0,0,0,.644.129,1.677,1.677,0,0,0,1.548-1.031l2.439-5.843A50.231,50.231,0,0,0,162.917,49.23Z" transform="translate(-154.576 -47.887)"/></g><g transform="translate(87.27 60.358)"><path class="a" d="M421.135,288a5.03,5.03,0,1,0,5.03,5.03A5.03,5.03,0,0,0,421.135,288Zm0,6.706a1.677,1.677,0,1,1,1.677-1.677A1.677,1.677,0,0,1,421.135,294.706Z" transform="translate(-416.105 -288)"/></g><g transform="translate(47.032 13.413)"><path class="a" d="M229.135,64a5.03,5.03,0,1,0,5.03,5.03A5.03,5.03,0,0,0,229.135,64Zm0,6.706a1.677,1.677,0,1,1,1.677-1.677A1.677,1.677,0,0,1,229.135,70.706Z" transform="translate(-224.105 -64)"/></g><g transform="translate(33.619)"><circle class="a" cx="3.353" cy="3.353" r="3.353"/></g><g transform="translate(82.24 8.383)"><path class="a" d="M393.782,40a1.677,1.677,0,0,0-1.677,1.677v1.677a1.677,1.677,0,0,0,3.353,0V41.677A1.677,1.677,0,0,0,393.782,40Z" transform="translate(-392.105 -40)"/></g><g transform="translate(82.24)"><path class="a" d="M393.782,0a1.677,1.677,0,0,0-1.677,1.677V3.353a1.677,1.677,0,0,0,3.353,0V1.677A1.677,1.677,0,0,0,393.782,0Z" transform="translate(-392.105 0)"/></g><g transform="translate(85.594 5.03)"><path class="a" d="M411.458,24h-1.677a1.677,1.677,0,1,0,0,3.353h1.677a1.677,1.677,0,1,0,0-3.353Z" transform="translate(-408.105 -24)"/></g><g transform="translate(77.211 5.03)"><path class="a" d="M371.458,24h-1.677a1.677,1.677,0,0,0,0,3.353h1.677a1.677,1.677,0,1,0,0-3.353Z" transform="translate(-368.105 -24)"/></g><g transform="translate(62.086 18.407)"><path class="a" d="M306.032,87.832h-8.418a1.677,1.677,0,0,0-1.677,1.677v8.418a1.677,1.677,0,0,0,1.677,1.677h8.418a1.677,1.677,0,0,0,1.677-1.677V89.509A1.677,1.677,0,0,0,306.032,87.832Zm-1.677,8.418H299.29V91.185h5.065Z" transform="translate(-295.937 -87.832)"/></g><g transform="translate(40.326 31.877)"><path class="a" d="M211.748,152.636a1.676,1.676,0,0,0-2.321-.122L192.662,167.6a1.676,1.676,0,0,0,2.243,2.491l16.766-15.089A1.677,1.677,0,0,0,211.748,152.636Z" transform="translate(-192.107 -152.105)"/></g><g transform="translate(88.947 38.562)"><path class="a" d="M425.782,184a1.677,1.677,0,0,0-1.677,1.677v1.677a1.677,1.677,0,1,0,3.353,0v-1.677A1.677,1.677,0,0,0,425.782,184Z" transform="translate(-424.105 -184)"/></g><g transform="translate(93.71 36.617)"><path class="a" d="M450.862,176.378l-1.185-1.185a1.677,1.677,0,0,0-2.371,2.371l1.185,1.185a1.677,1.677,0,0,0,2.371-2.371Z" transform="translate(-446.835 -174.722)"/></g><g transform="translate(95.653 31.855)"><path class="a" d="M459.458,152h-1.677a1.677,1.677,0,1,0,0,3.353h1.677a1.677,1.677,0,0,0,0-3.353Z" transform="translate(-456.105 -152)"/></g><g transform="translate(93.69 25.949)"><path class="a" d="M450.745,124.289a1.677,1.677,0,0,0-2.33,0l-1.185,1.185a1.677,1.677,0,0,0,1.185,2.862h0a1.677,1.677,0,0,0,1.185-.491l1.185-1.185A1.676,1.676,0,0,0,450.745,124.289Z" transform="translate(-446.739 -123.818)"/></g><g transform="translate(88.947 23.472)"><path class="a" d="M425.782,112a1.677,1.677,0,0,0-1.677,1.677v1.677a1.677,1.677,0,1,0,3.353,0v-1.677A1.677,1.677,0,0,0,425.782,112Z" transform="translate(-424.105 -112)"/></g><g transform="translate(83.039 25.949)"><path class="a" d="M399.942,125.474l-1.185-1.185a1.677,1.677,0,0,0-2.371,2.371l1.185,1.185a1.677,1.677,0,0,0,2.371-2.371Z" transform="translate(-395.915 -123.818)"/></g><g transform="translate(0.085 0.076)"><g transform="translate(0)"><path class="a" d="M20.134,7.535a1.677,1.677,0,0,0-1.353-1.14L13.86,5.679,11.666,1.221a1.745,1.745,0,0,0-3.008,0l-2.2,4.458-4.921.716A1.677,1.677,0,0,0,.6,9.253l3.559,3.471-.838,4.9A1.677,1.677,0,0,0,5.756,19.4l4.4-2.32,4.4,2.314a1.677,1.677,0,0,0,2.433-1.767l-.838-4.9,3.561-3.471A1.676,1.676,0,0,0,20.134,7.535Zm-6.96,3.4a1.676,1.676,0,0,0-.483,1.482l.416,2.423L10.936,13.7a1.677,1.677,0,0,0-1.559,0L7.2,14.841l.416-2.423a1.676,1.676,0,0,0-.474-1.48L5.377,9.223l2.433-.354a1.676,1.676,0,0,0,1.262-.917l1.085-2.2,1.086,2.2a1.677,1.677,0,0,0,1.261.917l2.431.354Z" transform="translate(-0.095 -0.361)"/></g></g><g transform="translate(75.574 72.1)"><path class="a" d="M379.74,355.97h-.007l-.691-1.036a25.3,25.3,0,0,0-16.835-10.886,1.677,1.677,0,0,0-.553,3.306,21.936,21.936,0,0,1,12.794,7.132,9.892,9.892,0,0,0-6.706,4.606,6.706,6.706,0,0,0,11.711,6.539,9.723,9.723,0,0,0,1.088-4.3,8.192,8.192,0,0,1,.367,8.707,1.677,1.677,0,0,0,2.884,1.711c.015-.026.03-.051.043-.078A11.7,11.7,0,0,0,379.74,355.97Zm-3.211,8.024a3.353,3.353,0,0,1-5.871-3.24l.015-.027a6.283,6.283,0,0,1,4.54-2.954,1.705,1.705,0,0,1,.838.194C377.466,358.757,377.542,362.18,376.529,363.994Z" transform="translate(-360.294 -344.031)"/></g></g></svg>