<svg xmlns="http://www.w3.org/2000/svg" xmlns:xlink="http://www.w3.org/1999/xlink" width="82.628" height="94.645" viewBox="0 0 82.628 94.645"><defs><style>.a,.b,.e,.f,.g,.o,.r,.s,.w{mix-blend-mode:multiply;}.a,.b,.d,.e,.f,.g,.h,.i,.m,.o,.r,.s,.t,.v,.w,.x{isolation:isolate;}.a{fill:url(#a);}.b{fill:url(#b);}.c{fill:#ba9b88;}.d,.i{fill:#1d1d1b;}.d{opacity:0.6;}.d,.h,.i,.m,.t,.v,.x{mix-blend-mode:overlay;}.e{fill:url(#c);}.f{fill:url(#d);}.g{fill:url(#e);}.h{fill:#fff;}.h,.i{opacity:0.3;}.j{fill:#ad0000;}.k{fill:#de0000;}.l{fill:#f5ec00;}.m{fill:url(#f);}.n{fill:#803914;}.o{fill:url(#g);}.p{fill:#c9c9c9;}.q{fill:#a12525;}.r{fill:url(#h);}.s{fill:url(#i);}.t{fill:url(#j);}.u{fill:#ba2525;}.v{fill:url(#k);}.w{fill:url(#l);}.x{fill:url(#m);}</style><radialGradient id="a" cx="0.5" cy="0.5" r="1.987" gradientTransform="translate(0.374 -320.519) scale(0.252 0.252)" gradientUnits="objectBoundingBox"><stop offset="0" stop-color="#b5b5b5"/><stop offset="0.264" stop-color="#d3d3d3"/><stop offset="0.536" stop-color="#ebebeb"/><stop offset="0.789" stop-color="#f9f9f9"/><stop offset="1" stop-color="#fff"/></radialGradient><radialGradient id="b" cx="0.5" cy="0.5" r="1.987" gradientTransform="translate(0.374 -174.712) scale(0.252 0.252)" gradientUnits="objectBoundingBox"><stop offset="0" stop-color="#e8e8e8"/><stop offset="0.09" stop-color="#ebebeb"/><stop offset="0.585" stop-color="#f9f9f9"/><stop offset="1" stop-color="#fff"/></radialGradient><radialGradient id="c" cx="0.461" cy="0.484" r="0.858" gradientTransform="matrix(-0.497, 0.791, -0.643, -0.612, -11.705, 26.418)" gradientUnits="objectBoundingBox"><stop offset="0.7" stop-color="#fff"/><stop offset="0.835" stop-color="#c78907"/><stop offset="0.869" stop-color="#d19e34"/><stop offset="0.944" stop-color="#ebd5a6"/><stop offset="1" stop-color="#fff"/></radialGradient><radialGradient id="d" cx="0.599" cy="0.497" r="0.443" gradientTransform="matrix(-0.497, 0.791, -0.643, -0.612, -11.911, 26.249)" xlink:href="#c"/><radialGradient id="e" cx="0.507" cy="0.725" r="0.87" gradientTransform="matrix(-0.507, 0.791, -0.655, -0.612, -19.989, 46.957)" xlink:href="#c"/><radialGradient id="f" cx="0.5" cy="0.5" r="0.452" gradientTransform="matrix(-0.769, -0.659, -0.795, 0.888, 15.264, 5.509)" gradientUnits="objectBoundingBox"><stop offset="0" stop-color="#ff9c9c"/><stop offset="1" stop-color="gray"/></radialGradient><radialGradient id="g" cx="0.937" cy="-0.826" r="1.367" gradientTransform="matrix(1.058, 0.659, -0.926, 0.752, -0.584, 3.633)" gradientUnits="objectBoundingBox"><stop offset="0" stop-color="#522900"/><stop offset="0.102" stop-color="#5e3711"/><stop offset="0.306" stop-color="#7d5e3f"/><stop offset="0.593" stop-color="#b09d8a"/><stop offset="0.949" stop-color="#f4f2ef"/><stop offset="1" stop-color="#fff"/></radialGradient><radialGradient id="h" cx="0.939" cy="0.016" r="0.548" gradientTransform="matrix(-0.858, -0.605, -0.652, 0.796, -9.68, -3.149)" xlink:href="#g"/><radialGradient id="i" cx="-0.495" cy="-0.29" r="1.674" gradientTransform="matrix(-0.858, -0.605, -0.652, 0.796, -6.822, -2.224)" gradientUnits="objectBoundingBox"><stop offset="0.7" stop-color="#fff"/><stop offset="0.835" stop-color="#aba28f"/><stop offset="0.906" stop-color="#cdc7bc"/><stop offset="1" stop-color="#fff"/></radialGradient><radialGradient id="j" cx="-1.018" cy="0.802" r="1.379" gradientTransform="matrix(-1.447, -0.605, -1.1, 0.796, -20.787, -5.224)" gradientUnits="objectBoundingBox"><stop offset="0" stop-color="#fff"/><stop offset="0.142" stop-color="#f8f8f8"/><stop offset="0.344" stop-color="#e5e5e5"/><stop offset="0.583" stop-color="#c6c6c6"/><stop offset="0.848" stop-color="#9b9b9b"/><stop offset="1" stop-color="gray"/></radialGradient><radialGradient id="k" cx="0.17" cy="-0.949" r="1.428" gradientTransform="matrix(-0.842, -0.605, -0.64, 0.796, -13.003, -4.266)" xlink:href="#j"/><radialGradient id="l" cx="-1.013" cy="-0.879" r="2.607" gradientTransform="matrix(-0.842, -0.605, -0.64, 0.796, -10.88, -3.574)" xlink:href="#c"/><radialGradient id="m" cx="-1.471" cy="0.468" r="4.674" gradientTransform="matrix(-0.419, -0.605, -0.319, 0.796, -8.145, -3.318)" xlink:href="#j"/></defs><g transform="translate(-325.89 -274.59)"><path class="a" d="M375.067,364.8c0-2.315-7.455-4.191-16.65-4.191s-16.649,1.876-16.649,4.191,7.454,4.189,16.649,4.189S375.067,367.11,375.067,364.8Z"/><path class="b" d="M401.7,361.535c0-4.253-13.7-7.7-30.6-7.7s-30.6,3.447-30.6,7.7,13.7,7.7,30.6,7.7S401.7,365.788,401.7,361.535Z"/><path class="c" d="M367.773,337.448a7.157,7.157,0,0,0,.418-.694,9.993,9.993,0,0,0,1.03-2.646,12.732,12.732,0,0,0,.314-3.9,16.22,16.22,0,0,0-.9-4.281,18.069,18.069,0,0,0-3.436-5.851,3.908,3.908,0,0,1-1.511,2.559,15.361,15.361,0,0,1,2.306,4.222,13.527,13.527,0,0,1,.755,3.539,9.93,9.93,0,0,1-.242,3.048,7.259,7.259,0,0,1-.75,1.947,5.432,5.432,0,0,1-.3.5c-.079.11-.122.164-.122.164l2.276,1.629S367.663,337.6,367.773,337.448Z"/><path class="d" d="M367.439,323.261c-.079-.146-.2-.334-.309-.527s-.224-.382-.317-.522-.153-.228-.153-.228l-.663-.2c-.35-.106-.831-.2-1.3-.3a3.811,3.811,0,0,1-.773.945c.057.007.113.016.178.026a12.816,12.816,0,0,1,1.406.317c.526.133,1.018.325,1.416.465.2.074.356.138.466.188s.175.076.175.076S367.516,323.408,367.439,323.261Z"/><path class="d" d="M369.016,327.151s-.229-.16-.574-.4a14.462,14.462,0,0,0-1.28-.765,14.056,14.056,0,0,0-1.3-.611,4.457,4.457,0,0,0-.431-.174l-.166-.06s-.166-.334-.348-.664-.384-.642-.384-.642.245.068.613.175a12.822,12.822,0,0,1,1.357.481c.508.2.975.442,1.351.63s.606.338.606.338.158.415.3.834C368.89,326.725,369.016,327.151,369.016,327.151Z"/><path class="d" d="M369.562,331.084s-.176-.228-.444-.541-.672-.7-1.056-1.057c-.417-.351-.807-.672-1.128-.894s-.532-.356-.532-.356l-.05-.226c-.035-.133-.1-.31-.147-.488-.1-.361-.23-.709-.23-.709s.056.026.158.077.245.125.406.222c.325.194.8.456,1.218.768a12.312,12.312,0,0,1,1.17.925c.31.283.517.474.517.474s.018.109.031.281.037.39.055.618.023.45.031.621S369.562,331.084,369.562,331.084Z"/><path class="d" d="M368.929,335.1s-.089-.28-.238-.668a10.674,10.674,0,0,0-.683-1.344,9.816,9.816,0,0,0-.831-1.165c-.245-.3-.408-.473-.408-.473s0-.089,0-.226-.007-.318-.01-.5a3.6,3.6,0,0,0-.034-.5c-.011-.138-.018-.231-.018-.231s.189.16.476.421a13.233,13.233,0,0,1,.984,1.047,11.276,11.276,0,0,1,.871,1.216c.215.357.354.615.354.615a2.25,2.25,0,0,1-.05.286c-.04.17-.091.4-.142.623a5.293,5.293,0,0,1-.178.619C368.967,334.992,368.929,335.1,368.929,335.1Z"/><path class="d" d="M367.605,337.677l-.787-.564s-.013-.173-.037-.435a9.492,9.492,0,0,0-.179-.935,5.779,5.779,0,0,0-.279-.863c-.089-.225-.147-.37-.147-.37s.033-.078.072-.2.1-.291.151-.456.083-.341.12-.468.048-.213.048-.213.132.2.325.531a9.714,9.714,0,0,1,.6,1.3,9.172,9.172,0,0,1,.371,1.462c.062.417.09.719.09.719C367.964,337.185,367.605,337.677,367.605,337.677Z"/><path class="c" d="M347.561,334.861l2.257-1.648s.206.282.563.783.827,1.206,1.407,1.983a11.734,11.734,0,0,0,2.117,2.273,5.424,5.424,0,0,0,2.94,1.13c.534.037,1.2-.025,1.816-.05a14.534,14.534,0,0,0,1.762-.278,9.415,9.415,0,0,0,2.831-1.092,5.844,5.844,0,0,0,.511-.347c.081-.054.158-.108.235-.162s.136-.119.2-.179c.131-.113.252-.218.364-.318s.2-.212.278-.3a3.5,3.5,0,0,0,.369-.439l.119-.167,2.274,1.629s-.058.082-.168.234a5.439,5.439,0,0,1-.522.622c-.117.127-.246.275-.393.425s-.328.287-.509.447c-.092.08-.187.165-.286.249s-.211.15-.321.228c-.224.15-.449.331-.706.475a12.174,12.174,0,0,1-3.662,1.426,17.932,17.932,0,0,1-2.135.338,19.922,19.922,0,0,1-2.256.049,8.27,8.27,0,0,1-2.388-.535,8.415,8.415,0,0,1-2.053-1.163,14.208,14.208,0,0,1-2.658-2.816c-.643-.863-1.118-1.57-1.458-2.052Z"/><path class="d" d="M366.776,338.686s.047-.412.066-.794c.008-.4-.024-.779-.024-.779l.787.564s-.187.271-.391.525S366.776,338.686,366.776,338.686Z"/><path class="d" d="M363.214,341.1s.147-.253.338-.618a12.043,12.043,0,0,0,.555-1.4,8.468,8.468,0,0,0,.285-1.393c.034-.379.037-.615.037-.615a7.251,7.251,0,0,0,.9-1.015s.046.234.092.613a7.856,7.856,0,0,1-.314,2.888c-.122.407-.224.688-.224.688a2.9,2.9,0,0,1-.253.146c-.155.088-.362.2-.567.315a4.251,4.251,0,0,1-.576.273Z"/><path class="d" d="M359.335,342.066s.191-.2.481-.5a12.022,12.022,0,0,0,.946-1.152,9.649,9.649,0,0,0,.771-1.207c.087-.165.159-.3.212-.4s.072-.154.072-.154l.651-.276a3.262,3.262,0,0,0,.427-.222c.116-.06.191-.1.191-.1s-.061.232-.176.6a10.468,10.468,0,0,1-.579,1.3,14.78,14.78,0,0,1-.8,1.264c-.123.181-.232.3-.3.4s-.122.151-.122.151l-.885.183C359.777,342.011,359.335,342.066,359.335,342.066Z"/><path class="d" d="M355.245,341.952s.284-.117.668-.311a7.051,7.051,0,0,0,1.259-.853c.4-.334.779-.727,1.048-.995s.437-.46.437-.46,1.481-.178,1.467-.215c0,0-.037.053-.1.146s-.152.228-.274.372c-.236.292-.576.689-.944,1.089-.369.373-.767.737-1.078,1.015a4.46,4.46,0,0,1-.549.449s-.119-.006-.3-.011a6.19,6.19,0,0,1-.664-.054,5.405,5.405,0,0,1-.666-.11Z"/><path class="d" d="M351.506,339.882l.2.014c.123.011.3.025.515.029a7.765,7.765,0,0,0,1.513-.1,5.1,5.1,0,0,0,.744-.177,4.532,4.532,0,0,0,.6-.223c.171-.077.3-.14.39-.19l.142-.084a4.315,4.315,0,0,0,.629.152c.319.058.652.084.652.084s-.045.043-.123.107-.193.166-.339.281a5.819,5.819,0,0,1-1.208.718,6.313,6.313,0,0,1-1.458.447,4.656,4.656,0,0,1-.522.078l-.2.022s-.109-.062-.262-.16-.352-.238-.542-.385C351.849,340.2,351.507,339.88,351.506,339.882Z"/><path class="d" d="M348.992,336.893s.263.065.657.165.922.216,1.446.314a13.007,13.007,0,0,0,1.425.187c.19.018.349.018.458.019l.171,0,.158.155c.1.086.225.209.358.318a6.543,6.543,0,0,0,.539.407s-.061.012-.163.035a4.42,4.42,0,0,1-.44.068,7.831,7.831,0,0,1-1.418.028,12.511,12.511,0,0,1-1.482-.19c-.41-.074-.68-.137-.68-.137s-.277-.341-.532-.687S348.992,336.893,348.992,336.893Z"/><path class="d" d="M347.561,334.861l.782-.57s.676.15,1.353.325,1.352.335,1.352.335.23.325.463.649l.464.626-.638-.122c-.384-.079-.9-.2-1.418-.328s-1.032-.257-1.422-.353l-.642-.154Z"/><path class="c" d="M338.693,339.226,336.2,340.5s-.045-.088-.123-.256-.192-.418-.318-.74a10.423,10.423,0,0,1-.645-2.774,9.459,9.459,0,0,1,.48-4.049,7.165,7.165,0,0,1,1.19-2.129,5.935,5.935,0,0,1,2.051-1.628,6.476,6.476,0,0,1,2.5-.622,8.69,8.69,0,0,1,2.341.213,7.8,7.8,0,0,1,2.085.79,9.2,9.2,0,0,1,1.589,1.117,14.526,14.526,0,0,1,1.871,2c.39.5.592.791.592.791l-2.257,1.648s-.193-.268-.536-.708a11.875,11.875,0,0,0-1.5-1.617,6.273,6.273,0,0,0-1.112-.778,4.821,4.821,0,0,0-1.351-.516,4.661,4.661,0,0,0-3,.2,3.739,3.739,0,0,0-1.832,2.185,6.729,6.729,0,0,0-.323,2.847,7.623,7.623,0,0,0,.471,2.035c.093.232.169.414.228.534S338.693,339.226,338.693,339.226Z"/><path class="d" d="M346.925,334.025s.351.045.705.118.713.148.713.148l-.782.57s-.16-.211-.317-.422S346.925,334.025,346.925,334.025Z"/><path class="d" d="M344.555,331.836a3.788,3.788,0,0,1,.59-.144,5.385,5.385,0,0,1,.641-.086,7.123,7.123,0,0,1,.769-.025,10.962,10.962,0,0,1,1.494.128c.417.061.687.119.687.119s.289.34.559.682.516.689.516.689l-.664-.159c-.4-.092-.928-.205-1.456-.285a10.671,10.671,0,0,0-1.427-.126,5.093,5.093,0,0,0-.624.012s-.063-.059-.163-.145-.234-.188-.367-.294-.276-.191-.379-.262Z"/><path class="d" d="M341.793,331.089s.042-.042.113-.116a2.725,2.725,0,0,1,.323-.3,6.829,6.829,0,0,1,1.175-.786c.235-.12.482-.237.727-.34.242-.086.484-.159.7-.214.42-.1.721-.145.721-.145s.111.051.27.146.374.209.571.351.4.272.536.385.234.186.234.186-.3-.015-.722-.006c-.217.01-.462.024-.716.054a7.959,7.959,0,0,0-.788.141,5.339,5.339,0,0,0-1.3.493c-.332.187-.524.318-.524.318a1.516,1.516,0,0,0-.207-.044c-.126-.018-.3-.063-.459-.079A5.282,5.282,0,0,0,341.793,331.089Z"/><path class="d" d="M339.375,331.893s0-.059,0-.163a3.227,3.227,0,0,1,.033-.414,3.836,3.836,0,0,1,.435-1.3,5.065,5.065,0,0,1,.936-1.221,4.31,4.31,0,0,1,.4-.363l.161-.129s.126-.011.316-.016.434.008.681.025.485.047.661.075.294.053.294.053l-.179.09a4.643,4.643,0,0,0-.455.255,6.862,6.862,0,0,0-1.216.91,4.552,4.552,0,0,0-.509.568,3.173,3.173,0,0,0-.344.527,2.488,2.488,0,0,0-.18.383c-.033.093-.053.144-.053.144a3.145,3.145,0,0,0-.516.245A2.891,2.891,0,0,0,339.375,331.893Z"/><path class="d" d="M338.05,334.234a5.87,5.87,0,0,1-.815-1.832,5.515,5.515,0,0,1-.148-1.525,4.264,4.264,0,0,1,.052-.545c.023-.137.036-.21.036-.21a6.072,6.072,0,0,1,1.428-1.078,2.7,2.7,0,0,1,.3-.149,4.547,4.547,0,0,0-.348.684,4.77,4.77,0,0,0-.365,1.5,4.591,4.591,0,0,0,.124,1.38,4.973,4.973,0,0,0,.177.562s-.031.072-.085.18-.111.254-.168.406-.1.31-.137.423S338.05,334.234,338.05,334.234Z"/><path class="d" d="M338.013,337.237s-.2-.133-.505-.361a8.269,8.269,0,0,1-1.034-.971,8.016,8.016,0,0,1-.9-1.216,5.05,5.05,0,0,1-.256-.456c-.056-.114-.091-.178-.091-.178a8.543,8.543,0,0,1,.228-.948,8.18,8.18,0,0,1,.338-.929s.012.073.045.2.08.306.143.511a7.026,7.026,0,0,0,.626,1.386,7.33,7.33,0,0,0,1.265,1.586s0,.344.039.69a4.516,4.516,0,0,0,.064.47C338,337.15,338.013,337.237,338.013,337.237Z"/><path class="d" d="M338.693,339.226l-.861.443a8.723,8.723,0,0,1-1.259-.6,9.765,9.765,0,0,1-.836-.556c-.228-.168-.375-.289-.375-.289s-.108-.46-.176-.928c-.036-.231-.056-.469-.075-.645l-.019-.294s.182.227.485.53a8.713,8.713,0,0,0,1.142.983,7.935,7.935,0,0,0,1.22.723c.346.158.567.243.567.243Z"/><path class="e" d="M369.113,334.521c1.42-5.016-.484-10.554-3.921-14.433a3.909,3.909,0,0,1-1.517,2.551,14.815,14.815,0,0,1,2.568,5.007,9.828,9.828,0,0,1-1.03,8.567c-1.582,2.511-5.325,3.2-8.03,3.179-3.543-.029-5.4-3.436-7.216-5.974-1.561-2.192-3.538-4.329-6.285-4.9a8.688,8.688,0,0,0-1.387-.182,4.79,4.79,0,0,1,.61,2.884c2.533.548,4.1,2.813,5.511,4.854,1.79,2.576,3.783,5.2,7.022,5.92C361.02,343.234,367.518,340.156,369.113,334.521Z"/><path class="f" d="M369.113,334.521c1.42-5.016-.484-10.554-3.921-14.433a3.909,3.909,0,0,1-1.517,2.551,14.815,14.815,0,0,1,2.568,5.007,9.828,9.828,0,0,1-1.03,8.567c-1.582,2.511-5.325,3.2-8.03,3.179-3.543-.029-5.4-3.436-7.216-5.974-1.561-2.192-3.538-4.329-6.285-4.9a8.688,8.688,0,0,0-1.387-.182,4.79,4.79,0,0,1,.61,2.884c2.533.548,4.1,2.813,5.511,4.854,1.79,2.576,3.783,5.2,7.022,5.92C361.02,343.234,367.518,340.156,369.113,334.521Z"/><path class="g" d="M338.693,339.226,336.2,340.5s-.045-.088-.123-.256-.192-.418-.318-.74a10.423,10.423,0,0,1-.645-2.774,9.459,9.459,0,0,1,.48-4.049,7.165,7.165,0,0,1,1.19-2.129,5.935,5.935,0,0,1,2.051-1.628,6.476,6.476,0,0,1,2.5-.622,8.69,8.69,0,0,1,2.341.213,7.8,7.8,0,0,1,2.085.79,9.2,9.2,0,0,1,1.589,1.117,14.526,14.526,0,0,1,1.871,2c.39.5.592.791.592.791l-2.257,1.648s-.193-.268-.536-.708a11.875,11.875,0,0,0-1.5-1.617,6.273,6.273,0,0,0-1.112-.778,4.821,4.821,0,0,0-1.351-.516,4.661,4.661,0,0,0-3,.2,3.739,3.739,0,0,0-1.832,2.185,6.729,6.729,0,0,0-.323,2.847,7.623,7.623,0,0,0,.471,2.035c.093.232.169.414.228.534S338.693,339.226,338.693,339.226Z"/><path class="h" d="M358.065,342.01c2.686-.027,5.652-.651,7.5-2.753a.02.02,0,0,0-.025-.03c-2.124.969-4.008,2.118-6.385,2.411-3.057.372-4.857-1.244-7.5-2.225a.083.083,0,0,0-.1.124C352.865,341.368,355.931,342.029,358.065,342.01Z"/><path class="h" d="M365.913,326.151a7.181,7.181,0,0,0-1.495-4.242,3.759,3.759,0,0,1-.495.529c.821,1.17,1.151,2.528,1.862,3.746A.072.072,0,0,0,365.913,326.151Z"/><path class="i" d="M336.736,332.248c1.029-.806,1.456-1.937,2.734-2.543a5.857,5.857,0,0,1,4.1,0c2.616.768,4.636,2.718,6.371,4.728a.037.037,0,0,0,.063-.036c-.979-2.667-3.979-4.762-6.673-5.462-2.316-.6-6.736-.037-6.853,3.165A.165.165,0,0,0,336.736,332.248Z"/><path class="i" d="M366.651,333.966c0-.016-.025-.018-.029-.005-1.01,2.876-2.423,4.479-5.474,5.261-2.2.558-4.234.088-6.392-.323-.325-.061-.391.385-.139.522C358.638,341.581,366.77,339.407,366.651,333.966Z"/><path class="i" d="M365.182,320.159a4.107,4.107,0,0,1-.3.968,14.328,14.328,0,0,1,1.021,1.116,15.581,15.581,0,0,1,3.031,6.982.01.01,0,0,0,.02,0A13.787,13.787,0,0,0,365.182,320.159Z"/><path class="h" d="M338.318,339.251c.049-1.718-.564-3.233-.229-5.012.465-2.466,2.281-2.89,4.371-3.447.029-.009.021-.046,0-.057-4.524-2.065-6.773,5.785-4.567,8.627C338.009,339.515,338.311,339.47,338.318,339.251Z"/><path class="j" d="M337.867,347.936l-1.267-4.8-3.584,3.284,1.145-5.841-3.394-.214,3-1.536-1.342-2.633,2.389.053-.425-3.519,2.13,2.97,2.8-.893-.574,3.15,4.286.507-3.022,1.831,4.955,1.985-4.975-.19,1.93,5.426-2.719-3Zm-1.068-5.479,1.135,4.3,1.135-2.925,1.888,2.083-1.5-4.21,3.4.131-3.674-1.472,2.74-1.66-3.617-.428.535-2.933-2.473.789L334.92,334.1l.3,2.521-2.2-.049,1.229,2.413-2.137,1.1,2.483.156-1.012,5.158Z"/><path class="k" d="M336.7,342.8l1.2,4.55,1.232-3.173,2.3,2.542-1.714-4.818,4.189.161-4.314-1.728,2.881-1.746-3.951-.467.555-3.042-2.637.841-1.791-2.5.365,3.02-2.294-.051,1.286,2.523-2.567,1.315,2.939.185-1.079,5.5,3.4-3.113Z"/><path class="l" d="M336.2,338.4l-.193-1.424.969,1.3.8-.555-.314,1.733,2.333-.018-1.743.93,2.493,1.047-2.1-.141.957,2.306-1.143-1.33-.422,1.723-.619-2.92-1.719,1.578.52-2.663-1.5.317,1.191-.826-.553-1.086Z"/><path class="m" d="M345.29,348.455c4.541-5.188,4.657-12.512.262-16.358s-11.638-2.76-16.179,2.429-4.657,12.51-.261,16.357S340.75,353.644,345.29,348.455Z"/><path class="n" d="M354.375,364.815l23.7-32.029-3.124-2.939-21.023,30.5-.728,3.348Z"/><path class="o" d="M354.375,364.815l23.7-32.029-3.124-2.939-21.023,30.5-.728,3.348Z"/><path class="h" d="M378.071,332.786,376.5,331.3l-22.58,33.072.46.439Z"/><path class="p" d="M383.887,286.5c-6.819,13.281-15.906,25.386-27.758,34.918a.522.522,0,0,0,0,.864c2.35,6.152,13.927,14.948,20.483,15.564a.523.523,0,0,0,.833-.234c6.007-13.973,15.234-25.972,26.2-36.1Z"/><path class="q" d="M386.473,288.468l17.17,13.046a122.976,122.976,0,0,0-8.763,8.94C390.568,304.454,388.689,297,386.473,288.468Z"/><path class="q" d="M361.481,316.771a98.735,98.735,0,0,0,7.594-7.957c1.31,8.064,4.8,16.022,11.807,21.646q-1.86,3.486-3.441,7.152a.522.522,0,0,1-.832.235,14.423,14.423,0,0,1-3.689-.969C366.781,330.553,361.271,323.448,361.481,316.771Z"/><path class="q" d="M380.327,292.969c1.075,3.5,2.189,6.86,3.429,10.182,1.515,4.639,2.837,9.908,6.431,12.974q-2.831,3.663-5.342,7.574a51.909,51.909,0,0,1-10.151-22.067Q377.706,297.429,380.327,292.969Z"/><path class="r" d="M383.887,286.5c-6.819,13.281-15.906,25.386-27.758,34.918a.522.522,0,0,0,0,.864c2.35,6.152,13.927,14.948,20.483,15.564a.523.523,0,0,0,.833-.234c6.007-13.973,15.234-25.972,26.2-36.1Z"/><path class="s" d="M383.887,286.5c-6.819,13.281-15.906,25.386-27.758,34.918a.522.522,0,0,0,0,.864c2.35,6.152,13.927,14.948,20.483,15.564a.523.523,0,0,0,.833-.234c6.007-13.973,15.234-25.972,26.2-36.1Z"/><path class="h" d="M403.341,301.283l.3.23c-10.968,10.129-20.2,22.128-26.2,36.1a.523.523,0,0,1-.833.234c-.156-.014-.317-.038-.479-.062C381.874,323.734,390.967,310.226,403.341,301.283Z"/><path class="i" d="M379.89,293.7q2.116-3.533,4-7.2l19.757,15.011a123.571,123.571,0,0,0-8.713,8.885C388.338,307.2,383.135,300.846,379.89,293.7Z"/><path class="t" d="M356.129,321.42a103.078,103.078,0,0,0,23.252-26.878,34.519,34.519,0,0,1-1.118,13.926c-2.065,7.484-7.885,13.453-13.269,19.333,1.937,4.089,6.093,7.157,10.364,9.844-6.681-1.476-17.025-9.584-19.232-15.361A.522.522,0,0,1,356.129,321.42Z"/><path class="u" d="M406.533,308.743a.329.329,0,0,1-.527.243c-10.635-1.08-26.062-12.8-29.952-22.758a.328.328,0,0,1,.092-.572l32.372-11.066Z"/><path class="v" d="M406.533,308.743a.329.329,0,0,1-.527.243c-10.635-1.08-26.062-12.8-29.952-22.758a.328.328,0,0,1,.092-.572l32.372-11.066Z"/><path class="w" d="M406.533,308.743a.329.329,0,0,1-.527.243c-10.635-1.08-26.062-12.8-29.952-22.758a.328.328,0,0,1,.092-.572l32.372-11.066Z"/><path class="x" d="M376.146,285.656l32.372-11.066-.005.1-29.292,17.063a24.483,24.483,0,0,1-3.167-5.525A.328.328,0,0,1,376.146,285.656Z"/><path class="h" d="M406.533,308.743a.329.329,0,0,1-.527.243c-.561-.057-1.138-.145-1.724-.259l3.814-26.858Z"/><path class="i" d="M385.588,298.556l22.87-22.932-.362,6.245-3.814,26.858C398.341,307.565,391.274,303.54,385.588,298.556Z"/></g></svg>