<svg xmlns="http://www.w3.org/2000/svg" xmlns:xlink="http://www.w3.org/1999/xlink" width="144.531" height="134.417" viewBox="0 0 144.531 134.417"><defs><style>.a,.ab,.ae,.af,.ag,.ak,.am,.ap,.ar,.c,.f,.i,.m,.p,.r,.s,.u,.v,.x,.z{mix-blend-mode:multiply;}.a,.aa,.ab,.ac,.ad,.ae,.af,.ag,.ah,.ai,.aj,.ak,.al,.am,.an,.ao,.ap,.aq,.ar,.as,.c,.d,.e,.f,.g,.i,.j,.k,.l,.m,.n,.p,.r,.s,.u,.v,.w,.x,.z{isolation:isolate;}.a{fill:url(#a);}.b{fill:#f3a433;}.c{fill:url(#b);}.aa,.ac,.ah,.ai,.aj,.al,.an,.ao,.aq,.as,.d,.e,.g,.j,.k,.l,.n,.w{mix-blend-mode:overlay;}.d{fill:url(#c);}.ac,.e{fill:#1d1d1b;}.e,.n{opacity:0.3;}.f{fill:url(#d);}.g{fill:url(#e);}.h{fill:#f3be72;}.i{fill:url(#f);}.j{fill:url(#g);}.k{fill:url(#h);}.l{fill:url(#i);}.m{fill:url(#j);}.n{fill:#fff;}.o{fill:#570000;}.p{fill:url(#k);}.q{fill:#940000;}.r{fill:url(#l);}.s{fill:url(#m);}.t{fill:#7d0000;}.u{fill:url(#n);}.v{fill:url(#o);}.w{fill:url(#p);}.x{fill:url(#q);}.y{fill:#ba0000;}.z{fill:url(#r);}.aa{fill:url(#s);}.ab{fill:#592b2b;opacity:0.4;}.ac{opacity:0.1;}.ad{mix-blend-mode:hard-light;fill:url(#t);}.ae{fill:url(#u);}.af{fill:url(#v);}.ag{fill:url(#w);}.ah{fill:url(#x);}.ai{fill:url(#y);}.aj{fill:url(#z);}.ak{fill:url(#aa);}.al{fill:url(#ab);}.am{fill:url(#ac);}.an{fill:url(#ad);}.ao{fill:url(#ae);}.ap{fill:url(#af);}.aq{fill:url(#ag);}.ar{fill:url(#ah);}.as{fill:url(#ai);}</style><radialGradient id="a" cx="0.5" cy="0.5" r="4.643" gradientTransform="translate(0.446 -387.75) scale(0.108 0.108)" gradientUnits="objectBoundingBox"><stop offset="0" stop-color="#707070"/><stop offset="0.095" stop-color="#868686"/><stop offset="0.299" stop-color="#b1b1b1"/><stop offset="0.496" stop-color="#d3d3d3"/><stop offset="0.683" stop-color="#ebebeb"/><stop offset="0.856" stop-color="#f9f9f9"/><stop offset="1" stop-color="#fff"/></radialGradient><radialGradient id="b" cx="0.397" cy="1.94" r="2.294" gradientTransform="translate(-0.147) scale(1.294 1)" gradientUnits="objectBoundingBox"><stop offset="0.674" stop-color="#fff"/><stop offset="0.835" stop-color="#c78907"/><stop offset="0.869" stop-color="#d19e34"/><stop offset="0.944" stop-color="#ebd5a6"/><stop offset="1" stop-color="#fff"/></radialGradient><radialGradient id="c" cx="0.182" cy="1.096" r="0.536" gradientTransform="translate(-0.147) scale(1.294 1)" gradientUnits="objectBoundingBox"><stop offset="0" stop-color="#fff"/><stop offset="0.142" stop-color="#f8f8f8"/><stop offset="0.344" stop-color="#e5e5e5"/><stop offset="0.583" stop-color="#c6c6c6"/><stop offset="0.848" stop-color="#9b9b9b"/><stop offset="1" stop-color="gray"/></radialGradient><radialGradient id="d" cx="1.409" cy="2.383" r="2.887" gradientTransform="translate(-0.095) scale(1.19 1)" gradientUnits="objectBoundingBox"><stop offset="0.7" stop-color="#fff"/><stop offset="0.835" stop-color="#c78907"/><stop offset="0.869" stop-color="#d19e34"/><stop offset="0.944" stop-color="#ebd5a6"/><stop offset="1" stop-color="#fff"/></radialGradient><radialGradient id="e" cx="1.246" cy="1.15" r="0.853" gradientTransform="translate(-0.095) scale(1.19 1)" xlink:href="#c"/><radialGradient id="f" cx="-0.236" cy="2.029" r="1.911" gradientTransform="translate(0.045) scale(0.911 1)" gradientUnits="objectBoundingBox"><stop offset="0.494" stop-color="#fff"/><stop offset="0.717" stop-color="#c78907"/><stop offset="0.775" stop-color="#d19e34"/><stop offset="0.904" stop-color="#ebd5a6"/><stop offset="1" stop-color="#fff"/></radialGradient><radialGradient id="g" cx="0.619" cy="-0.591" r="1.456" gradientTransform="translate(0.114) scale(0.771 1)" xlink:href="#c"/><radialGradient id="h" cx="1.225" cy="-0.405" r="1.229" gradientTransform="translate(0.045) scale(0.911 1)" xlink:href="#c"/><radialGradient id="i" cx="0.277" cy="-0.509" r="1.364" gradientTransform="translate(0.092) scale(0.817 1)" xlink:href="#c"/><radialGradient id="j" cx="0.995" cy="2.162" r="2.162" gradientTransform="translate(0.092) scale(0.817 1)" gradientUnits="objectBoundingBox"><stop offset="0.627" stop-color="#bd8207"/><stop offset="0.679" stop-color="#c99934"/><stop offset="0.795" stop-color="#e7d2a6"/><stop offset="0.881" stop-color="#fff"/></radialGradient><radialGradient id="k" cx="1.041" cy="-0.606" r="1.535" gradientTransform="translate(-0.272) scale(1.543 1)" gradientUnits="objectBoundingBox"><stop offset="0" stop-color="#522900"/><stop offset="0.102" stop-color="#5e3711"/><stop offset="0.306" stop-color="#7d5e3f"/><stop offset="0.593" stop-color="#b09d8a"/><stop offset="0.949" stop-color="#f4f2ef"/><stop offset="1" stop-color="#fff"/></radialGradient><radialGradient id="l" cx="0.295" cy="-1.074" r="2.015" gradientTransform="translate(0.193) scale(0.614 1)" xlink:href="#k"/><radialGradient id="m" cx="0.388" cy="2.481" r="1.767" gradientTransform="translate(0.193) scale(0.614 1)" xlink:href="#d"/><radialGradient id="n" cx="1.209" cy="1.986" r="1.889" gradientTransform="translate(-0.277) scale(1.555 1)" xlink:href="#k"/><radialGradient id="o" cx="0.795" cy="1.538" r="1.173" gradientTransform="translate(-0.83) scale(2.66 1)" gradientUnits="objectBoundingBox"><stop offset="0.497" stop-color="#fff"/><stop offset="0.835" stop-color="#bd8207"/><stop offset="0.845" stop-color="#c99934"/><stop offset="0.866" stop-color="#e7d2a6"/><stop offset="0.881" stop-color="#fff"/></radialGradient><radialGradient id="p" cx="1.225" cy="-0.406" r="1.212" gradientTransform="translate(-0.83) scale(2.66 1)" xlink:href="#c"/><radialGradient id="q" cx="-4.089" cy="2.094" r="2.563" gradientTransform="translate(-0.83) scale(2.66 1)" xlink:href="#d"/><radialGradient id="r" cx="0.247" cy="1.792" r="1.705" gradientTransform="translate(0.253) scale(0.494 1)" xlink:href="#k"/><radialGradient id="s" cx="0.507" cy="-0.757" r="2.429" gradientTransform="translate(0.253) scale(0.494 1)" xlink:href="#c"/><radialGradient id="t" cx="0.951" cy="1.501" r="3.452" gradientTransform="translate(0.24) scale(0.52 1)" gradientUnits="objectBoundingBox"><stop offset="0" stop-color="#ffa1a1"/><stop offset="1" stop-color="gray"/></radialGradient><radialGradient id="u" cx="0.196" cy="1.518" r="1.123" gradientTransform="translate(-1.131) scale(3.262 1)" gradientUnits="objectBoundingBox"><stop offset="0.518" stop-color="#fff"/><stop offset="0.835" stop-color="#bd8207"/><stop offset="0.842" stop-color="#c99934"/><stop offset="0.858" stop-color="#e7d2a6"/><stop offset="0.87" stop-color="#fff"/></radialGradient><radialGradient id="v" cx="0.242" cy="2.031" r="1.183" gradientTransform="translate(-1.131) scale(3.262 1)" xlink:href="#d"/><radialGradient id="w" cx="3.551" cy="0.089" r="1.428" gradientTransform="translate(-3.531) scale(8.061 1)" xlink:href="#k"/><radialGradient id="x" cx="0.259" cy="1.071" r="0.643" gradientTransform="translate(-1.131) scale(3.262 1)" gradientUnits="objectBoundingBox"><stop offset="0.787" stop-color="gray"/><stop offset="0.803" stop-color="#858585"/><stop offset="0.824" stop-color="#949494"/><stop offset="0.847" stop-color="#aeaeae"/><stop offset="0.867" stop-color="#c9c9c9"/><stop offset="0.914" stop-color="#949494"/><stop offset="0.937" stop-color="gray"/></radialGradient><radialGradient id="y" cx="0.407" cy="0.739" r="0.845" xlink:href="#x"/><radialGradient id="z" cx="2.711" cy="-0.719" r="1.25" gradientTransform="translate(-1.131) scale(3.262 1)" xlink:href="#c"/><radialGradient id="aa" cx="1.361" cy="-0.441" r="1.818" gradientTransform="translate(-1.131) scale(3.262 1)" gradientUnits="objectBoundingBox"><stop offset="0.7" stop-color="#fff"/><stop offset="0.879" stop-color="#c78907"/><stop offset="0.904" stop-color="#d19e34"/><stop offset="0.959" stop-color="#ebd5a6"/><stop offset="1" stop-color="#fff"/></radialGradient><radialGradient id="ab" cx="1.225" cy="-0.406" r="1.221" gradientTransform="translate(-0.105) scale(1.211 1)" xlink:href="#c"/><radialGradient id="ac" cx="0.353" cy="2.843" r="2.428" gradientTransform="translate(-0.105) scale(1.211 1)" xlink:href="#d"/><radialGradient id="ad" cx="1.316" cy="0.728" r="1.442" gradientTransform="translate(-0.105) scale(1.211 1)" gradientUnits="objectBoundingBox"><stop offset="0.661" stop-color="gray"/><stop offset="0.678" stop-color="#858585"/><stop offset="0.7" stop-color="#949494"/><stop offset="0.723" stop-color="#aeaeae"/><stop offset="0.749" stop-color="#d1d1d1"/><stop offset="0.776" stop-color="#fff"/><stop offset="0.781" stop-color="#f0f0f0"/><stop offset="0.797" stop-color="#cecece"/><stop offset="0.814" stop-color="#b1b1b1"/><stop offset="0.832" stop-color="#9b9b9b"/><stop offset="0.852" stop-color="#8c8c8c"/><stop offset="0.874" stop-color="#828282"/><stop offset="0.906" stop-color="gray"/></radialGradient><radialGradient id="ae" cx="1.225" cy="-0.406" r="1.216" gradientTransform="translate(-0.302) scale(1.604 1)" xlink:href="#c"/><radialGradient id="af" cx="0.293" cy="3.438" r="2.96" gradientTransform="translate(-0.302) scale(1.604 1)" xlink:href="#d"/><radialGradient id="ag" cx="-0.536" cy="0.806" r="1.26" gradientTransform="translate(-0.302) scale(1.604 1)" xlink:href="#ad"/><radialGradient id="ah" cx="-0.356" cy="6.538" r="7.114" gradientTransform="translate(0.372) scale(0.255 1)" xlink:href="#d"/><radialGradient id="ai" cx="0.727" cy="-2.829" r="6.839" gradientTransform="translate(0.376) scale(0.249 1)" xlink:href="#c"/></defs><g transform="translate(-376.005 -3.857) rotate(-19)"><g transform="translate(315.388 238.966)"><ellipse class="a" cx="73.697" cy="7.936" rx="73.697" ry="7.936"/></g><g transform="translate(355.011 156.202)"><path class="b" d="M390.488,160.27c5.3-3.276,9.035,4,8.571,8.351a17.325,17.325,0,0,1-2.483,7.176c-.793,1.3-2.525,2.748-2.814,4.135,6.107-2.769,14.659-5.949,13.871-14.1-.583-6.024-9.32-9.515-14.6-7.647Z" transform="translate(-322.018 -155.553)"/><path class="c" d="M390.488,160.27c5.3-3.276,9.035,4,8.571,8.351a17.325,17.325,0,0,1-2.483,7.176c-.793,1.3-2.525,2.748-2.814,4.135,6.107-2.769,14.659-5.949,13.871-14.1-.583-6.024-9.32-9.515-14.6-7.647Z" transform="translate(-322.018 -155.553)"/><path class="d" d="M390.488,160.27c5.3-3.276,9.035,4,8.571,8.351a17.325,17.325,0,0,1-2.483,7.176c-.793,1.3-2.525,2.748-2.814,4.135,6.107-2.769,14.659-5.949,13.871-14.1-.583-6.024-9.32-9.515-14.6-7.647Z" transform="translate(-322.018 -155.553)"/><path class="e" d="M407.669,166.4c-.01-.189-.017-.377-.036-.571-.583-6.024-9.32-9.515-14.6-7.647l-2.549,2.087c4.092-2.53,7.251,1.233,8.265,5.087A17.438,17.438,0,0,1,407.669,166.4Z" transform="translate(-322.018 -155.553)"/><path class="b" d="M368.912,159.188c-3.1,2.471-3.456,7.918-2.562,11.585,1.136,4.658,5.249,5.877,7.866,9.222-3.289.206-6.522-1.567-9.3-2.909a21.524,21.524,0,0,1-7.647-7c-2.271-3.328-2.093-6.935,1.157-9.567,2.984-2.417,6.278-2.489,10.022-2.487Z" transform="translate(-337.28 -155.399)"/><path class="f" d="M368.912,159.188c-3.1,2.471-3.456,7.918-2.562,11.585,1.136,4.658,5.249,5.877,7.866,9.222-3.289.206-6.522-1.567-9.3-2.909a21.524,21.524,0,0,1-7.647-7c-2.271-3.328-2.093-6.935,1.157-9.567,2.984-2.417,6.278-2.489,10.022-2.487Z" transform="translate(-337.28 -155.399)"/><path class="g" d="M368.912,159.188c-3.1,2.471-3.456,7.918-2.562,11.585,1.136,4.658,5.249,5.877,7.866,9.222-3.289.206-6.522-1.567-9.3-2.909a21.524,21.524,0,0,1-7.647-7c-2.271-3.328-2.093-6.935,1.157-9.567,2.984-2.417,6.278-2.489,10.022-2.487Z" transform="translate(-337.28 -155.399)"/><path class="e" d="M368.911,159.188l-.464-1.159c-3.744,0-7.038.071-10.022,2.487a6.334,6.334,0,0,0-2.447,6.819c2.648-2.317,6.37-2.964,10.209-3.073A8.378,8.378,0,0,1,368.911,159.188Z" transform="translate(-337.279 -155.399)"/><path class="h" d="M379.709,182.271c-.012,2.3.793,4.227,3.647,4.688,6.147,1,11.936-3.526,17.66-5.146,3.9-1.1,8.385-5.818,10.733-9.184,5.179-7.43-1.28-13.532-8.84-15.667-13.36-3.771-19.559,7.5-22.007,18.642A33.651,33.651,0,0,0,379.709,182.271Zm11.169-2.768c1.465-7.332,3.669-18.816,13.823-18.731,5.351.049,8.66,3.364,6.542,8.361C408.3,176.049,398.537,182.235,390.878,179.5Z" transform="translate(-326.754 -156.193)"/><path class="i" d="M390.032,184.914c.011-.2.094-.5.131-.393.009-.02.02-.04.027-.06a7.339,7.339,0,0,1,.409-3.443c.023-.173.047-.347.069-.52a4.941,4.941,0,0,1,.24-.984l-.03-.01c1.465-7.332,3.669-18.816,13.823-18.731,5.351.049,8.66,3.364,6.542,8.361a15.568,15.568,0,0,1-2.087,3.467,6.945,6.945,0,0,1,1.47,1.53c.413-.517.792-1.023,1.124-1.5,5.179-7.43-1.28-13.532-8.84-15.667-13.36-3.771-19.559,7.5-22.007,18.642a33.651,33.651,0,0,0-1.193,6.667c-.012,2.3.793,4.227,3.647,4.688a13.736,13.736,0,0,0,6.3-.619A12.342,12.342,0,0,1,390.032,184.914Z" transform="translate(-326.754 -156.193)"/><path class="e" d="M380.9,171.337A33.651,33.651,0,0,0,379.709,178c-.012,2.3.793,4.227,3.647,4.688a13.736,13.736,0,0,0,6.3-.619,12.34,12.34,0,0,1,.376-1.426c.011-.2.094-.5.131-.393.009-.02.02-.04.027-.06a7.339,7.339,0,0,1,.409-3.443c.023-.173.047-.347.069-.52a4.941,4.941,0,0,1,.24-.984l-.03-.01c.344-1.726.733-3.68,1.252-5.661l-9.711-3.641A46.591,46.591,0,0,0,380.9,171.337Z" transform="translate(-326.754 -151.926)"/><path class="j" d="M399.647,156.962c-5.184-1.462-9.288-.655-12.513,1.527l8.961,3.584a10.508,10.508,0,0,1,5.344-1.3c5.351.049,8.66,3.364,6.542,8.361a15.568,15.568,0,0,1-2.087,3.467,6.945,6.945,0,0,1,1.47,1.53c.413-.517.792-1.023,1.124-1.5C413.666,165.2,407.208,159.1,399.647,156.962Z" transform="translate(-323.492 -156.193)"/><path class="k" d="M379.709,182.271c-.012,2.3.793,4.227,3.647,4.688,6.147,1,11.936-3.526,17.66-5.146,3.9-1.1,8.385-5.818,10.733-9.184,5.179-7.43-1.28-13.532-8.84-15.667-13.36-3.771-19.559,7.5-22.007,18.642A33.651,33.651,0,0,0,379.709,182.271Zm11.169-2.768c1.465-7.332,3.669-18.816,13.823-18.731,5.351.049,8.66,3.364,6.542,8.361C408.3,176.049,398.537,182.235,390.878,179.5Z" transform="translate(-326.754 -156.193)"/><path class="h" d="M365.882,156.971c-7.564,2.135-14.02,8.237-8.842,15.667a22.716,22.716,0,0,0,7.744,6.93,62.356,62.356,0,0,0,7.624,3.476L377.969,182c3.184,0,7,.82,10.022.292C388.672,168.991,382,152.42,365.882,156.971Zm-8.335,12.171c-2.119-5,1.19-8.312,6.542-8.361,10.154-.085,12.358,11.4,13.825,18.731C370.253,182.244,360.487,176.058,357.546,169.142Z" transform="translate(-337.533 -156.202)"/><path class="l" d="M365.882,156.971c-7.564,2.135-14.02,8.237-8.842,15.667a22.716,22.716,0,0,0,7.744,6.93,62.356,62.356,0,0,0,7.624,3.476L377.969,182c3.184,0,7,.82,10.022.292C388.672,168.991,382,152.42,365.882,156.971Zm-8.335,12.171c-2.119-5,1.19-8.312,6.542-8.361,10.154-.085,12.358,11.4,13.825,18.731C370.253,182.244,360.487,176.058,357.546,169.142Z" transform="translate(-337.533 -156.202)"/><path class="m" d="M365.882,156.971c-7.564,2.135-14.02,8.237-8.842,15.667a22.716,22.716,0,0,0,7.744,6.93,62.356,62.356,0,0,0,7.624,3.476L377.969,182c3.184,0,7,.82,10.022.292C388.672,168.991,382,152.42,365.882,156.971Zm-8.335,12.171c-2.119-5,1.19-8.312,6.542-8.361,10.154-.085,12.358,11.4,13.825,18.731C370.253,182.244,360.487,176.058,357.546,169.142Z" transform="translate(-337.533 -156.202)"/><path class="n" d="M363.968,160.78a10.211,10.211,0,0,1,6.733,2.251l8.813-3.96c-3.441-2.653-7.992-3.726-13.753-2.1-4.728,1.334-9.023,4.22-10.316,8.013a12.869,12.869,0,0,1,2.051-1.327C358.618,161.86,360.973,160.806,363.968,160.78Z" transform="translate(-337.413 -156.201)"/><path class="e" d="M381.571,178.5a36.163,36.163,0,0,0-1.91-13.656l-9.874,3.617c.761,2.512,1.267,5.071,1.706,7.258-.17.06-.341.114-.512.164l4.626,2.581A23.75,23.75,0,0,0,381.571,178.5Z" transform="translate(-331.113 -152.406)"/><path class="o" d="M364.458,199.991l-3.975-3.67-13.38,4.46,10.658,26.412L370.7,232.74Z" transform="translate(-341.078 -138.576)"/><path class="p" d="M364.458,199.991l-3.975-3.67-13.38,4.46,10.658,26.412L370.7,232.74Z" transform="translate(-341.078 -138.576)"/><path class="q" d="M427.352,202.956l-49.58-11.585L356.4,198.5l3.975,3.67,6.245,32.749.032.016h50.972a2.841,2.841,0,0,1,.807-.347l1.352-2.05C420.232,225.54,425.271,207.355,427.352,202.956Z" transform="translate(-336.995 -140.751)"/><path class="r" d="M427.352,202.956l-49.58-11.585L356.4,198.5l3.975,3.67,6.245,32.749.032.016h50.972a2.841,2.841,0,0,1,.807-.347l1.352-2.05C420.232,225.54,425.271,207.355,427.352,202.956Z" transform="translate(-336.995 -140.751)"/><path class="s" d="M427.352,202.956l-49.58-11.585L356.4,198.5l3.975,3.67,6.245,32.749.032.016h50.972a2.841,2.841,0,0,1,.807-.347l1.352-2.05C420.232,225.54,425.271,207.355,427.352,202.956Z" transform="translate(-336.995 -140.751)"/><path class="n" d="M369.93,209.439c-3.486,2.119-5.842,5.446-7.6,9.276l1.68,8.8.032.016h50.972a2.841,2.841,0,0,1,.807-.347l1.352-2.05c.045-.714.14-1.547.273-2.467C406.674,210.56,376.059,205.715,369.93,209.439Z" transform="translate(-334.388 -133.353)"/><path class="e" d="M422.245,219.543c1.721-6.92,3.906-14.048,5.107-16.587l-49.58-11.585L356.4,198.5l3.975,3.67,2.464,12.921a28.846,28.846,0,0,1,13.021-5.508C392.833,207.156,408.449,211.5,422.245,219.543Z" transform="translate(-336.995 -140.751)"/><path class="t" d="M342.917,188.687l4.635,23.17h17.5l-7.649-34.418C355.108,179.365,342.917,188.687,342.917,188.687Z" transform="translate(-342.917 -146.872)"/><path class="u" d="M342.917,188.687l4.635,23.17h17.5l-7.649-34.418C355.108,179.365,342.917,188.687,342.917,188.687Z" transform="translate(-342.917 -146.872)"/><path class="h" d="M345.5,184.557l4.676,26.023c4.325,8.211,7.529,16.516,11.009,24.8a9.557,9.557,0,0,0,5.962,2.553l-10.52-27.353-5.668-30.231A9.045,9.045,0,0,0,345.5,184.557Z" transform="translate(-341.782 -145.594)"/><path class="v" d="M345.5,184.557l4.676,26.023c4.325,8.211,7.529,16.516,11.009,24.8a9.557,9.557,0,0,0,5.962,2.553l-10.52-27.353-5.668-30.231A9.045,9.045,0,0,0,345.5,184.557Z" transform="translate(-341.782 -145.594)"/><path class="w" d="M345.5,184.557l4.676,26.023c4.325,8.211,7.529,16.516,11.009,24.8a9.557,9.557,0,0,0,5.962,2.553l-10.52-27.353-5.668-30.231A9.045,9.045,0,0,0,345.5,184.557Z" transform="translate(-341.782 -145.594)"/><path class="x" d="M345.5,184.557l4.676,26.023c4.325,8.211,7.529,16.516,11.009,24.8a9.557,9.557,0,0,0,5.962,2.553l-10.52-27.353-5.668-30.231A9.045,9.045,0,0,0,345.5,184.557Z" transform="translate(-341.782 -145.594)"/><path class="y" d="M353.322,178.376c.111-.056-.023.073-.337.335l7.649,34.418h.1c13.554-2.376,58.479-.276,67.641,2.866l1.166-.678c1.259-5.464,7.353-30.275,7.353-30.275C418.824,176.7,380.662,170.036,353.322,178.376Z" transform="translate(-338.494 -148.144)"/><path class="z" d="M353.322,178.376c.111-.056-.023.073-.337.335l7.649,34.418h.1c13.554-2.376,58.479-.276,67.641,2.866l1.166-.678c1.259-5.464,7.353-30.275,7.353-30.275C418.824,176.7,380.662,170.036,353.322,178.376Z" transform="translate(-338.494 -148.144)"/><path class="aa" d="M353.322,178.376c.111-.056-.023.073-.337.335l7.649,34.418h.1c13.554-2.376,58.479-.276,67.641,2.866l1.166-.678c1.259-5.464,7.353-30.275,7.353-30.275C418.824,176.7,380.662,170.036,353.322,178.376Z" transform="translate(-338.494 -148.144)"/><path class="ab" d="M397.05,177.177q-3.359-.691-6.89-1.259c5.333,10.917,6,23.967.443,34.978a86.294,86.294,0,0,1,8.573-4.406,20.351,20.351,0,0,1,.91,6.855l.265.029C411.3,202.7,405.656,188.21,397.05,177.177Z" transform="translate(-322.162 -147.54)"/><path class="ab" d="M378.273,174.569c-3.45.076-6.88.289-10.245.658-5.006,5.865-9.731,12.58-12.506,19.906l4,17.986h.1c.841-.148,1.808-.276,2.871-.391.681-2.527,2.637-4.629,3.76-7.009,2.274,2.332,5.105,4.1,7.392,6.422,1.134-.02,2.293-.036,3.486-.04C370.917,200.324,369.791,184.1,378.273,174.569Z" transform="translate(-337.379 -148.132)"/><path class="ac" d="M353.283,177.259c-.065.059-.16.142-.3.259l7.649,34.418h.1c13.554-2.376,58.479-.276,67.641,2.866l1.166-.678c.3-1.316.89-3.761,1.6-6.707C402.341,203.754,371.269,199.806,353.283,177.259Z" transform="translate(-338.494 -146.951)"/><path class="ad" d="M428.464,214.364c1.624-6.9,7.13-29.323,7.13-29.323-17.224-7.951-52.689-14.369-79.649-7.733,26.557-5.527,60.155.717,76.773,8.385,0,0-5.049,20.558-6.9,28.362-22.046-2.582-44.524-5.408-66.5-.986l.013.059h.1c12.886-2.258,54.125-.472,66.031,2.408h0c.289.069.558.141.812.212.039.012.078.023.117.032.243.072.475.141.681.214l1.166-.678c.033-.135.068-.289.105-.445s.076-.33.118-.507Z" transform="translate(-337.193 -148.142)"/><path class="h" d="M377.8,174.849l-1.586,37.521c-1.431,10.157,0,30.151,0,30.151,2.453.577,5.347.636,9.71-.052.754.035.353-23.524,3.81-29.611.676-12.038,4.118-24.075,6.962-36.114C391.124,174.928,384.439,172.989,377.8,174.849Z" transform="translate(-328.567 -148.341)"/><path class="ae" d="M377.8,174.849l-1.586,37.521c-1.431,10.157,0,30.151,0,30.151,2.453.577,5.347.636,9.71-.052.754.035.353-23.524,3.81-29.611.676-12.038,4.118-24.075,6.962-36.114C391.124,174.928,384.439,172.989,377.8,174.849Z" transform="translate(-328.567 -148.341)"/><path class="af" d="M377.8,174.849l-1.586,37.521c-1.431,10.157,0,30.151,0,30.151,2.453.577,5.347.636,9.71-.052.754.035.353-23.524,3.81-29.611.676-12.038,4.118-24.075,6.962-36.114C391.124,174.928,384.439,172.989,377.8,174.849Z" transform="translate(-328.567 -148.341)"/><path class="ag" d="M376.563,242.52s-1.431-19.993,0-30.151l1.586-37.521a20.736,20.736,0,0,1,5.192-.744,21.3,21.3,0,0,0-6.32.744l-.8,37.536-.784-.014c-1.432,10.157,0,30.151,0,30.151a18.5,18.5,0,0,0,4.727.433A17.547,17.547,0,0,1,376.563,242.52Z" transform="translate(-328.911 -148.341)"/><path class="ah" d="M377.8,174.849l-1.586,37.521c-1.431,10.157,0,30.151,0,30.151,2.453.577,5.347.636,9.71-.052.754.035.353-23.524,3.81-29.611.676-12.038,4.118-24.075,6.962-36.114C391.124,174.928,384.439,172.989,377.8,174.849Z" transform="translate(-328.567 -148.341)"/><path class="ai" d="M377.8,174.849l-1.586,37.521c-1.431,10.157,0,30.151,0,30.151,2.453.577,5.347.636,9.71-.052.754.035.353-23.524,3.81-29.611.676-12.038,4.118-24.075,6.962-36.114C391.124,174.928,384.439,172.989,377.8,174.849Z" transform="translate(-328.567 -148.341)"/><path class="aj" d="M377.8,174.849l-1.586,37.521c-1.431,10.157,0,30.151,0,30.151,2.453.577,5.347.636,9.71-.052.754.035.353-23.524,3.81-29.611.676-12.038,4.118-24.075,6.962-36.114C391.124,174.928,384.439,172.989,377.8,174.849Z" transform="translate(-328.567 -148.341)"/><path class="ak" d="M377.8,174.849l-1.586,37.521c-1.431,10.157,0,30.151,0,30.151,2.453.577,5.347.636,9.71-.052.754.035.353-23.524,3.81-29.611.676-12.038,4.118-24.075,6.962-36.114C391.124,174.928,384.439,172.989,377.8,174.849Z" transform="translate(-328.567 -148.341)"/><path class="n" d="M375.645,213.776c.176,6.444.545,11.647.545,11.647,2.453.577,5.347.636,9.71-.052.373.016.464-5.728.878-12.277A51.77,51.77,0,0,0,375.645,213.776Z" transform="translate(-328.539 -131.243)"/><path class="n" d="M393.381,176.27c-1.143-.373-2.335-.748-3.562-1.1-6.209,11.788-9.014,27.128-4.363,39.662a11.755,11.755,0,0,1,.963-2.45C387.1,200.346,390.536,188.309,393.381,176.27Z" transform="translate(-325.248 -147.868)"/><path class="h" d="M367.148,176.051a27.7,27.7,0,0,0-11.359,36.518c1.6-4.217,3.847-8.128,8.069-10.546,0,0,3.985,6.427,6.255,8.525.648-9.833-.285-27.989,7-35.173,1.983-1.957,6.189-1.02,8.541-.511C385.046,169.863,367.148,176.051,367.148,176.051Z" transform="translate(-338.529 -148.86)"/><path class="al" d="M367.148,176.051a27.7,27.7,0,0,0-11.359,36.518c1.6-4.217,3.847-8.128,8.069-10.546,0,0,3.985,6.427,6.255,8.525.648-9.833-.285-27.989,7-35.173,1.983-1.957,6.189-1.02,8.541-.511C385.046,169.863,367.148,176.051,367.148,176.051Z" transform="translate(-338.529 -148.86)"/><path class="am" d="M367.148,176.051a27.7,27.7,0,0,0-11.359,36.518c1.6-4.217,3.847-8.128,8.069-10.546,0,0,3.985,6.427,6.255,8.525.648-9.833-.285-27.989,7-35.173,1.983-1.957,6.189-1.02,8.541-.511C385.046,169.863,367.148,176.051,367.148,176.051Z" transform="translate(-338.529 -148.86)"/><path class="an" d="M367.148,176.051a27.7,27.7,0,0,0-11.359,36.518c1.6-4.217,3.847-8.128,8.069-10.546,0,0,3.985,6.427,6.255,8.525.648-9.833-.285-27.989,7-35.173,1.983-1.957,6.189-1.02,8.541-.511C385.046,169.863,367.148,176.051,367.148,176.051Z" transform="translate(-338.529 -148.86)"/><path class="ac" d="M353.907,187.178a27.676,27.676,0,0,0,1.881,19.671c1.6-4.217,3.847-8.128,8.069-10.546,0,0,3.985,6.427,6.255,8.525.33-4.994.252-12.136,1.049-18.9C365.447,186.408,359.559,185.456,353.907,187.178Z" transform="translate(-338.528 -143.141)"/><path class="h" d="M408.629,186.394c-4.214-8.152-9.25-12.148-18.377-11.132-.6.066-1.235.137-1.887.184.93.276,1.841.564,2.719.852-.009.033-.016.065-.023.1a3.984,3.984,0,0,1,1.422,1.2c2.543,3.483,3.077,10.177,3.585,13.144a118.159,118.159,0,0,1,1.425,19.5c1.151-1.2,4.207-7.546,5.7-7.349,2.015.268,4.81,8.194,4.945,9.885,2.641-.861,3.57-9.243,3.685-11.733A29.863,29.863,0,0,0,408.629,186.394Z" transform="translate(-322.951 -147.896)"/><path class="ao" d="M408.629,186.394c-4.214-8.152-9.25-12.148-18.377-11.132-.6.066-1.235.137-1.887.184.93.276,1.841.564,2.719.852-.009.033-.016.065-.023.1a3.984,3.984,0,0,1,1.422,1.2c2.543,3.483,3.077,10.177,3.585,13.144a118.159,118.159,0,0,1,1.425,19.5c1.151-1.2,4.207-7.546,5.7-7.349,2.015.268,4.81,8.194,4.945,9.885,2.641-.861,3.57-9.243,3.685-11.733A29.863,29.863,0,0,0,408.629,186.394Z" transform="translate(-322.951 -147.896)"/><path class="ap" d="M408.629,186.394c-4.214-8.152-9.25-12.148-18.377-11.132-.6.066-1.235.137-1.887.184.93.276,1.841.564,2.719.852-.009.033-.016.065-.023.1a3.984,3.984,0,0,1,1.422,1.2c2.543,3.483,3.077,10.177,3.585,13.144a118.159,118.159,0,0,1,1.425,19.5c1.151-1.2,4.207-7.546,5.7-7.349,2.015.268,4.81,8.194,4.945,9.885,2.641-.861,3.57-9.243,3.685-11.733A29.863,29.863,0,0,0,408.629,186.394Z" transform="translate(-322.951 -147.896)"/><path class="aq" d="M408.629,186.394c-4.214-8.152-9.25-12.148-18.377-11.132-.6.066-1.235.137-1.887.184.93.276,1.841.564,2.719.852-.009.033-.016.065-.023.1a3.984,3.984,0,0,1,1.422,1.2c2.543,3.483,3.077,10.177,3.585,13.144a118.159,118.159,0,0,1,1.425,19.5c1.151-1.2,4.207-7.546,5.7-7.349,2.015.268,4.81,8.194,4.945,9.885,2.641-.861,3.57-9.243,3.685-11.733A29.863,29.863,0,0,0,408.629,186.394Z" transform="translate(-322.951 -147.896)"/><path class="e" d="M394.038,189.13A130.379,130.379,0,0,1,395,205.551c1.151-1.2,4.207-7.546,5.7-7.349,2.015.268,4.81,8.194,4.945,9.885,2.641-.861,3.57-9.243,3.685-11.733a29.96,29.96,0,0,0-1.5-10.572C402.809,185.828,398.006,186.7,394.038,189.13Z" transform="translate(-320.459 -143.206)"/><path class="b" d="M391.214,176.026a23.952,23.952,0,0,0-10.837.263c-1.806-.069-3.621-.1-5.429-.1-1.743,0-3.489.035-5.225.112.389-5.623,10.946-7.736,13.2-2.414C385.057,171.271,389.971,173.183,391.214,176.026Z" transform="translate(-331.14 -149.782)"/><path class="ar" d="M391.214,176.026a23.952,23.952,0,0,0-10.837.263c-1.806-.069-3.621-.1-5.429-.1-1.743,0-3.489.035-5.225.112.389-5.623,10.946-7.736,13.2-2.414C385.057,171.271,389.971,173.183,391.214,176.026Z" transform="translate(-331.14 -149.782)"/><path class="as" d="M382.316,175.748c1.482-1.822,4.318-1.442,6.321-.082.866.085,1.724.207,2.572.36-1.244-2.843-6.157-4.754-8.286-2.142-2.24-5.279-12.639-3.241-13.188,2.277C372.1,172.116,380.35,171.112,382.316,175.748Z" transform="translate(-331.135 -149.782)"/></g></g></svg>