<svg xmlns="http://www.w3.org/2000/svg" width="196" height="196" viewBox="0 0 196 196"><defs><style>.a{fill:#292f33;}.b,.d{fill:none;}.b{stroke:#eebf1e;stroke-width:3px;}.c{stroke:none;}</style></defs><g transform="translate(-245 -4613)"><g transform="translate(93.14 3405.204)"><path class="a" d="M262.118,1366.758a10.471,10.471,0,0,1-.833-2.8c-.061-10.255-.046-20.511-.035-30.766,0-3.117,1.061-4.676,3.98-5.779,7.4-2.8,14.809-5.588,22.238-8.312,1.277-.469,1.857-1.071,1.748-2.5-.136-1.8-.033-3.615-.033-5.714-2.062,0-4,0-5.929,0-4.329-.011-6.29-1.948-6.294-6.219,0-4.216,0-8.431,0-12.254-1.612-1.143-3.2-1.919-4.265-3.148a4.954,4.954,0,0,1-.883-3.447,6.356,6.356,0,0,1,1.513-3.7c3.832-3.694,4.158-8.2,3.49-12.715a53.287,53.287,0,0,1-6.234-3.657,11.281,11.281,0,0,1-4.075-8.162c-.17-1.714.549-2.578,2.355-2.574,13.965.023,27.931-.065,41.895.059a12.019,12.019,0,0,1,11.565,11.708c.1,7.781.131,15.567-.009,23.347-.1,5.293-2.673,9.383-7.666,11.1-3.879,1.337-5.085,3.434-4.579,7.307a46.212,46.212,0,0,1,.03,8.063,2.188,2.188,0,0,0,1.745,2.5c7.161,2.614,14.29,5.314,21.432,7.981,3.922,1.464,4.794,2.725,4.794,6.984,0,9.819.028,19.638-.037,29.457a13.616,13.616,0,0,1-.835,3.242Zm13.094-3.575c0-1.095,0-1.96,0-2.826,0-2.982-.109-5.972.082-8.943.047-.73,1.078-1.4,1.655-2.091a11.679,11.679,0,0,1,1.7,2.094,4.764,4.764,0,0,1,.055,1.94q0,4.872,0,9.754h41.9c0-1.1,0-2.035,0-2.973,0-2.91-.111-5.827.082-8.724.049-.73,1.078-1.395,1.657-2.089a11.658,11.658,0,0,1,1.7,2.1,4.775,4.775,0,0,1,.049,1.939q0,4.872,0,9.751h10.479c0-10.19.048-20.223-.092-30.253-.011-.793-1.184-1.948-2.067-2.291-7.78-3.031-15.617-5.92-23.439-8.842-1.265-.472-2.384-.924-2.362-2.657.068-5.455-.036-10.914.094-16.366a3.291,3.291,0,0,1,1.5-2.277,46.945,46.945,0,0,1,4.966-2.218,8.8,8.8,0,0,0,5.7-8.714c-.022-6.984.005-13.968-.007-20.951-.011-6.624-3.446-10.028-10.114-10.031q-18.115-.01-36.229,0c-.691,0-1.383.064-2.091.1.635,3.854,3.5,6.374,7.779,6.847,1.366.151,2.228.606,2.239,2.078.043,5.964,1.011,12.175-4.434,16.682a1.371,1.371,0,0,0-.259.35c-1.251,2.017-.443,3.626,1.957,3.587,2.121-.035,2.808.865,2.77,2.891-.087,4.581.012,9.166-.045,13.748-.023,1.845.7,2.675,2.581,2.619,2.4-.071,4.8.025,7.2-.026,1.765-.038,2.507.747,2.473,2.5-.054,2.763-.134,5.536.026,8.291.118,2.031-.7,2.972-2.557,3.645-7.648,2.765-15.227,5.72-22.875,8.488-1.847.669-2.614,1.585-2.591,3.626.1,9.02.043,18.041.049,27.062,0,.7.065,1.407.1,2.187Z" transform="translate(-35.825 0)"/><path class="a" d="M211.452,1303.872c0,5.208.011,10.077,0,14.946-.012,3.994-2.035,5.983-6.069,6-.946.005-1.894.042-2.836-.017a5.092,5.092,0,0,1-5.022-5.04q-.1-15.931,0-31.862a4.993,4.993,0,0,1,5.091-4.956c9.165-.063,18.331-.023,27.5-.029,1.819,0,2.512.9,2.159,2.647-1.06,5.27-2.185,10.528-3.156,15.814-.34,1.853-1.162,2.565-3.063,2.525C221.27,1303.8,216.483,1303.872,211.452,1303.872Zm7.323-3.59,2.751-13.861c-6.36,0-12.456-.058-18.549.081a2.66,2.66,0,0,0-1.9,1.767c-.177,3.965-.089,7.943-.089,12.014Zm-17.791,3.639c0,5.282-.011,10.359.007,15.435,0,1.341.773,1.966,2.082,1.973.8,0,1.6-.033,2.4.008,1.747.088,2.521-.694,2.5-2.462-.046-4-.013-8-.012-12v-2.953Zm24.1-17.431-2.737,13.756h3.412c.922-4.629,1.82-9.134,2.74-13.756Z" transform="translate(0 -15.683)"/><path class="a" d="M217.023,1298.794c.433,0,.867.006,1.3,0,1.252-.015,2.344.5,2.088,1.807-.131.667-1.252,1.331-2.06,1.62a8.3,8.3,0,0,1-2.579.058c-1.252.011-2.343-.5-2.088-1.808.131-.667,1.286-1.192,2.057-1.647C216.063,1298.635,216.589,1298.793,217.023,1298.794Z" transform="translate(-9.087 -24.57)"/></g><g class="b" transform="translate(245 4613)"><rect class="c" width="196" height="196" rx="22"/><rect class="d" x="1.5" y="1.5" width="193" height="193" rx="20.5"/></g></g></svg>