<svg xmlns="http://www.w3.org/2000/svg" xmlns:xlink="http://www.w3.org/1999/xlink" width="247.346" height="202.196" viewBox="0 0 247.346 202.196"><defs><style>.a{fill:#572500;}.b{opacity:0.5;mix-blend-mode:multiply;isolation:isolate;fill:url(#a);}.c{fill:url(#b);}.d{fill:url(#c);}.e{fill:#fff;}</style><linearGradient id="a" x1="0.495" y1="0.63" x2="0.582" y2="-1.887" gradientUnits="objectBoundingBox"><stop offset="0" stop-color="#fff"/><stop offset="0.992" stop-color="#ff6f00"/></linearGradient><linearGradient id="b" x1="0.13" y1="-0.116" x2="1.152" y2="1.284" gradientUnits="objectBoundingBox"><stop offset="0" stop-color="#dce775"/><stop offset="1" stop-color="#afb42b"/></linearGradient><linearGradient id="c" x1="1.334" y1="0.137" x2="-0.578" y2="0.811" xlink:href="#b"/></defs><path class="a" d="M337.273,667.221a1.319,1.319,0,0,1-.834-.848c-.944-3.479-1.9-10.259,2.315-16.572.311-.467,7.749-11.375,20.326-9.633,11.517,1.594,20.072,13.249,21.39,23.129a20.813,20.813,0,0,1-3.613,14.554,1.272,1.272,0,0,1-1.658.24,1.048,1.048,0,0,1-.484-1.474,19.078,19.078,0,0,0,3.33-13.337c-1.2-9.007-8.834-19.608-19.054-21.026-11.071-1.534-18.018,8.661-18.085,8.767-3.832,5.741-2.959,11.937-2.1,15.116a.932.932,0,0,1-.9,1.166A1.379,1.379,0,0,1,337.273,667.221Z" transform="translate(-149.393 -628.649)"/><path class="b" d="M448.583,750.181Q479.39,710.991,510.19,671.8l-62.658,2.655q-82.294,37.107-164.589,74.217,3.288.753,6.572,1.51Z" transform="translate(-282.944 -547.986)"/><path class="c" d="M390.327,643.372q-2.073,17.726-4.157,35.435c-.272,2.3-.544,4.617-.806,6.918q-1.066,8.95-2.1,17.908c-.272,2.3-.548,4.617-.81,6.918q-1.06,8.972-2.1,17.933-.414,3.415-.8,6.83-.97,8.266-1.941,16.53-9.629-1.214-19.241-2.4c-1.594-.212-3.185-.4-4.779-.611l-18.545-2.312q-1.395-17.35-2.821-34.689c-.138-1.753-.286-3.5-.424-5.249-.5-6.045-.983-12.065-1.467-18.11v-.011c-.138-1.531-.262-3.061-.385-4.592q-1.3-16.247-2.637-32.511l17.537-2.227h.014l5.932-.746Z" transform="translate(-170.462 -620.05)"/><path class="d" d="M354.252,643.373l12.192,7.095q7.646,1.548,15.3,3.1-10.053,45.15-20.1,90.294-3.325.074-6.649.145-6.724,3.919-13.447,7.833Q347.9,697.607,354.252,643.373Z" transform="translate(-134.394 -620.047)"/><path class="e" d="M337.684,657.58a3.493,3.493,0,1,1-3.493-3.493A3.5,3.5,0,0,1,337.684,657.58Zm11.224-12.79a3.4,3.4,0,0,1,.746,2.153,3.489,3.489,0,0,1-6.978,0,3.537,3.537,0,0,1,.286-1.407h.014Zm-18.036,34.067a3.505,3.505,0,0,0-2.81,1.417c.124,1.531.247,3.061.385,4.592v.011a3.539,3.539,0,0,0,2.425.972,3.5,3.5,0,0,0,0-6.992Zm11.962-10.637a3.491,3.491,0,1,0,3.493,3.489A3.49,3.49,0,0,0,342.835,668.22Zm11.973-10.64a3.491,3.491,0,1,0,3.489,3.492A3.491,3.491,0,0,0,354.808,657.58Zm11.97-10.64a3.491,3.491,0,1,0,3.489,3.492A3.491,3.491,0,0,0,366.777,646.939Zm-27.265,46.05A3.491,3.491,0,1,0,343,696.482,3.491,3.491,0,0,0,339.512,692.99Zm11.97-10.64a3.491,3.491,0,1,0,3.493,3.493A3.5,3.5,0,0,0,351.481,682.349Zm11.969-10.64a3.492,3.492,0,1,0,3.493,3.492A3.493,3.493,0,0,0,363.451,671.709Zm11.97-10.637a3.491,3.491,0,1,0,3.492,3.489A3.49,3.49,0,0,0,375.42,661.072Zm-27.265,46.05a3.491,3.491,0,1,0,3.493,3.489A3.489,3.489,0,0,0,348.155,707.122Zm11.973-10.64a3.491,3.491,0,1,0,3.489,3.489A3.49,3.49,0,0,0,360.128,696.482Zm11.97-10.64a3.491,3.491,0,1,0,3.489,3.489A3.49,3.49,0,0,0,372.1,685.842ZM384.07,675.2a3.49,3.49,0,0,0-.6,6.929c.262-2.3.534-4.617.806-6.918A1.38,1.38,0,0,0,384.07,675.2ZM356.8,721.114a3.491,3.491,0,1,0,3.493,3.493A3.491,3.491,0,0,0,356.8,721.114Zm11.97-10.5a3.493,3.493,0,1,0,3.493,3.493A3.5,3.5,0,0,0,368.771,710.611Zm11.966-10.633a3.491,3.491,0,0,0-.177,6.978c.262-2.3.537-4.617.81-6.918A3.884,3.884,0,0,0,380.737,699.978Zm-15.292,35.269a3.491,3.491,0,1,0,3.493,3.489A3.489,3.489,0,0,0,365.444,735.247Zm-35.53-32.26c.138,1.753.286,3.5.424,5.249a3.5,3.5,0,0,0,.993-2.45A3.446,3.446,0,0,0,329.914,702.987Zm6.575,13.444a3.492,3.492,0,1,0,3.493,3.492A3.493,3.493,0,0,0,336.489,716.43Zm8.647,13.995a3.491,3.491,0,1,0,3.489,3.489A3.49,3.49,0,0,0,345.136,730.425Zm8.647,14.129a3.575,3.575,0,0,0-2.079.682c1.594.212,3.185.4,4.779.611A3.467,3.467,0,0,0,353.783,744.554Zm23.631-19.814a3.494,3.494,0,0,0,0,6.989,2,2,0,0,0,.251-.011q.387-3.415.8-6.83A3.642,3.642,0,0,0,377.414,724.741Z" transform="translate(-168.571 -616.455)"/><path class="a" d="M334.356,677.156a1.243,1.243,0,0,1-1.075-.615,28.478,28.478,0,0,1-3.546-19.789c.131-.654,3.348-16.151,15.755-19.425,11.358-3,23.409,6.667,28.057,17.336a30,30,0,0,1,1.63,18.035,1.244,1.244,0,1,1-2.435-.506,27.538,27.538,0,0,0-1.474-16.536c-4.238-9.729-15.059-18.58-25.144-15.925-10.919,2.881-13.917,17.364-13.946,17.509a25.989,25.989,0,0,0,3.249,18.043,1.237,1.237,0,0,1-.442,1.7A1.2,1.2,0,0,1,334.356,677.156Z" transform="translate(-165.628 -636.774)"/></svg>