<svg xmlns="http://www.w3.org/2000/svg" width="196" height="196" viewBox="0 0 196 196"><defs><style>.a{fill:#292f33;}.b,.d{fill:none;}.b{stroke:#eebf1e;stroke-width:3px;}.c{stroke:none;}</style></defs><g transform="translate(-622 -4958)"><g transform="translate(587.71 4965)"><path class="a" d="M102.867,146.243h40.269a11.591,11.591,0,0,0,11.577-11.577V117.551H164.83c.052,0,.1,0,.155-.008.1,0,.2.008.3.008a9,9,0,0,0,8.91-9.074V66.208a1.51,1.51,0,0,0-1.51-1.51H154.714V46.577A11.591,11.591,0,0,0,143.136,35H102.867A11.59,11.59,0,0,0,91.29,46.577v88.088a11.59,11.59,0,0,0,11.577,11.577Zm33.073-31.712a5.98,5.98,0,0,1-5.889-6.054V105.09h26.326v3.388a9.129,9.129,0,0,0,2.278,6.054Zm35.238-6.054a5.894,5.894,0,1,1-11.783,0v-4.9a1.51,1.51,0,0,0-1.51-1.51H138.8l.3-34.351h32.075ZM102.867,38.02h40.269a8.567,8.567,0,0,1,8.557,8.557V50.1H148.17a1.51,1.51,0,0,0,0,3.02h3.524V64.7H137.607a1.51,1.51,0,0,0-1.51,1.5l-.313,35.874H128.54a1.51,1.51,0,0,0-1.51,1.51v4.9a9.017,9.017,0,0,0,8.311,9.051,1.519,1.519,0,0,0,.252.023h16.1v7.55H94.309V53.121h41.024a1.51,1.51,0,1,0,0-3.02H94.309V46.577a8.567,8.567,0,0,1,8.558-8.557Zm-8.557,90.1h57.383v6.544a8.567,8.567,0,0,1-8.557,8.557H102.867a8.567,8.567,0,0,1-8.557-8.557Z" transform="translate(0)"/><path class="a" d="M281.494,98.02h2.8a1.51,1.51,0,1,0,0-3.02h-2.8a1.51,1.51,0,1,0,0,3.02Z" transform="translate(-141.203 -44.899)"/><path class="a" d="M201.575,424.571a5.285,5.285,0,1,0-5.285-5.285A5.285,5.285,0,0,0,201.575,424.571Zm0-7.55a2.265,2.265,0,1,1-2.265,2.265,2.265,2.265,0,0,1,2.265-2.265Z" transform="translate(-78.573 -283.613)"/><path class="a" d="M302.794,194.454h6.159a1.51,1.51,0,0,0,0-3.02h-6.159a1.51,1.51,0,1,0,0,3.02Z" transform="translate(-157.142 -117.063)"/><path class="a" d="M302.794,228.937h17.915a1.51,1.51,0,1,0,0-3.02H302.794a1.51,1.51,0,1,0,0,3.02Z" transform="translate(-157.142 -142.867)"/><path class="a" d="M302.794,263.42h17.915a1.51,1.51,0,1,0,0-3.02H302.794a1.51,1.51,0,1,0,0,3.02Z" transform="translate(-157.142 -168.671)"/></g><g class="b" transform="translate(622 4958)"><rect class="c" width="196" height="196" rx="22"/><rect class="d" x="1.5" y="1.5" width="193" height="193" rx="20.5"/></g></g></svg>