<svg xmlns="http://www.w3.org/2000/svg" width="196" height="196" viewBox="0 0 196 196"><defs><style>.a{fill:#292f33;}.b,.d{fill:none;}.b{stroke:#eebf1e;stroke-width:3px;}.c{stroke:none;}</style></defs><g transform="translate(-245 -4958)"><g transform="translate(284.001 4966.475)"><g transform="translate(-0.001 39.525)"><path class="a" d="M2.525,128.841a2.287,2.287,0,1,0,.874-2.8,2.305,2.305,0,0,0-.874,2.8Z" transform="translate(-1.815 -105.96)"/><path class="a" d="M95.01,79.949q.336-.867.619-1.728a32.766,32.766,0,0,0,1.579-11.981,27.849,27.849,0,0,0-9.081-18.865c-5.3-4.989-12.038-7.851-18.482-7.851-9.6,0-17.1,5.359-20.721,8.554a.706.706,0,0,1-.933.011c-3.75-3.2-11.419-8.565-20.644-8.565-7.624,0-15.739,4.113-21.179,10.734A2.289,2.289,0,0,0,9.7,53.166C14.3,47.576,21.057,44.1,27.346,44.1c7.758,0,14.4,4.68,17.673,7.47a5.315,5.315,0,0,0,6.934-.062c3.133-2.767,9.6-7.408,17.691-7.408,10.347,0,22.377,9.561,22.99,22.356A28.274,28.274,0,0,1,91.278,76.8c-.257.785-.547,1.559-.877,2.342q-1.379-.131-2.793-.132a29.736,29.736,0,0,0-29.591,29.813q0,1.166.088,2.311c-2.264,1.847-4.1,3.359-5.642,4.66a6.182,6.182,0,0,1-8.015,0c-2.077-1.76-4.778-3.96-7.637-6.29-10.32-8.409-24.454-19.926-27.856-25.707A31.9,31.9,0,0,1,4.75,72.958c-.073-.415-.138-.837-.192-1.254a2.289,2.289,0,0,0-4.54.589c.063.486.138.977.223,1.46a36.314,36.314,0,0,0,4.769,12.36C8.83,92.6,22.741,103.937,33.92,113.046c2.842,2.316,5.526,4.5,7.57,6.234a10.746,10.746,0,0,0,13.932,0c1.028-.87,2.2-1.84,3.549-2.948A29.625,29.625,0,1,0,95.01,79.949Zm-7.4,54.1a25.236,25.236,0,1,1,25.013-25.235A25.153,25.153,0,0,1,87.609,134.053Z" transform="translate(0.001 -39.525)"/><path class="a" d="M339.682,279.963h-3.146V276.77a5.087,5.087,0,0,0-5.07-5.093h-5.5a5.087,5.087,0,0,0-5.07,5.093v3.194h-3.146a5.087,5.087,0,0,0-5.07,5.093V290.6a5.087,5.087,0,0,0,5.07,5.093H320.9v3.194a5.087,5.087,0,0,0,5.07,5.093h5.5a5.087,5.087,0,0,0,5.07-5.093v-3.194h3.146a5.087,5.087,0,0,0,5.07-5.093v-5.545A5.087,5.087,0,0,0,339.682,279.963Zm.492,10.638a.5.5,0,0,1-.492.515h-5.435a2.289,2.289,0,0,0-2.289,2.289v5.483a.5.5,0,0,1-.492.515h-5.5a.5.5,0,0,1-.492-.515V293.4a2.289,2.289,0,0,0-2.289-2.289h-5.435a.5.5,0,0,1-.492-.515v-5.545a.5.5,0,0,1,.492-.515h5.435a2.289,2.289,0,0,0,2.289-2.289V276.77a.5.5,0,0,1,.492-.515h5.5a.5.5,0,0,1,.492.515v5.483a2.289,2.289,0,0,0,2.289,2.289h5.435a.5.5,0,0,1,.492.515Z" transform="translate(-241.107 -218.536)"/></g></g><g class="b" transform="translate(245 4958)"><rect class="c" width="196" height="196" rx="22"/><rect class="d" x="1.5" y="1.5" width="193" height="193" rx="20.5"/></g></g></svg>