<svg xmlns="http://www.w3.org/2000/svg" xmlns:xlink="http://www.w3.org/1999/xlink" width="214.946" height="344.337" viewBox="0 0 214.946 344.337"><defs><style>.a{fill:url(#a);}.b{fill:url(#b);}.c{fill:#212121;}.d{fill:#fff;}.e{fill:url(#c);}.f{fill:#ffccbc;}.g{opacity:0.5;fill:url(#d);}.g,.m{mix-blend-mode:multiply;isolation:isolate;}.h{fill:#004d40;}.i{fill:url(#e);}.j{fill:url(#f);}.k{fill:#ffab91;}.l{fill:url(#g);}.m{fill:#eee;}.n{fill:url(#i);}.o{fill:url(#j);}.p{fill:url(#k);}</style><linearGradient id="a" x1="1.7" y1="0.729" x2="3.415" y2="1.589" gradientUnits="objectBoundingBox"><stop offset="0" stop-color="#ffab91"/><stop offset="1" stop-color="#ffccbc"/></linearGradient><linearGradient id="b" x1="0.3" y1="-0.231" x2="0.893" y2="0.9" gradientUnits="objectBoundingBox"><stop offset="0" stop-color="#ffee58"/><stop offset="1" stop-color="#fb8c00"/></linearGradient><linearGradient id="c" x1="1.097" y1="0.937" x2="0.395" y2="0.36" xlink:href="#a"/><linearGradient id="d" x1="0.47" y1="0.612" x2="0.759" y2="-2.439" gradientUnits="objectBoundingBox"><stop offset="0" stop-color="#fff"/><stop offset="0.992" stop-color="#ff6f00"/></linearGradient><linearGradient id="e" x1="0" y1="0.5" x2="1" y2="0.5" xlink:href="#b"/><linearGradient id="f" x1="27.439" y1="2.701" x2="26.329" y2="0.839" xlink:href="#a"/><linearGradient id="g" x1="0.532" y1="-0.072" x2="0.434" y2="1.09" gradientUnits="objectBoundingBox"><stop offset="0" stop-color="#4a3e57"/><stop offset="1" stop-color="#2c223d"/></linearGradient><linearGradient id="i" x1="9.013" y1="2.58" x2="7.931" y2="-0.277" xlink:href="#a"/><linearGradient id="j" x1="0.864" y1="0.037" x2="0.187" y2="0.964" xlink:href="#b"/><linearGradient id="k" x1="6.218" y1="1.139" x2="6.036" y2="0.368" gradientUnits="objectBoundingBox"><stop offset="0" stop-color="#004d40"/><stop offset="1" stop-color="#00695c"/></linearGradient></defs><path class="a" d="M312.58,627.723l7.954.7-.028-.042c-2.775-4.086-4.221-4.171-6.943-8.212a31.44,31.44,0,0,1-2.821-5.19,21.793,21.793,0,0,0,0-4.252c-.081-.82-.212-1.644-.407-3.171-.046-.361-.11-.975-.219-1.849-.074-.594-.138-1.085-.184-1.414a3.157,3.157,0,0,0-.792.608,3.672,3.672,0,0,0-.576.845,6.2,6.2,0,0,0-.159,3.563l-2.673-2.054q-1.575-3.319-3.15-6.635c-1.778.612-1.191.41-2.969,1.018q1.034,4.677,2.071,9.357,2.487,3.324,4.97,6.649A61.887,61.887,0,0,1,312.58,627.723Z" transform="translate(-160.289 -574.071)"/><path class="b" d="M338.8,605.06s-3.21-2.425-6.957,1.435-9.714,21.288-9.714,21.288-2.263-6.561-4.019-8.534-9.792-9.756-9.792-9.756l-6.964,5.214s14.688,25.6,15.975,26.4,17.113-.88,17.113-.88Z" transform="translate(-155.889 -564.721)"/><path class="c" d="M308.775,616.348l-9.525-14.732,5.14-1.9,8.082,13.038Z" transform="translate(-161.22 -576.363)"/><path class="c" d="M309.087,614.986l-.527.263-9.434-14.17.436-.825Z" transform="translate(-161.533 -575.001)"/><path class="d" d="M308.149,615.17,299.4,601.636l4.721-1.745,7.423,11.976Z" transform="translate(-160.842 -575.918)"/><path class="e" d="M307.227,613.824c-.4-.611-1.654-3-1.654-3a19,19,0,0,1-.286-4.655,2.579,2.579,0,0,0-.124-1.343,2.459,2.459,0,0,0-.537-.806,7.164,7.164,0,0,1-.53,2.245,9.614,9.614,0,0,1-.492.969h0l-.661-.763a14.39,14.39,0,0,0,.357-3.04,3.8,3.8,0,0,0-.322-1.771,3.464,3.464,0,0,0-.484-.735q-.4,1.978-.792,3.952h0l-2.057-2.57,1.976,7.929,4.709,6.3a1.921,1.921,0,0,0,1.216-1.082A1.806,1.806,0,0,0,307.227,613.824Z" transform="translate(-160.221 -573.308)"/><path class="f" d="M307.2,660.073l2.407,6.72q3.844-1.5,7.689-3-.8-3.16-1.6-6.328Z" transform="translate(-141.079 -429.962)"/><path class="g" d="M413.165,671.284q-76.483,25.6-152.962,51.2,44.923,20.685,89.849,41.377l92.207-102.281Z" transform="translate(-260.203 -419.528)"/><path class="c" d="M319.044,662.256l-.18,4.1c-4.016,2.552-7.3,4.44-9.576,5.7-3.111,1.722-5.613,2.987-5.8,5.119a3.944,3.944,0,0,0,.894,2.648l22.631-7.618,1.262-1.591,1.255.746q1.527-.716,3.051-1.435a24.557,24.557,0,0,0-5.843-10.672Q322.888,660.759,319.044,662.256Z" transform="translate(-150.521 -425.425)"/><path class="h" d="M327.646,623.919q-12.18,25.638-24.352,51.275a8.473,8.473,0,0,0-.679,5.182q6.268,33.883,12.542,67.762c8.212-.884,5.041-.544,13.253-1.428q-.907-29.01-1.813-58.016,15.976-30.107,31.953-60.211Q343.1,626.2,327.646,623.919Z" transform="translate(-153.05 -515.008)"/><path class="i" d="M315.229,603.04l-2.952,1.392-1.445,5.809,3.413-3.723Z" transform="translate(-131.859 -567.937)"/><path class="f" d="M310.522,628.965c3.04,3.15,10.863.912,15.25-3.273a16.6,16.6,0,0,0,4.783-9.675c-1.531-1.421-3.061-2.821-4.6-4.228-.622-2.835-1.025-4.928-1.043-5.249-.021-.141-.032-.29-.032-.29-.011-.152-.025-.371-.035-.626a.087.087,0,0,1-.007-.046,2.022,2.022,0,0,0-.018-.219c0-.113-.021-.29-.035-.509-.042-.438-.1-1.294-.131-1.64a27.031,27.031,0,0,0-.58-3.475c-.732.223-1.439.46-2.16.693-1.608.516-3.2,1.018-4.811,1.531-.813.262-1.64.52-2.482.781.078.452.163.908.251,1.354.06.361.106.732.191,1.1.014.081.032.163.046.233.148.923.3,1.7.438,2.358a34.665,34.665,0,0,1,.71,3.924l0,.01a3.5,3.5,0,0,1-.007.378,7.571,7.571,0,0,1-.407,2c-.046.135-.092.269-.138.389a3.323,3.323,0,0,1-.159.389C315.139,615.235,308.585,626.957,310.522,628.965Z" transform="translate(-133.55 -576.317)"/><path class="j" d="M312.708,611.217a3.506,3.506,0,0,1-.007.378,7.571,7.571,0,0,1-.407,2c-.046.134-.092.269-.138.389a29.838,29.838,0,0,0,3.04-1.789c4.931-3.3,6.158-6.154,6.1-7.066a.087.087,0,0,1-.007-.046,2.021,2.021,0,0,0-.018-.219c0-.113-.021-.29-.035-.509-.042-.438-.1-1.294-.131-1.64a7.123,7.123,0,0,0-2.74-2.782c-1.608.516-3.2,1.018-4.811,1.531l-1.743,1.662c-.085.6-.173,1.2-.251,1.8.148.923.3,1.7.438,2.358a34.663,34.663,0,0,1,.71,3.924Z" transform="translate(-130.006 -575.82)"/><path class="f" d="M323.492,594.519c4.68,1.435,6.568,5.921,7.194,7.4.357.841.93,2.432,1.156,8.279.092,2.375.131,5.578-.078,9.417-.032.573-.816,1.418-1.87,2.132-3.432,2.33-9.081.283-12.206-2.633-.318-.3-.569-.566-.728-.746a34.221,34.221,0,0,1-2.453-2.821c-2.605-3.344-5.115-6.561-5.094-10.651a11.082,11.082,0,0,1,2.086-6.289A11.319,11.319,0,0,1,323.492,594.519Z" transform="translate(-135.459 -590.647)"/><path class="c" d="M314.538,601.045l-.2.049a.611.611,0,0,1-.725-.463l-.318-1.418a.61.61,0,0,1,.459-.728l.205-.046a.613.613,0,0,1,.728.463L315,600.32A.608.608,0,0,1,314.538,601.045Z" transform="translate(-125.667 -579.635)"/><rect class="c" width="1.426" height="2.67" rx="0.172" transform="translate(193.136 17.811) rotate(-12.559)"/><path class="k" d="M314.385,598.509a8.83,8.83,0,0,1,.7,4.383,7.93,7.93,0,0,1-.223,1.234,1.889,1.889,0,0,0,1.114-.994c.195-.52-.028-1.007-.435-1.941C315.3,600.648,314.908,599.739,314.385,598.509Z" transform="translate(-122.853 -579.422)"/><path class="c" d="M319.307,666.207l-.919,2.672q-7.763,3.394-15.526,6.78l-1.64,3.047,23.773-2.28q.567-1.129,1.135-2.266l1.506,2.015c1.1-.233,2.2-.47,3.3-.7a24.644,24.644,0,0,0-3.266-11.719Z" transform="translate(-156.221 -414.03)"/><path class="l" d="M308.771,627.627a35.219,35.219,0,0,0,.205,5.875c.028.4.056.823.088,1.3,0,.226.014.442.028.668.219,6.815.555,13.864,1.06,21.093q.695,10.122,1.672,19.679c3.6,3.058,6.628,3.878,8.8,4.023a66.173,66.173,0,0,1,8.024.3c1.463.191,2.206.371,3.224.559a41.42,41.42,0,0,0,10.739.438c.039-.233.074-.488.12-.753a26.492,26.492,0,0,0,.131-5.158.634.634,0,0,1-.007-.162l-.014-.11a169.483,169.483,0,0,1-.6-20.33c.007-.3.021-.611.039-.912a.944.944,0,0,1,0-.173c.65-7.371,1.294-9.7,1.859-15.858.195-2.093.375-4.641.541-7.975.1-1.867.159-3.549.2-5,.035-1.117.057-2.086.06-2.9-.028-.141-.06-.293-.1-.449-.046-.209-.1-.428-.159-.636a27.376,27.376,0,0,0-7.5-13.055,26.5,26.5,0,0,0-7.028-4.818,27.754,27.754,0,0,0-13.4,8.392c.2-.618.435-1.244.7-1.888a41.941,41.941,0,0,1,1.764-3.906,33.821,33.821,0,0,0-3.56,3.984S309.5,618.019,308.771,627.627Z" transform="translate(-137.228 -567.333)"/><path class="i" d="M320.58,602.563l-8.469,5.5.224,6.672,10.191-9.155Z" transform="translate(-128.617 -569.144)"/><path class="m" d="M310.733,648.158c.817,2.464,11.125-.969,15.494,4.422,1.389,1.708,1.442,3.305,4.005,6.027.827.884,1.4,1.287,4.221,3.765,1.1.969,2.209,1.941,3.273,2.853a26.492,26.492,0,0,0,.131-5.158.634.634,0,0,1-.007-.162l-.014-.11a169.49,169.49,0,0,1-.6-20.33c.007-.3.021-.611.039-.912a.944.944,0,0,1,0-.173c.65-7.371,1.294-9.7,1.859-15.858.195-2.093.375-4.641.541-7.975.1-1.867.159-3.549.2-5q-9.056-.059-18.124-.124c5.059,15.812,3.047,24.349-.785,29.234C316.993,643.725,310.061,646.14,310.733,648.158Z" transform="translate(-132.227 -551.75)"/><path class="c" d="M309.767,601.882c1.69-4.108,5.967-8.869,11.612-8.77a11.507,11.507,0,0,1,6.907,2.669c.59-.11,3.259-.552,5.1,1.032,2.287,1.966,2.591,6.448-.258,10.145a11.761,11.761,0,0,1-6.444.792,11.554,11.554,0,0,1-4.74-1.93,11.466,11.466,0,0,0-2.517,5.147,11.152,11.152,0,0,0-.17,3.171l-.668-.414c-.117-1.895-1.417-3.058-2.393-2.945a2.4,2.4,0,0,0-1.605,2.7c.159.672.633.615,1.485,1.888s.852,1.488,1.177,1.658.887.2,1.969-.5q-.106.631-.2,1.294c-.145,1.05-.24,2.057-.3,3.012l-2.952-2.432a11.513,11.513,0,0,1-5.168-7.363l-1.195.94A15.228,15.228,0,0,1,309.767,601.882Z" transform="translate(-137.228 -593.11)"/><path class="n" d="M307.667,630.723a4.973,4.973,0,0,1-.46-1.711,7.192,7.192,0,0,1,3.878-1.177,10.4,10.4,0,0,0,1.679.05,10.784,10.784,0,0,0-2.5-.82,3.8,3.8,0,0,1-2.3,1.35,3.482,3.482,0,0,1-1.22-.032l4.019-4.793,12.171.131a45.077,45.077,0,0,0,11.018-7.3l5.235,5.748q-6.48,2.874-12.952,5.755l-10.266,6.405C315.639,634.336,309.474,634.456,307.667,630.723Z" transform="translate(-142.23 -534.026)"/><path class="o" d="M316.529,621.2c.665,2.242,1.3,2.609,5.925,10.414,1.63,2.758,2.92,5.027,3.733,6.476q-7.047,6.188-14.094,12.383l6.791,6.61a161.32,161.32,0,0,0,17.353-5.341c2.22-.831,5.073-1.976,6.518-4.737a9.121,9.121,0,0,0,.711-5.589c-1.17-8.759-6.932-24.762-7.752-27.018a19.926,19.926,0,0,0-1.584-3.786,20.151,20.151,0,0,0-3.56-4.716,14.678,14.678,0,0,0-4.051-.976c-.643-.06-4.511-.254-7.2,1.7C315.176,609.627,315.218,616.764,316.529,621.2Z" transform="translate(-128.663 -563.264)"/><path class="p" d="M320.093,623.92a305.348,305.348,0,0,0-12.934,63.138c-3.489,36.866-.541,80.106-.541,80.106h0l15.3-1.463,5.112-71.711a8.6,8.6,0,0,1,1.138-3.687c7.876-13.666,10.835-23.939,14.225-30.45,3.418-6.558,7.25-16.459,8.48-30.617Z" transform="translate(-145.493 -515.006)"/><path class="c" d="M313.048,598.807a7.222,7.222,0,0,1,1.372-.424,7.535,7.535,0,0,1,1.375-.138.292.292,0,0,0-.117-.573,7.328,7.328,0,0,0-2.747.562.292.292,0,0,0,.117.573Z" transform="translate(-127.129 -581.558)"/><path class="c" d="M314.883,598.431a6.847,6.847,0,0,1,1.368-.424,6.972,6.972,0,0,1,1.375-.138.294.294,0,1,0-.117-.576,7.33,7.33,0,0,0-2.747.562.294.294,0,0,0,.12.576Z" transform="translate(-122.484 -582.522)"/><path class="c" d="M315.987,601.976a1.822,1.822,0,0,1-.958-.078,1.957,1.957,0,0,1-.827-.523.172.172,0,0,1,.007-.24.169.169,0,0,1,.241,0,1.631,1.631,0,0,0,.682.435,1.311,1.311,0,0,0,1.11-.07,1.122,1.122,0,0,0,.442-.647.173.173,0,0,1,.212-.117.17.17,0,0,1,.117.209,1.494,1.494,0,0,1-.583.841A1.321,1.321,0,0,1,315.987,601.976Z" transform="translate(-123.433 -573.786)"/></svg>