<svg xmlns="http://www.w3.org/2000/svg" xmlns:xlink="http://www.w3.org/1999/xlink" width="1921.594" height="521.451" viewBox="0 0 1921.594 521.451"><defs><style>.a{opacity:0.65;fill:url(#a);}.b{fill:url(#b);}.c{fill:url(#c);}</style><linearGradient id="a" x1="0.5" y1="-0.89" x2="0.5" y2="3.084" gradientUnits="objectBoundingBox"><stop offset="0" stop-color="#fff"/><stop offset="1" stop-color="#fff176"/></linearGradient><linearGradient id="b" x1="0.471" y1="-0.077" x2="0.514" y2="0.865" gradientUnits="objectBoundingBox"><stop offset="0" stop-color="#fffde7"/><stop offset="1" stop-color="#ffb300"/></linearGradient><linearGradient id="c" x1="0.437" y1="-2.187" x2="0.563" y2="3.183" gradientUnits="objectBoundingBox"><stop offset="0" stop-color="#ffca28"/><stop offset="1" stop-color="#fb8c00"/></linearGradient></defs><path class="a" d="M1964.661,959.608v70.311H43.08V571.467c77.367-10.478,186.626-12,290.006,43.717,72.085,38.853,89.647,77.692,151.2,104.985,138.133,61.25,298.575-23.992,345.364-44.88C979.716,608.294,1283.208,612.886,1964.661,959.608Z" transform="translate(-43.07 -508.472)"/><path class="b" d="M1905.241,617.6v453.39H66.52q4.666-60.374,9.325-120.752a804.574,804.574,0,0,0,171.362-25.2c144.245-37.5,147.8-81.881,250.736-90.718,64.468-5.536,166.855,2.959,224.281-7.561,38.694-7.088,72.481-23.674,72.481-23.674a233.31,233.31,0,0,0,20.616-11.266c45.513-27.711,67.716-63.188,117.715-98.294,0,0,37.779-26.632,96.625-49.313,150.8-58.122,249.46,64.874,415.8,29.143,131.8-28.312,147.7-122.261,272.158-123.792C1797.739,548.569,1863.39,586.609,1905.241,617.6Z" transform="translate(16.35 -549.54)"/><rect class="c" width="1921.594" height="153.451" transform="translate(0 368)"/></svg>