<svg xmlns="http://www.w3.org/2000/svg" width="98.253" height="46.14" viewBox="0 0 98.253 46.14"><defs><style>.a{fill:#fff;}.b{font-size:21px;letter-spacing:-0.072em;}.b,.c{font-family:EarthOrbiterBold, Earth Orbiter;}.c{font-size:33px;letter-spacing:-0.133em;}.d{font-size:36px;}</style></defs><g transform="translate(-272.001 -26.001)"><g transform="translate(272.001 26.001)"><g transform="translate(0 5.175)"><path class="a" d="M201.046,140.286a1.5,1.5,0,0,0-.9,1.3v22.451a1.5,1.5,0,0,0,.9,1.3l15.36,5.867a.616.616,0,0,0,.9-.617V135.036a.617.617,0,0,0-.9-.617Zm12.418,24.364a.646.646,0,0,1-.909.65l-7.913-2.7a1.436,1.436,0,0,1-.908-1.268V144.293a1.438,1.438,0,0,1,.908-1.27l7.913-2.7a.647.647,0,0,1,.909.65Z" transform="translate(-200.151 -134.36)"/><g transform="translate(1.692 18.782)"><path class="a" d="M218.575,188.933c0,.208-.432.379-.959.379H205.993c-.527,0-.959-.171-.959-.379s.432-.379.959-.379h11.622C218.143,188.554,218.575,188.725,218.575,188.933Z" transform="translate(-205.034 -188.554)"/></g><g transform="translate(8.068 4.706)"><path class="a" d="M223.825,173.385c-.216,0-.394-.433-.394-.96V148.9c0-.527.177-.96.394-.96s.4.433.4.96v23.526C224.221,172.952,224.041,173.385,223.825,173.385Z" transform="translate(-223.431 -147.939)"/></g></g><text class="b" transform="translate(19.931 17)"><tspan x="0" y="0">COZY</tspan></text><text class="c" transform="translate(18.253 40.14)"><tspan x="0" y="0">sT</tspan><tspan class="d" y="0">A</tspan><tspan y="0">Y</tspan></text></g></g></svg>