<svg xmlns="http://www.w3.org/2000/svg" width="270.44" height="128.783" viewBox="0 0 270.44 128.783"><defs><style>.a,.b,.c{fill:#fff;}.b{font-size:59px;letter-spacing:-0.072em;}.b,.c{font-family:EarthOrbiterBold, Earth Orbiter;}.c{font-size:91px;letter-spacing:-0.133em;}.d{font-size:100px;}</style></defs><g transform="translate(-272.001 -26.001)"><g transform="translate(272.001 26.001)"><g transform="translate(0 14.3)"><path class="a" d="M202.625,150.736a4.153,4.153,0,0,0-2.474,3.6v62.038a4.153,4.153,0,0,0,2.474,3.6l42.445,16.212a1.7,1.7,0,0,0,2.474-1.7V136.228a1.7,1.7,0,0,0-2.474-1.7ZM236.94,218.06a1.786,1.786,0,0,1-2.513,1.8L212.561,212.4a3.967,3.967,0,0,1-2.509-3.5V161.808a3.974,3.974,0,0,1,2.509-3.508l21.866-7.456a1.787,1.787,0,0,1,2.513,1.8Z" transform="translate(-200.151 -134.36)"/><g transform="translate(4.676 51.901)"><path class="a" d="M242.451,189.6c0,.575-1.193,1.047-2.651,1.047H207.685c-1.458,0-2.651-.472-2.651-1.047s1.193-1.048,2.651-1.048H239.8C241.258,188.554,242.451,189.026,242.451,189.6Z" transform="translate(-205.034 -188.554)"/></g><g transform="translate(22.295 13.005)"><path class="a" d="M224.519,218.254c-.6,0-1.088-1.2-1.088-2.653V150.592c0-1.458.49-2.653,1.088-2.653s1.095,1.2,1.095,2.653V215.6C225.614,217.059,225.117,218.254,224.519,218.254Z" transform="translate(-223.431 -147.939)"/></g></g><text class="b" transform="translate(55.075 48)"><tspan x="0" y="0">COZY</tspan></text><text class="c" transform="translate(50.44 111.783)"><tspan x="0" y="0">sT</tspan><tspan class="d" y="0">A</tspan><tspan y="0">Y</tspan></text></g></g></svg>