<svg xmlns="http://www.w3.org/2000/svg" width="779.684" height="728.298" viewBox="0 0 779.684 728.298"><defs><style>.a{fill:#f2832e;}.b{fill:#1bf457;}.c{fill:#9f0e94;}.d{fill:#fe152d;}.e{fill:#9f32ab;}.f{fill:#8ba928;}.g{fill:#aa6df7;}.h{fill:#27e197;}.i{fill:#45f9ab;}.j{fill:#d65997;}.k{fill:#25d588;}.l{fill:#ff46f6;}.m{fill:#d560cf;}.n{fill:#cd26c6;}.o{fill:#dc9fab;}.p{fill:#60d0f4;}.q{fill:#fa779f;}.r{fill:#6ab914;}.s{fill:#f3a93d;}.t{fill:#e754c1;}.u{fill:#4bf9b5;}.v{fill:#a8fa57;}</style></defs><g transform="translate(171.252 -269.978)"><path class="a" d="M-118.918,320.96l-7.533-.461-4.652,5.946-1.889-7.307-7.091-2.585,6.366-4.057.267-7.542,5.825,4.8,7.256-2.076-2.766,7.024Z" transform="translate(309.266 357.597)"/><path class="b" d="M-116.46,311.046l4.375-.843,1.782-4.083,2.156,3.9,4.434.436-3.041,3.253.956,4.35-4.035-1.886-3.842,2.255.548-4.42Z" transform="translate(528.577 357.179)"/><path class="b" d="M-101.936,334.941l7.41-1.431,3.022-6.916,3.65,6.607,7.512.738-5.154,5.51,1.62,7.374-6.836-3.2-6.51,3.819.93-7.488Z" transform="translate(688.773 629.496)"/><path class="c" d="M-130.642,315.329l5.4,5.266,7.405-1.466-3.34,6.77,3.684,6.588-7.469-1.084-5.129,5.539-1.277-7.437-6.852-3.167,6.681-3.514Z" transform="translate(327.298 463.886)"/><path class="d" d="M-129.366,313.056-130.6,320.5l5.431,5.24-7.464,1.122-3.307,6.785-3.374-6.75-7.474-1.049,5.378-5.294-1.313-7.434,6.7,3.479Z" transform="translate(243.072 438.944)"/><path class="e" d="M-136.593,315.4l-6.82,3.234-1.2,7.45-5.183-5.488-7.458,1.16,3.617-6.623-3.405-6.738,7.418,1.4,5.351-5.323.968,7.485Z" transform="translate(138.614 352.791)"/><path class="f" d="M-108.4,300.5l-7.532-.464-4.651,5.946-1.89-7.307-7.091-2.585,6.366-4.057.269-7.542,5.824,4.8,7.256-2.076-2.766,7.024Z" transform="translate(413.602 148.37)"/><path class="g" d="M-111.608,298.322l7.41-1.431,3.022-6.916,3.65,6.607,7.512.734-5.154,5.514,1.62,7.374-6.835-3.2-6.51,3.819.928-7.488Z" transform="translate(666.952 203.956)"/><path class="g" d="M-128.976,312.932l7.41-1.431,3.023-6.916,3.652,6.6,7.51.738-5.153,5.514,1.62,7.37-6.836-3.2-6.51,3.819.929-7.491Z" transform="translate(420.084 352.971)"/><path class="h" d="M-112.98,295.914l3.482,3.393,4.77-.944-2.151,4.359,2.374,4.245-4.812-.7-3.3,3.568-.822-4.789L-117.858,303l4.3-2.264Z" transform="translate(516.111 257.81)"/><path class="i" d="M-130.952,281l-1.1,6.623,4.832,4.662-6.639,1-2.941,6.032-3-6-6.65-.935,4.785-4.709-1.169-6.611,5.959,3.094Z" transform="translate(244.432 81.712)"/><path class="j" d="M-131.84,280.91l-6.819,3.234-1.2,7.45-5.183-5.488-7.458,1.157,3.617-6.623-3.407-6.735,7.418,1.393,5.353-5.32.967,7.485Z" transform="translate(185.712 0)"/><path class="k" d="M-147.208,291.911l-7.534-.461-4.65,5.946-1.889-7.31-7.091-2.585,6.366-4.054.267-7.546,5.825,4.8,7.256-2.073-2.766,7.021Z" transform="translate(6.496 13.362)"/><path class="l" d="M-152.537,284.964l5.072-.979,2.069-4.735,2.5,4.521,5.142.5-3.528,3.774,1.11,5.046-4.681-2.188-4.456,2.614.638-5.129Z" transform="translate(181.756 20.919)"/><path class="m" d="M-157.032,301.524l7.41-1.431,3.022-6.916,3.65,6.6,7.512.738-5.154,5.514,1.62,7.37-6.836-3.2-6.509,3.819.929-7.491Z" transform="translate(141.302 236.615)"/><path class="n" d="M-136.833,284.963l7.41-1.431,3.022-6.916,3.65,6.607,7.512.738-5.153,5.51,1.619,7.374-6.836-3.2-6.51,3.819.93-7.491Z" transform="translate(342.016 14.977)"/><path class="o" d="M-157.468,285.769l3.464,3.374,4.742-.941-2.138,4.337,2.358,4.22-4.784-.693-3.285,3.549-.819-4.766-4.389-2.026,4.278-2.251Z" transform="translate(20.153 156.926)"/><path class="p" d="M-129.318,294.786l-1.239,7.444,5.431,5.244-7.464,1.122-3.306,6.782-3.374-6.75-7.476-1.049,5.379-5.294-1.313-7.431,6.7,3.479Z" transform="translate(243.547 252.774)"/><path class="q" d="M-150.589,317.23l-6.82,3.234-1.2,7.45-5.185-5.485-7.456,1.161,3.615-6.627-3.405-6.735,7.419,1.393,5.353-5.323.967,7.485Z" transform="translate(0 371.521)"/><path class="r" d="M-118.04,321.208l-5-.305-3.084,3.943L-127.379,320l-4.706-1.717,4.224-2.69.178-5,3.865,3.183,4.814-1.377-1.834,4.661Z" transform="translate(379.458 404.171)"/><path class="r" d="M-124.258,300.531l-4.517-.28-2.789,3.568-1.133-4.385-4.251-1.548,3.816-2.433.162-4.522,3.491,2.878,4.352-1.243-1.658,4.21Z" transform="translate(330.866 207.504)"/><path class="s" d="M-108.292,316.133l7.41-1.431,3.023-6.916,3.652,6.607,7.512.738-5.154,5.511,1.62,7.374-6.836-3.2-6.51,3.819.929-7.488Z" transform="translate(674.433 385.621)"/><path class="t" d="M-114.676,321.488l5.405,5.269,7.4-1.469-3.339,6.773,3.682,6.585-7.469-1.081-5.127,5.536-1.277-7.437-6.852-3.164,6.679-3.514Z" transform="translate(485.488 526.888)"/><path class="u" d="M-111.553,333.226l-1.239,7.444,5.431,5.243-7.464,1.123-3.307,6.782-3.374-6.751-7.474-1.046,5.378-5.3-1.313-7.431,6.7,3.479Z" transform="translate(420.084 644.458)"/><path class="v" d="M-117.686,336.665-124.5,339.9l-1.2,7.453-5.184-5.488-7.457,1.157,3.616-6.623-3.405-6.735,7.418,1.393,5.353-5.323.967,7.485Z" transform="translate(325.907 627.553)"/></g></svg>