<svg xmlns="http://www.w3.org/2000/svg" width="65.96" height="116.4" viewBox="0 0 65.96 116.4"><defs><style>.a,.b{fill:#292f33;}.a{stroke:#292f33;}</style></defs><g transform="translate(-688.467 -6949.724)"><g transform="translate(703.647 6980.415)"><path class="a" d="M17.821,21.641a9.821,9.821,0,1,1,9.821-9.821A9.821,9.821,0,0,1,17.821,21.641Zm0-18.414a8.593,8.593,0,1,0,8.593,8.593,8.593,8.593,0,0,0-8.593-8.593Z" transform="translate(-8 -2)"/><path class="a" d="M21.683,16.366a3.683,3.683,0,1,1,3.683-3.683A3.683,3.683,0,0,1,21.683,16.366Zm0-6.138a2.455,2.455,0,1,0,2.455,2.455A2.455,2.455,0,0,0,21.683,10.228Z" transform="translate(-11.862 -4.703)"/><path class="a" d="M22.069,56.729a.614.614,0,0,1-.434-.18L19.18,54.094A.614.614,0,0,1,19,53.66v-13.5h1.228V53.406l1.841,1.841,1.841-1.841V51.819H23.3a.614.614,0,0,1-.614-.614V48.75a.614.614,0,0,1,.614-.614h.614V46.909H23.3a.614.614,0,0,1-.614-.614V43.84a.614.614,0,0,1,.614-.614h.614V32.46h1.228V43.84a.614.614,0,0,1-.614.614H23.91v1.228h.614a.614.614,0,0,1,.614.614V48.75a.614.614,0,0,1-.614.614H23.91v1.228h.614a.614.614,0,0,1,.614.614V53.66a.614.614,0,0,1-.18.434L22.5,56.549A.614.614,0,0,1,22.069,56.729Z" transform="translate(-12.248 -13.764)"/><path class="a" d="M19,32.46h1.228V37.7H19Z" transform="translate(-12.248 -13.764)"/><path class="a" d="M53.028,52.689H34.614A.614.614,0,0,1,34,52.076V30.593a.614.614,0,0,1,.212-.464l9.207-7.979a.614.614,0,0,1,.8,0l9.207,7.979a.614.614,0,0,1,.212.464v4.3H52.414V30.873l-8.593-7.448-8.593,7.448V51.462H52.414V37.345h1.228V52.076A.614.614,0,0,1,53.028,52.689Z" transform="translate(-18.041 -9.724)"/><path class="a" d="M48.069,38.138a3.069,3.069,0,1,1,3.069-3.069A3.069,3.069,0,0,1,48.069,38.138Zm0-4.91a1.841,1.841,0,1,0,1.841,1.841,1.841,1.841,0,0,0-1.841-1.841Z" transform="translate(-22.29 -13.586)"/><path class="a" d="M41.343,35.8c-2.449,0-6.2-2.168-9.23-4.849l.813-.921c4.565,4.034,8.552,5.176,9.4,4.218.325-.368.286-1.151-.106-2.148l1.143-.447c.737,1.878.342,2.892-.117,3.411a2.424,2.424,0,0,1-1.9.736Z" transform="translate(-17.313 -12.825)"/><path class="a" d="M36.168,21.916A26.829,26.829,0,0,0,33.24,18.9c-4.565-4.038-8.552-5.179-9.4-4.219-.352.4-.279,1.265.2,2.378l-1.128.486c-.878-2.04-.48-3.125.008-3.677,1.85-2.087,7.117.559,11.134,4.112a28.054,28.054,0,0,1,3.063,3.151Z" transform="translate(-13.558 -6.3)"/></g><g transform="translate(688.467 6949.724)"><g transform="translate(21.34 5.82)"><g transform="translate(0)"><path class="b" d="M226.141,25.6h-19.4a1.94,1.94,0,1,0,0,3.88h19.4a1.94,1.94,0,1,0,0-3.88Z" transform="translate(-204.801 -25.6)"/></g></g><g transform="translate(52.38 5.82)"><g transform="translate(0)"><path class="b" d="M345.214,25.6h-1.94a1.94,1.94,0,0,0,0,3.88h1.94a1.94,1.94,0,1,0,0-3.88Z" transform="translate(-341.334 -25.6)"/></g></g><g transform="translate(25.22 98.94)"><g transform="translate(0)"><path class="b" d="M232.036,435.2h-4.817a5.359,5.359,0,0,0-5.352,5.352v.937a5.357,5.357,0,0,0,5.351,5.351h4.817a5.358,5.358,0,0,0,5.352-5.351v-.937A5.359,5.359,0,0,0,232.036,435.2Zm1.471,6.289a1.472,1.472,0,0,1-1.47,1.47h-4.817a1.473,1.473,0,0,1-1.472-1.47v-.937a1.473,1.473,0,0,1,1.472-1.472h4.815a1.473,1.473,0,0,1,1.473,1.472Z" transform="translate(-221.867 -435.2)"/></g></g><g transform="translate(0)"><path class="b" d="M169.882,0H117.946a7.022,7.022,0,0,0-7.013,7.013V109.387a7.022,7.022,0,0,0,7.013,7.013H169.88a7.021,7.021,0,0,0,7.013-7.011V7.013A7.021,7.021,0,0,0,169.882,0Zm3.131,109.387a3.136,3.136,0,0,1-3.131,3.133H117.946a3.136,3.136,0,0,1-3.133-3.131V7.013a3.137,3.137,0,0,1,3.133-3.133H169.88a3.137,3.137,0,0,1,3.133,3.133V109.387Z" transform="translate(-110.933)"/></g><g transform="translate(0 11.64)"><g transform="translate(0)"><path class="b" d="M174.954,51.2h-62.08a1.941,1.941,0,0,0-1.94,1.94v81.48a1.941,1.941,0,0,0,1.94,1.94h62.08a1.941,1.941,0,0,0,1.94-1.94V53.14A1.941,1.941,0,0,0,174.954,51.2Zm-1.94,81.48h-58.2V55.08h58.2Z" transform="translate(-110.934 -51.2)"/></g></g></g></g></svg>