<svg xmlns="http://www.w3.org/2000/svg" xmlns:xlink="http://www.w3.org/1999/xlink" width="969.169" height="420.272" viewBox="0 0 969.169 420.272"><defs><style>.a{fill:url(#a);}.b{fill:url(#b);}.c{fill:url(#c);}.d{fill:url(#d);}.e{fill:#1b5e20;opacity:0.5;}.f{fill:url(#e);}.g{fill:url(#f);}.h{fill:url(#g);}.i{fill:url(#h);}.j{fill:url(#i);}.k{fill:url(#j);}.l{fill:url(#k);}</style><linearGradient id="a" x1="0.381" y1="-0.071" x2="0.545" y2="1.04" gradientUnits="objectBoundingBox"><stop offset="0" stop-color="#c0ca33"/><stop offset="1" stop-color="#43a047"/></linearGradient><linearGradient id="b" x1="-0.233" y1="2.359" x2="0.458" y2="0.75" xlink:href="#a"/><linearGradient id="c" x1="0.274" y1="-0.051" x2="0.794" y2="1.593" xlink:href="#a"/><linearGradient id="d" x1="1.214" y1="18.748" x2="1.886" y2="23.074" xlink:href="#a"/><linearGradient id="e" x1="86.792" y1="-6.484" x2="86.248" y2="-6.038" xlink:href="#a"/><linearGradient id="f" x1="13.334" y1="11.162" x2="13.079" y2="11.785" xlink:href="#a"/><linearGradient id="g" x1="31.24" y1="0.64" x2="32.17" y2="1.608" xlink:href="#a"/><linearGradient id="h" x1="4.544" y1="53.299" x2="5.217" y2="57.625" xlink:href="#a"/><linearGradient id="i" x1="143.37" y1="-8.483" x2="142.826" y2="-8.036" xlink:href="#a"/><linearGradient id="j" x1="24.076" y1="19.807" x2="23.82" y2="20.429" xlink:href="#a"/><linearGradient id="k" x1="59.461" y1="3.145" x2="60.391" y2="4.113" xlink:href="#a"/></defs><g transform="translate(152.627 358.271)"><path class="a" d="M388.7,676.851v29.832h-74V676.851a2.454,2.454,0,0,1,.011-.279A31.691,31.691,0,0,1,332.79,648.2l6.359,5.578-2.036-7.257a31.514,31.514,0,0,1,9.329-1.4h10.524a31.453,31.453,0,0,1,9.8,1.552l.583,1.831.661-1.4a31.784,31.784,0,0,1,20.7,29.743Z" transform="translate(-289.186 -645.124)"/><path class="b" d="M344.253,669.6v11.259a3.564,3.564,0,0,1-3.567,3.567H311.714a4.235,4.235,0,0,1-4.228-4.228V669.6a15.758,15.758,0,0,1,15.246-15.752l1.379,2.966,1.029-2.976h3.348a15.562,15.562,0,0,1,4.528.661,15.808,15.808,0,0,1,10.414,10.053l-7.346,5.462,8.159-.746C344.253,669.37,344.253,669.49,344.253,669.6Z" transform="translate(-307.486 -623.047)"/><path class="c" d="M385.71,672.539v16.947a4.2,4.2,0,0,1-4.461,3.878H331.267a4.993,4.993,0,0,1-4.991-4.992V672.539a20.132,20.132,0,0,1,4.9-13.058l9.926,5.451-4.659-10.1a27.9,27.9,0,0,1,15.321-4.454h8.463a30.588,30.588,0,0,1,4.139.293c.053,2.414.109,4.822.173,7.236q2.163-3.118,4.323-6.218a25.508,25.508,0,0,1,11.528,7.3l-2.34,4.9,5.235-.8A19.68,19.68,0,0,1,385.71,672.539Z" transform="translate(-259.854 -631.805)"/></g><g transform="translate(0 198.206)"><g transform="translate(29.444 173.249)"><path class="d" d="M339.786,656.207c-9.509-3.828-24.084-8.866-41.964-6.922-4.793.52-23.165,2.517-25.031,10.725-1.361,5.97,6.646,12.305,15.6,19.389,7,5.539,20.068,15.607,39.182,17.562,6.186.633,8.442-.05,18.067-.682,36.559-2.4,51.8,4.305,53.728-.219C402.316,689.153,369.133,668.021,339.786,656.207Z" transform="translate(-272.639 -648.854)"/><path class="e" d="M351.1,671.554c-.537-.173-1.078-.332-1.616-.5a11.424,11.424,0,0,0-1.227-2.743,10.621,10.621,0,0,0-2.216-2.662,10.438,10.438,0,0,0,1.347,3.192,12.155,12.155,0,0,0,1.552,2.047,121.058,121.058,0,0,0-13.221-3.157,4.961,4.961,0,0,0-.76-1.573,4.478,4.478,0,0,0-1.683-1.47,4.479,4.479,0,0,0,.855,2.064,6.181,6.181,0,0,0,.746.838q-4.263-.742-8.558-1.227c-.212-.021-.428-.046-.643-.071a24.266,24.266,0,0,0-2.3-3.885A22.641,22.641,0,0,0,320,658.577,22.627,22.627,0,0,0,322.55,663a25.055,25.055,0,0,0,2.764,3.249c-3.853-.424-7.682-.884-11.475-1.587q-3.123-.578-6.211-1.311a27.008,27.008,0,0,0-1.789-4.786,26,26,0,0,0-2.8-4.719A26.1,26.1,0,0,0,304.921,659a27.8,27.8,0,0,0,2.51,4.3q-2.938-.7-5.85-1.51-6.066-1.7-11.955-3.977c-3.934-1.492-7.788-3.189-11.584-5.02a121.714,121.714,0,0,0,23.207,9.711,20.158,20.158,0,0,0-3.538,1.173,17.959,17.959,0,0,0-3.952,2.27,18.016,18.016,0,0,0,4.359-1.336,19.5,19.5,0,0,0,3.553-1.98,120.142,120.142,0,0,0,12,2.941c1.7.325,3.408.6,5.119.848a44.147,44.147,0,0,0-5.211,1.912,39.334,39.334,0,0,0-5.96,3.16,39.146,39.146,0,0,0,6.37-2.227,42.529,42.529,0,0,0,5.327-2.768c2.3.329,4.6.608,6.893.873q2.492.27,4.967.619A10.33,10.33,0,0,0,329.408,669a8.376,8.376,0,0,0-2.185,2.2A8.4,8.4,0,0,0,330,669.829a9.273,9.273,0,0,0,1.852-1.743c2.276.325,4.546.7,6.8,1.156s4.514.979,6.755,1.552a15.306,15.306,0,0,0-2.556.725,12.625,12.625,0,0,0-3.365,1.82,12.766,12.766,0,0,0,3.729-.87,14.03,14.03,0,0,0,2.9-1.488c1.591.417,3.174.852,4.751,1.319,4.03,1.188,8,2.591,11.9,4.154,3.917,1.531,7.756,3.27,11.545,5.108A130.588,130.588,0,0,0,351.1,671.554Z" transform="translate(-258.945 -638.859)"/></g><g transform="translate(147.82 93.055)"><path class="f" d="M347.669,692.8c3.143-9.753,7.137-24.649,3.934-42.349-.859-4.744-4.15-22.928-12.468-24.207-6.055-.933-11.807,7.5-18.241,16.936-5.03,7.381-14.143,21.121-14.741,40.327-.194,6.215.647,8.417,1.958,17.972,4.981,36.3-.629,51.978,4.019,53.583C319.234,757.5,337.958,722.907,347.669,692.8Z" transform="translate(-306.126 -626.168)"/><path class="e" d="M317.211,705.793c.134-.548.254-1.1.378-1.647a11.267,11.267,0,0,0,2.651-1.418,10.435,10.435,0,0,0,2.5-2.4,10.523,10.523,0,0,0-3.09,1.57,12.3,12.3,0,0,0-1.93,1.693,121.1,121.1,0,0,0,2.213-13.412,5.01,5.01,0,0,0,1.517-.866,4.5,4.5,0,0,0,1.347-1.785,4.462,4.462,0,0,0-2,1,6.224,6.224,0,0,0-.781.8q.44-4.3.615-8.622c.011-.216.021-.431.028-.647a24.355,24.355,0,0,0,3.712-2.573,22.242,22.242,0,0,0,3.581-3.641,22.675,22.675,0,0,0-4.231,2.86,25.023,25.023,0,0,0-3.047,2.987c.152-3.871.339-7.724.774-11.56.233-2.1.527-4.2.866-6.285a27.591,27.591,0,0,0,4.652-2.121,26.331,26.331,0,0,0,4.507-3.136,25.981,25.981,0,0,0-5.009,2.248,27.806,27.806,0,0,0-4.115,2.807q.488-2.98,1.1-5.942c.838-4.115,1.888-8.191,3.121-12.21,1.205-4.026,2.627-7.993,4.182-11.906a121.8,121.8,0,0,0-8.042,23.833,20.448,20.448,0,0,0-1.421-3.443,17.92,17.92,0,0,0-2.545-3.782,18,18,0,0,0,1.644,4.253,19.274,19.274,0,0,0,2.227,3.4,119.222,119.222,0,0,0-2.086,12.178c-.205,1.718-.357,3.443-.484,5.168a44.368,44.368,0,0,0-2.277-5.062,39.047,39.047,0,0,0-3.574-5.723,39,39,0,0,0,2.672,6.193A42.013,42.013,0,0,0,320,673.724c-.163,2.315-.279,4.631-.382,6.939q-.1,2.508-.265,5a10.441,10.441,0,0,0-1.131-1.69,8.5,8.5,0,0,0-2.344-2.022,8.358,8.358,0,0,0,1.559,2.676,9.466,9.466,0,0,0,1.874,1.721c-.166,2.294-.378,4.585-.672,6.869s-.658,4.574-1.071,6.851a15.416,15.416,0,0,0-.9-2.5,12.754,12.754,0,0,0-2.057-3.231A12.782,12.782,0,0,0,315.74,698a14.051,14.051,0,0,0,1.69,2.786c-.3,1.612-.626,3.224-.979,4.832-.9,4.1-2.019,8.155-3.3,12.16-1.251,4.016-2.711,7.968-4.281,11.878A130.506,130.506,0,0,0,317.211,705.793Z" transform="translate(-299.176 -612.423)"/></g><g transform="translate(0 74.657)"><path class="g" d="M364.852,668.108c-10.8-12.266-27.933-29.9-54.789-39.956-7.2-2.694-34.791-13.026-43.335-2.683-6.218,7.53.64,22.3,8.311,38.807,6,12.91,17.385,36.612,43.2,53.106,8.35,5.338,12.051,5.985,26.212,11.987,53.781,22.8,70.675,43.286,76.663,38.227C430.26,759.869,398.166,705.982,364.852,668.108Z" transform="translate(-264.31 -620.964)"/><path class="e" d="M362.638,706.31c-.64-.629-1.294-1.244-1.944-1.863a18.206,18.206,0,0,0,.223-4.786,16.677,16.677,0,0,0-1.248-5.38,16.771,16.771,0,0,0-.371,5.511,19.587,19.587,0,0,0,.742,4.027,192.962,192.962,0,0,0-16.561-13.981,7.849,7.849,0,0,0,.046-2.782,7.1,7.1,0,0,0-1.34-3.3,7.1,7.1,0,0,0-.262,3.556,9.711,9.711,0,0,0,.46,1.725q-5.536-4.115-11.3-7.88c-.29-.187-.576-.378-.866-.565a38.91,38.91,0,0,0-.491-7.187,35.993,35.993,0,0,0-2.064-7.876,36.005,36.005,0,0,0,.46,8.13,40.191,40.191,0,0,0,1.6,6.611c-5.175-3.369-10.3-6.77-15.2-10.492q-4.03-3.059-7.9-6.32a43.712,43.712,0,0,0,.891-8.1,41.53,41.53,0,0,0-.612-8.731,41.309,41.309,0,0,0-1.011,8.692,44.26,44.26,0,0,0,.484,7.925q-3.68-3.1-7.243-6.349-7.429-6.766-14.175-14.239c-4.532-4.942-8.8-10.124-12.892-15.451a194.039,194.039,0,0,0,26.078,30.471,32.144,32.144,0,0,0-5.879-.866,28.714,28.714,0,0,0-7.257.4,28.576,28.576,0,0,0,7.165,1.223,30.936,30.936,0,0,0,6.48-.272,189.878,189.878,0,0,0,14.978,12.793c2.185,1.686,4.422,3.3,6.678,4.882a70.986,70.986,0,0,0-8.791-1.015,62.189,62.189,0,0,0-10.754.226,62.568,62.568,0,0,0,10.665,1.393,67.113,67.113,0,0,0,9.573-.117c3.036,2.114,6.112,4.164,9.191,6.19q3.351,2.169,6.628,4.44a16.737,16.737,0,0,0-3.238.173,13.423,13.423,0,0,0-4.684,1.559,13.348,13.348,0,0,0,4.938.046,15.061,15.061,0,0,0,3.885-1.156c3.012,2.1,5.974,4.26,8.862,6.526s5.73,4.631,8.505,7.056a24.447,24.447,0,0,0-4.154-.8,20.263,20.263,0,0,0-6.1.177,20.147,20.147,0,0,0,5.932,1.435,22.435,22.435,0,0,0,5.2-.039c1.962,1.732,3.91,3.489,5.819,5.285,4.882,4.585,9.527,9.424,13.963,14.447,4.479,4.992,8.7,10.216,12.772,15.554A208.269,208.269,0,0,0,362.638,706.31Z" transform="translate(-244.661 -605.144)"/></g><g transform="translate(70.747)"><path class="h" d="M367.734,693.815c-3.517-17.4-10.107-43.275-29.945-67.285-5.32-6.437-25.7-31.108-39.351-25.993-9.93,3.719-11.468,21.334-13.186,41.038-1.343,15.4-3.461,43.883,11.913,73.393,4.974,9.544,8.109,12.16,18.191,25.48,38.284,50.593,43.1,79.028,51.48,77.5C379.629,815.63,378.593,747.514,367.734,693.815Z" transform="translate(-284.323 -599.844)"/><path class="e" d="M337.636,732.072c-.262-.94-.548-1.874-.82-2.81a19.649,19.649,0,0,0,2.8-4.383,18.072,18.072,0,0,0,1.739-5.741,18.123,18.123,0,0,0-3.333,4.988,21.228,21.228,0,0,0-1.481,4.192,209.078,209.078,0,0,0-8.024-22.132,8.569,8.569,0,0,0,1.552-2.595,7.725,7.725,0,0,0,.527-3.835,7.747,7.747,0,0,0-2.174,3.206,10.528,10.528,0,0,0-.5,1.873q-2.985-6.872-6.377-13.542c-.173-.332-.339-.665-.509-1a42.1,42.1,0,0,0,3.425-7.034,38.967,38.967,0,0,0,2.322-8.534,39.318,39.318,0,0,0-3.97,7.9,43.856,43.856,0,0,0-2.068,7.095c-3.051-5.978-6.034-11.952-8.629-18.11q-2.142-5.064-4.016-10.23a47.431,47.431,0,0,0,5.221-7.144,44.89,44.89,0,0,0,4.154-8.551,44.97,44.97,0,0,0-5.659,7.635,47.912,47.912,0,0,0-3.836,7.724q-1.787-4.915-3.383-9.9-3.33-10.387-5.635-21.083c-1.591-7.105-2.807-14.3-3.772-21.528a210.968,210.968,0,0,0,8.053,42.809,35.056,35.056,0,0,0-5.066-4,31.226,31.226,0,0,0-7.045-3.556,31.118,31.118,0,0,0,6.08,5.034,33.807,33.807,0,0,0,6.25,3.252,206.22,206.22,0,0,0,7.172,20.153c1.145,2.771,2.379,5.5,3.648,8.215a76.927,76.927,0,0,0-7.728-5.72,68.073,68.073,0,0,0-10.248-5.61,67.8,67.8,0,0,0,9.286,7.091,73.774,73.774,0,0,0,9.074,5.073c1.715,3.634,3.5,7.229,5.3,10.8q1.983,3.86,3.839,7.77a17.957,17.957,0,0,0-3.143-1.591,14.608,14.608,0,0,0-5.253-1.068,14.55,14.55,0,0,0,4.624,2.715,16.041,16.041,0,0,0,4.284,1.015c1.7,3.609,3.316,7.247,4.811,10.944s2.888,7.466,4.186,11.248a27.4,27.4,0,0,0-3.475-3A22.163,22.163,0,0,0,324,716.981a22.1,22.1,0,0,0,4.811,4.567,24.455,24.455,0,0,0,4.91,2.771c.912,2.7,1.792,5.4,2.619,8.127,2.114,6.96,3.864,14.03,5.32,21.167,1.513,7.123,2.655,14.327,3.606,21.56A225.985,225.985,0,0,0,337.636,732.072Z" transform="translate(-267.06 -577.795)"/></g></g><g transform="translate(774.69)"><g transform="translate(38.117 173.249)"><path class="i" d="M554.014,600.137c9.509-3.825,24.084-8.866,41.964-6.922,4.794.52,23.165,2.517,25.032,10.725,1.361,5.971-6.646,12.309-15.6,19.393-7,5.539-20.068,15.6-39.182,17.558-6.186.633-8.442-.049-18.067-.682-36.559-2.4-51.8,4.306-53.732-.219C491.484,633.083,524.667,611.954,554.014,600.137Z" transform="translate(-494.243 -592.784)"/><path class="e" d="M520.721,615.481c.537-.173,1.078-.332,1.615-.5a11.3,11.3,0,0,1,1.227-2.743,10.416,10.416,0,0,1,2.216-2.662,10.46,10.46,0,0,1-1.347,3.189,12.341,12.341,0,0,1-1.552,2.047A121,121,0,0,1,536.1,611.66a5,5,0,0,1,.76-1.573,4.478,4.478,0,0,1,1.683-1.471,4.48,4.48,0,0,1-.855,2.065,6.2,6.2,0,0,1-.746.838q4.263-.742,8.558-1.223l.643-.074a24.272,24.272,0,0,1,2.3-3.885,22.63,22.63,0,0,1,3.38-3.832,22.66,22.66,0,0,1-2.552,4.426,25.131,25.131,0,0,1-2.764,3.249c3.85-.424,7.681-.884,11.474-1.587,2.082-.382,4.15-.824,6.211-1.312a27.254,27.254,0,0,1,1.785-4.786,26.135,26.135,0,0,1,2.806-4.719,26.021,26.021,0,0,1-1.884,5.154,27.811,27.811,0,0,1-2.51,4.3q2.938-.695,5.851-1.509,6.066-1.7,11.955-3.977c3.934-1.488,7.787-3.188,11.584-5.016a122.01,122.01,0,0,1-23.207,9.707,20.452,20.452,0,0,1,3.538,1.174,18.166,18.166,0,0,1,3.952,2.269,17.833,17.833,0,0,1-4.359-1.336,19.3,19.3,0,0,1-3.553-1.98,118.278,118.278,0,0,1-12,2.941c-1.7.329-3.408.6-5.122.849a44.635,44.635,0,0,1,5.214,1.912,39.283,39.283,0,0,1,5.96,3.16,39.176,39.176,0,0,1-6.37-2.227,42.356,42.356,0,0,1-5.327-2.768c-2.3.329-4.6.608-6.893.877-1.662.177-3.316.385-4.967.615a10.33,10.33,0,0,1,1.764,1.011,8.43,8.43,0,0,1,2.185,2.2,8.4,8.4,0,0,1-2.778-1.368,9.3,9.3,0,0,1-1.852-1.746c-2.276.329-4.546.7-6.8,1.156s-4.518.979-6.755,1.552a15.174,15.174,0,0,1,2.552.725,12.678,12.678,0,0,1,3.369,1.821,12.741,12.741,0,0,1-3.729-.87,14.04,14.04,0,0,1-2.9-1.488c-1.591.417-3.178.852-4.755,1.319-4.026,1.191-7.993,2.591-11.9,4.153-3.917,1.534-7.756,3.27-11.545,5.108A130.61,130.61,0,0,1,520.721,615.481Z" transform="translate(-485.959 -582.786)"/></g><g transform="translate(0 93.055)"><path class="j" d="M488.576,636.726c-3.146-9.753-7.141-24.649-3.934-42.346.859-4.744,4.15-22.931,12.468-24.211,6.055-.933,11.807,7.5,18.24,16.94,5.03,7.378,14.143,21.122,14.741,40.327.194,6.211-.647,8.413-1.958,17.972-4.981,36.3.629,51.979-4.019,53.58C517.011,701.433,498.283,666.836,488.576,636.726Z" transform="translate(-483.46 -570.098)"/><path class="e" d="M501.783,649.723c-.134-.548-.255-1.1-.378-1.647a11.267,11.267,0,0,1-2.651-1.414,10.5,10.5,0,0,1-2.5-2.4,10.444,10.444,0,0,1,3.09,1.57,11.969,11.969,0,0,1,1.93,1.693,120.2,120.2,0,0,1-2.213-13.415,4.926,4.926,0,0,1-1.516-.866,4.463,4.463,0,0,1-1.347-1.785,4.469,4.469,0,0,1,2,1,6.014,6.014,0,0,1,.785.8q-.44-4.3-.619-8.622c-.007-.215-.018-.431-.025-.647a24.06,24.06,0,0,1-3.712-2.573,22.516,22.516,0,0,1-3.585-3.638,22.4,22.4,0,0,1,4.235,2.856,25.581,25.581,0,0,1,3.047,2.987c-.155-3.871-.339-7.724-.774-11.56-.233-2.1-.527-4.2-.866-6.285a27.55,27.55,0,0,1-4.652-2.121,26.154,26.154,0,0,1-4.507-3.132,25.96,25.96,0,0,1,5.009,2.245,27.839,27.839,0,0,1,4.115,2.807q-.493-2.98-1.1-5.942-1.262-6.172-3.121-12.206c-1.205-4.03-2.627-8-4.182-11.909a121.87,121.87,0,0,1,8.042,23.833,20.436,20.436,0,0,1,1.421-3.443,18.047,18.047,0,0,1,2.542-3.782,17.974,17.974,0,0,1-1.64,4.253,19.434,19.434,0,0,1-2.227,3.4,119.148,119.148,0,0,1,2.086,12.175c.2,1.722.357,3.443.484,5.168a44.324,44.324,0,0,1,2.277-5.062,39.049,39.049,0,0,1,3.574-5.723,39.38,39.38,0,0,1-2.672,6.2,42.154,42.154,0,0,1-3.139,5.119c.166,2.312.283,4.631.385,6.939q.1,2.5.265,4.995a10.408,10.408,0,0,1,1.131-1.686,8.4,8.4,0,0,1,2.344-2.026,8.362,8.362,0,0,1-1.562,2.676,9.358,9.358,0,0,1-1.87,1.722c.166,2.3.378,4.588.672,6.868s.654,4.578,1.071,6.851a15.534,15.534,0,0,1,.9-2.5,12.741,12.741,0,0,1,2.054-3.231,12.633,12.633,0,0,1-1.131,3.659,14.113,14.113,0,0,1-1.69,2.785c.3,1.616.626,3.228.979,4.832.9,4.1,2.018,8.159,3.3,12.16,1.251,4.016,2.711,7.968,4.277,11.877A130.658,130.658,0,0,1,501.783,649.723Z" transform="translate(-473.159 -556.353)"/></g><g transform="translate(36.093 74.658)"><path class="k" d="M551.513,612.041c10.792-12.27,27.933-29.9,54.789-39.956,7.2-2.7,34.791-13.03,43.335-2.683,6.218,7.53-.64,22.291-8.311,38.8-6,12.913-17.385,36.612-43.2,53.109-8.35,5.334-12.051,5.981-26.212,11.984-53.781,22.808-70.675,43.289-76.663,38.227C486.105,703.8,518.2,649.911,551.513,612.041Z" transform="translate(-493.67 -564.894)"/><path class="e" d="M523.657,650.244c.64-.633,1.294-1.244,1.944-1.867a18.059,18.059,0,0,1-.223-4.786,16.67,16.67,0,0,1,1.248-5.38,16.685,16.685,0,0,1,.368,5.511,19.367,19.367,0,0,1-.739,4.03,191.648,191.648,0,0,1,16.561-13.981,7.952,7.952,0,0,1-.05-2.786,7.138,7.138,0,0,1,1.343-3.3,7.139,7.139,0,0,1,.262,3.556,9.643,9.643,0,0,1-.46,1.725q5.531-4.115,11.3-7.879c.29-.187.576-.378.863-.565a38.918,38.918,0,0,1,.495-7.187,36.048,36.048,0,0,1,2.065-7.876,36,36,0,0,1-.46,8.131,40.042,40.042,0,0,1-1.6,6.61c5.175-3.369,10.3-6.77,15.2-10.492q4.03-3.054,7.9-6.321a43.755,43.755,0,0,1-.891-8.1,41.574,41.574,0,0,1,.612-8.732,41.317,41.317,0,0,1,1.011,8.693,44.289,44.289,0,0,1-.484,7.926q3.68-3.1,7.243-6.349,7.423-6.761,14.175-14.239c4.532-4.938,8.8-10.121,12.892-15.452a194.045,194.045,0,0,1-26.078,30.472,32.162,32.162,0,0,1,5.875-.866,28.714,28.714,0,0,1,7.257.4,28.692,28.692,0,0,1-7.162,1.227,30.938,30.938,0,0,1-6.48-.276,190.591,190.591,0,0,1-14.978,12.8c-2.185,1.683-4.422,3.295-6.681,4.878a71.126,71.126,0,0,1,8.791-1.014,62.558,62.558,0,0,1,10.757.226,62.547,62.547,0,0,1-10.668,1.4,67.6,67.6,0,0,1-9.569-.12c-3.036,2.114-6.112,4.164-9.191,6.19q-3.351,2.174-6.628,4.44a16.764,16.764,0,0,1,3.238.173,13.44,13.44,0,0,1,4.684,1.559,13.353,13.353,0,0,1-4.938.046,15.076,15.076,0,0,1-3.885-1.156c-3.012,2.1-5.974,4.26-8.862,6.526s-5.73,4.631-8.505,7.056a24.39,24.39,0,0,1,4.154-.8,20.255,20.255,0,0,1,6.1.18,20.377,20.377,0,0,1-5.932,1.435,22.424,22.424,0,0,1-5.2-.042q-2.948,2.6-5.819,5.285c-4.882,4.585-9.527,9.424-13.963,14.448-4.479,4.995-8.7,10.22-12.775,15.558A208.135,208.135,0,0,1,523.657,650.244Z" transform="translate(-483.249 -549.075)"/></g><g transform="translate(31.9)"><path class="l" d="M500.9,637.748c3.517-17.4,10.107-43.279,29.945-67.288,5.32-6.437,25.7-31.108,39.348-25.993,9.933,3.722,11.471,21.334,13.189,41.038,1.343,15.405,3.461,43.883-11.913,73.393-4.974,9.545-8.109,12.16-18.191,25.48-38.287,50.6-43.1,79.028-51.48,77.5C489.01,759.56,490.045,691.444,500.9,637.748Z" transform="translate(-492.484 -543.774)"/><path class="e" d="M503.968,676c.262-.94.548-1.873.82-2.807a19.664,19.664,0,0,1-2.8-4.387,18.07,18.07,0,0,1-1.739-5.741,18.12,18.12,0,0,1,3.333,4.988,21.3,21.3,0,0,1,1.481,4.192,209.054,209.054,0,0,1,8.024-22.132,8.593,8.593,0,0,1-1.552-2.591,7.747,7.747,0,0,1-.527-3.839,7.745,7.745,0,0,1,2.174,3.206,10.507,10.507,0,0,1,.5,1.874q2.986-6.867,6.377-13.539c.17-.336.339-.668.509-1a42.056,42.056,0,0,1-3.425-7.031,38.886,38.886,0,0,1-2.323-8.534,38.988,38.988,0,0,1,3.966,7.9,43.5,43.5,0,0,1,2.071,7.095c3.047-5.974,6.034-11.952,8.629-18.11q2.137-5.064,4.016-10.23a47.458,47.458,0,0,1-5.221-7.144,44.8,44.8,0,0,1-4.154-8.551,45,45,0,0,1,5.659,7.639,48.173,48.173,0,0,1,3.835,7.72q1.787-4.915,3.383-9.9Q540.33,584.7,542.64,574c1.591-7.105,2.807-14.3,3.772-21.528a210.927,210.927,0,0,1-8.053,42.809,35.5,35.5,0,0,1,5.062-4,31.4,31.4,0,0,1,7.049-3.556,31.036,31.036,0,0,1-6.084,5.034,33.44,33.44,0,0,1-6.246,3.252,206.38,206.38,0,0,1-7.172,20.156c-1.145,2.768-2.379,5.5-3.648,8.212a76.833,76.833,0,0,1,7.728-5.716,67.764,67.764,0,0,1,10.248-5.614,67.761,67.761,0,0,1-9.286,7.091,73.255,73.255,0,0,1-9.074,5.073c-1.714,3.634-3.5,7.229-5.3,10.8q-1.983,3.86-3.839,7.77a18.32,18.32,0,0,1,3.139-1.591,14.646,14.646,0,0,1,5.257-1.068,14.547,14.547,0,0,1-4.624,2.715,16.208,16.208,0,0,1-4.284,1.018c-1.7,3.606-3.316,7.243-4.811,10.941s-2.888,7.466-4.189,11.252a26.883,26.883,0,0,1,3.478-3,22,22,0,0,1,5.843-3.139,22.019,22.019,0,0,1-4.811,4.567,24.056,24.056,0,0,1-4.914,2.771c-.909,2.7-1.789,5.4-2.616,8.127-2.114,6.96-3.864,14.034-5.32,21.167-1.517,7.123-2.655,14.327-3.606,21.564A225.977,225.977,0,0,1,503.968,676Z" transform="translate(-482.711 -521.725)"/></g></g></svg>