<svg xmlns="http://www.w3.org/2000/svg" width="126.504" height="117.989" viewBox="0 0 126.504 117.989"><defs><style>.a{fill:#707070;}</style></defs><path class="a" d="M447.651-273.564a68.709,68.709,0,0,1-15.967,1.789,66.97,66.97,0,0,1-15.963-2.035c0,2.533,0,4.859,0,7.184-.005,2.513-.78,3.3-3.272,3.312q-4.5.016-9.007,0c-2.405-.011-3.238-.857-3.239-3.244,0-4.17-.02-8.339.019-12.508a1.716,1.716,0,0,0-.936-1.694,44.41,44.41,0,0,1-16.934-18.117,1.648,1.648,0,0,0-1.2-.739c-1.957-.078-3.918-.018-5.878-.041-1.9-.022-2.859-.954-2.863-2.852q-.027-11.2,0-22.39c0-1.9.966-2.833,2.863-2.85,1.959-.017,3.921.042,5.877-.033a1.634,1.634,0,0,0,1.193-.738,42.658,42.658,0,0,1,13.309-15.661,1.338,1.338,0,0,0,.564-1.764,18.9,18.9,0,0,0-3.532-6.966,8.687,8.687,0,0,0-5.651-3.143c-.207-.025-.409-.087-.615-.11a2.4,2.4,0,0,1-2.277-1.98,2.255,2.255,0,0,1,1.368-2.791,28.264,28.264,0,0,1,6.578-1.742c8.207-.736,14.791,2.46,19.843,8.873a1.6,1.6,0,0,0,2.156.682,21.745,21.745,0,0,1,2.47-.686c-.639-12.064,4.079-21.044,15.381-25.6,8.992-3.622,17.6-1.977,24.76,4.609,8.012,7.368,9.7,16.521,6.305,26.806,14.268,8.669,23.415,20.4,22.213,38.4.5-.27.923-.46,1.306-.712,3.981-2.624,5.914-6.545,6.912-11.032.243-1.094.347-2.221.489-3.336a2.439,2.439,0,0,1,2.685-2.345,2.413,2.413,0,0,1,2.285,2.633c-.531,7.872-4.274,17.37-14.307,20.466a1.733,1.733,0,0,0-.972.951c-3.528,10.029-10.361,17.237-19.3,22.641a2.049,2.049,0,0,0-1.174,2.047c.063,3.96.032,7.922.023,11.883,0,2.155-.876,3.062-3.019,3.079q-4.753.038-9.507,0c-2.146-.018-2.985-.91-2.991-3.091C447.646-268.739,447.651-271.068,447.651-273.564Zm-36.943,5.233c0-2.7.1-5.239-.026-7.767-.132-2.76,1.572-4.012,4.218-3.191a56.379,56.379,0,0,0,23.478,2.128c3.583-.42,7.12-1.26,10.66-2,2.25-.467,3.588.5,3.622,2.791.008.584,0,1.167,0,1.751v6.227h5.507V-269.8c0-3.418.085-6.839-.034-10.253a3.676,3.676,0,0,1,2.219-3.774,41.854,41.854,0,0,0,12.615-10.278c8.5-10.261,9.748-23.428,3.217-34.582-3.763-6.428-9.18-11.132-15.6-14.8l-3.653,4.251c1.893.68,2.675,1.659,2.457,3.008a2.554,2.554,0,0,1-2.81,2.132q-16.007.034-32.013.012a2.557,2.557,0,0,1-2.838-2.248c-.165-1.309.675-2.316,2.3-2.771.062-.017.1-.114.21-.243a25.284,25.284,0,0,1-6.393-9.632c-1.446.419-2.8.8-4.146,1.2-2.735.832-3.115.7-4.748-1.695a18.149,18.149,0,0,0-10.853-7.9c-.92-.225-1.877-.3-2.817-.446,3.444,3.63,5.155,7.918,6.273,12.51.557,2.289.338,2.82-1.625,4.181-5.867,4.07-10.63,9.121-13.451,15.755-.836,1.966-1.984,2.8-4.076,2.642-1.636-.121-3.289-.024-4.892-.024v18.09a31.361,31.361,0,0,0,3.846-.026c2.8-.356,4.32.689,5.514,3.374,3.387,7.618,9.3,13,16.423,17.113a3.385,3.385,0,0,1,1.933,3.31c-.07,3.834-.013,7.67-.018,11.5,0,.583-.006,1.079.816,1.059C407.524-268.356,409.021-268.331,410.709-268.331Zm29.811-70.754c1.833,0,3.668.032,5.5-.018a5.583,5.583,0,0,0,1.929-.377,19.1,19.1,0,0,0,11.41-20.906A19.153,19.153,0,0,0,443.3-375.919a19.131,19.131,0,0,0-19.569,9.911,18.915,18.915,0,0,0,2.89,21.916c3.019,3.222,6.5,5.608,11.274,5.022A21.669,21.669,0,0,1,440.52-339.085Z" transform="translate(-372.398 381.289)"/><path class="a" d="M456-229.459a4.178,4.178,0,0,1,4.267,4.128,4.255,4.255,0,0,1-4.2,4.356,4.325,4.325,0,0,1-4.3-4.287A4.229,4.229,0,0,1,456-229.459Zm1.071,4.169c-.51-.3-.816-.629-1.058-.587-.262.045-.465.435-.694.674.249.224.486.6.752.626C456.313-224.557,456.587-224.926,457.07-225.29Z" transform="translate(-425.242 280.206)"/><path class="a" d="M550.316-336.729c-3.274,0-6.549.014-9.823-.006a2.454,2.454,0,0,1-2.723-2.321,2.489,2.489,0,0,1,2.758-2.675c3.459-.018,6.919,0,10.378,0h1.328c.22-1.866.22-1.869-1.5-1.868q-4.627,0-9.253.005a11.894,11.894,0,0,1-1.373-.052,2.417,2.417,0,0,1-2.334-2.575,2.384,2.384,0,0,1,2.418-2.357c1.164-.059,2.333-.024,3.5-.025q7.377,0,14.755,0a9.773,9.773,0,0,1,1.372.057,2.369,2.369,0,0,1,2.078,2.289,2.343,2.343,0,0,1-1.931,2.534,25.419,25.419,0,0,1-2.55.193v1.8c.644,0,1.29-.023,1.934,0a2.459,2.459,0,0,1,2.559,2.5,2.317,2.317,0,0,1-2.548,2.459c-1.963-.183-3.05.477-4.07,2.225-1.614,2.764-4.456,3.875-7.547,4.313-.444.063-.889.111-1.591.2.518.551.868.934,1.23,1.307,1.8,1.856,3.62,3.689,5.389,5.571a2.441,2.441,0,0,1,.047,3.581,2.457,2.457,0,0,1-3.579-.088q-5.7-5.792-11.337-11.648a2.415,2.415,0,0,1-.37-3.1,2.6,2.6,0,0,1,2.788-1.175,61.274,61.274,0,0,0,6.951.316,11.906,11.906,0,0,0,3.14-.972Z" transform="translate(-482.073 359.535)"/></svg>