<svg xmlns="http://www.w3.org/2000/svg" width="103.003" height="116.399" viewBox="0 0 103.003 116.399"><defs><style>.a{fill:#292f33;}</style></defs><g transform="translate(608.238 -291.724)"><path class="a" d="M-561.514,291.724h49.464c.276.1.548.216.829.3a8.063,8.063,0,0,1,5.933,7.612c.063,9.052.079,18.105-.011,27.157a8.038,8.038,0,0,1-8.147,7.915c-.858.011-1.717,0-2.682,0v1.463q0,20.965,0,41.929a10.719,10.719,0,0,1-.109,1.922c-.666,3.617-3.468,5.878-7.362,5.89-8.128.023-16.255.007-24.383.008h-1.454c0,.552,0,.958,0,1.365-.006,4.053.042,8.106-.035,12.158a8.883,8.883,0,0,1-6,8.167c-.567.2-1.15.344-1.726.514H-600.54a2.069,2.069,0,0,0-.4-.189,9.034,9.034,0,0,1-7.3-9.251q-.014-40.219,0-80.438a11.661,11.661,0,0,1,.347-2.917c1.094-4.18,4.648-6.736,9.343-6.742q14.4-.018,28.8,0h1.384c0-3.051-.031-5.923.008-8.795a8.123,8.123,0,0,1,5.876-7.759C-562.147,291.94-561.831,291.828-561.514,291.724Zm-6.828,32.534h-36.317v65.4h51.664V334.711c-2.512,0-4.93.029-7.346-.006a8.081,8.081,0,0,1-8-7.938C-568.359,325.944-568.341,325.119-568.341,324.258Zm3.5-9.244c-.02.43-.049.764-.049,1.1q-.009,4.944-.007,9.888c0,3.333,1.882,5.24,5.187,5.242q22.857.012,45.715.007c3.329,0,5.207-1.872,5.224-5.2s.006-6.668,0-10c0-.328-.05-.656-.081-1.036Zm11.912,78.351h-51.717c0,2.247-.144,4.414.063,6.546a6.061,6.061,0,0,0,1.367,2.9,5.513,5.513,0,0,0,4.672,1.852q13.035-.014,26.069-.006c4.534,0,9.068.024,13.6-.006,3.275-.022,5.7-2.055,5.916-5.074C-552.808,397.545-552.925,395.5-552.925,393.365Zm3.56-51.106v16.414a5.767,5.767,0,0,0,.611.07c8.465,0,16.929.017,25.393-.018A3.587,3.587,0,0,0-519.6,354.9c.04-2.157.016-4.316.018-6.474,0-2.035,0-4.071,0-6.169Zm-15.5-30.869h56.022V304.5H-564.86Zm45.231,58.6h-29.742v12.371c.279.025.5.061.715.061q12.69.007,25.38,0a3.418,3.418,0,0,0,3.611-3.207C-519.528,376.169-519.63,373.108-519.63,369.992Zm10.723-69.16c.527-3.357-1.6-5.636-5.183-5.638q-22.728-.01-45.456,0a8.154,8.154,0,0,0-1.8.177,4.539,4.539,0,0,0-3.371,5.456Zm-95.792,19.7h36.263v-8.42h-1.436q-8.216,0-16.432,0c-4.344,0-8.689-.037-13.031.045a5.351,5.351,0,0,0-5.354,5.235C-604.751,318.406-604.7,319.429-604.7,320.53Zm85.044,40.715c-1.914,1.165-3.933.961-5.923.962q-11.223.008-22.445.007h-1.326V366.3h29.695Zm-29.738-22.628h29.732v-3.823h-29.732Z"/><path class="a" d="M-539.7,456.247a22.074,22.074,0,0,1-22.151,22.038,22.018,22.018,0,0,1-21.819-22.445,21.984,21.984,0,0,1,22.4-21.617A22.082,22.082,0,0,1-539.7,456.247Zm-21.992,18.517a18.484,18.484,0,0,0,18.472-18.358A18.524,18.524,0,0,0-561.6,437.69a18.62,18.62,0,0,0-18.616,18.4A18.516,18.516,0,0,0-561.691,474.764Z" transform="translate(-17.121 -99.303)"/><path class="a" d="M-448,387.1c1.546,0,3.092-.013,4.637,0,1.287.014,2.087.677,2.118,1.712.031,1.061-.808,1.8-2.144,1.807q-4.693.022-9.387-.011c-1.3-.01-2.061-.7-2.052-1.764s.781-1.725,2.078-1.742C-451.163,387.085-449.58,387.1-448,387.1Z" transform="translate(-106.911 -66.462)"/><path class="a" d="M-388.264,390.618c-1.507,0-3.015.012-4.522,0-1.416-.014-2.179-.63-2.193-1.73s.76-1.775,2.142-1.781q4.635-.021,9.271,0c1.334.006,2.183.734,2.159,1.791-.023,1.027-.83,1.71-2.109,1.728-1.583.022-3.165.005-4.748.005Z" transform="translate(-148.615 -66.46)"/><path class="a" d="M-330.851,387.1c1.549,0,3.1-.013,4.647,0,1.34.015,2.078.631,2.106,1.705.03,1.13-.718,1.8-2.116,1.8q-4.647.026-9.295,0c-1.333-.008-2.083-.642-2.112-1.7-.03-1.112.749-1.792,2.122-1.807C-333.949,387.087-332.4,387.1-330.851,387.1Z" transform="translate(-188.587 -66.462)"/><path class="a" d="M-527.843,641.687c-1.734,0-3.468.018-5.2,0-1.3-.017-2.027-.694-1.994-1.788a1.756,1.756,0,0,1,1.994-1.69q5.258-.02,10.517.007a1.775,1.775,0,0,1,1.965,1.739,1.757,1.757,0,0,1-1.965,1.729C-524.3,641.708-526.071,641.686-527.843,641.687Z" transform="translate(-51.01 -241.448)"/><path class="a" d="M-548.213,477.3l7.7-8.544c.607-.674,1.2-1.362,1.828-2.017a1.714,1.714,0,0,1,2.68-.144q2.369,2.2,4.664,4.474c1.029,1.025,1.037,1.743.022,2.836-1.209,1.3-2.471,2.553-3.726,3.811q-6.048,6.063-12.108,12.113c-1.275,1.273-1.989,1.314-3.26.059q-4.68-4.622-9.3-9.308a1.689,1.689,0,0,1-.026-2.686q2.449-2.522,4.968-4.976c1.061-1.029,1.932-1,2.907.1C-550.633,474.4-549.462,475.827-548.213,477.3Zm-7.65,1.816,7.049,7.155,13.587-13.611-2.011-2.281c-.276.291-.54.558-.791.836q-4.213,4.678-8.422,9.36c-1.406,1.563-2.24,1.573-3.589.009-1.134-1.314-2.249-2.645-3.4-4.007Z" transform="translate(-33.347 -121.459)"/></g></svg>