<svg xmlns="http://www.w3.org/2000/svg" xmlns:xlink="http://www.w3.org/1999/xlink" width="229.155" height="278.686" viewBox="0 0 229.155 278.686"><defs><style>.a{opacity:0.5;mix-blend-mode:multiply;isolation:isolate;fill:url(#a);}.b{fill:#e89613;}.c{fill:#ffca28;}.d{fill:#f57f17;}.e{fill:#fdd835;}.f{fill:#fff8e1;}.g{fill:#00695c;}.h{fill:#004d40;}.i{fill:#ffccbc;}.j{fill:url(#b);}.k{fill:#ffab91;}.l{fill:#ffdace;}.m{fill:#212121;}.n{fill:#00796b;}.o{fill:url(#c);}.p{fill:url(#d);}.q{fill:#37474f;}.r{fill:#455a64;}.s{fill:#ff6f00;}.t{fill:url(#e);}.u{fill:url(#f);}</style><linearGradient id="a" x1="0.497" y1="0.743" x2="0.467" y2="-2.206" gradientUnits="objectBoundingBox"><stop offset="0" stop-color="#fff"/><stop offset="0.992" stop-color="#ff6f00"/></linearGradient><linearGradient id="b" x1="0.885" y1="-0.852" x2="0.043" y2="2.173" gradientUnits="objectBoundingBox"><stop offset="0" stop-color="#ffab91"/><stop offset="1" stop-color="#ffccbc"/></linearGradient><linearGradient id="c" x1="0.622" y1="1.287" x2="0.375" y2="-0.324" gradientUnits="objectBoundingBox"><stop offset="0" stop-color="#004d40"/><stop offset="1" stop-color="#00695c"/></linearGradient><linearGradient id="d" x1="0.639" y1="-0.014" x2="0.377" y2="0.809" gradientUnits="objectBoundingBox"><stop offset="0" stop-color="#212121"/><stop offset="1" stop-color="#223d39"/></linearGradient><linearGradient id="e" x1="-3.195" y1="0.841" x2="-3.733" y2="0.464" xlink:href="#b"/><linearGradient id="f" x1="-10.622" y1="0.844" x2="-9.398" y2="0.511" xlink:href="#b"/></defs><g transform="translate(0 114.297)"><g transform="translate(0 66.928)"><path class="a" d="M594.681,756.41,536.654,674.7A313.238,313.238,0,0,0,421.6,674.66a305.655,305.655,0,0,0-41.338,10.874L365.526,756.41Z" transform="translate(-365.526 -658.949)"/><path class="b" d="M496.516,670.707l-2.747,1.682c-2.485-1.52-6.6-.336-14.25-1.523-22.55-3.5-59.006-3.5-81.418,0-6.893,1.078-11.648-1.517-14.278-.156l-2.45.056.06,6.006c-.707,2.435,4.942,4.913,16.933,6.776,22.557,3.5,59.006,3.5,81.418,0,10.736-1.679,16.286-3.857,16.692-6.052h.039Z" transform="translate(-325.349 -661.741)"/><path class="c" d="M479.52,669.027c-22.55-3.5-59.006-3.5-81.418,0s-22.285,9.18.265,12.683,59.006,3.5,81.418,0S502.077,672.53,479.52,669.027Z" transform="translate(-325.349 -666.403)"/><path class="d" d="M472.284,674.327c-.756-1.566-5-3.1-12.726-4.3-17.053-2.648-44.619-2.648-61.562,0-7.6,1.191-11.779,2.708-12.528,4.263-.9-1.895,3.259-3.836,12.528-5.281,16.943-2.648,44.509-2.648,61.562,0C468.943,670.463,473.2,672.426,472.284,674.327Z" transform="translate(-315.281 -664.834)"/><path class="e" d="M472.2,673.6c-.749,1.559-4.924,3.079-12.528,4.27-16.943,2.648-44.5,2.644-61.562,0-7.72-1.2-11.966-2.74-12.726-4.309.749-1.556,4.924-3.072,12.528-4.263,16.943-2.648,44.509-2.648,61.562,0C467.195,670.494,471.44,672.031,472.2,673.6Z" transform="translate(-315.194 -664.104)"/><path class="d" d="M435.612,669.313l4.868-.764v-.59c-.919.056-1.835.109-2.754.163q-2.513.392-5.027.788c-1.418-.184-2.92-.325-4.514-.435s-3.2-.17-4.811-.187-3.192.021-4.744.11-2.984.237-4.32.445a9.115,9.115,0,0,0-2.733.707c-.435.255-.509.534-.233.838a7.821,7.821,0,0,0,2.238,1.251l.336.152-13.638,2.132q-2.932-.488-3.319-.937c-.247-.3.318-.622,1.7-.972v-.59l-2.648.18-5.79.315v.59c.9.283,2,.594,3.355.9q2.174.493,4.468.866l-4.843.166v.59l2.761.431,4.9-.767a76.131,76.131,0,0,0,9.824.686,57.809,57.809,0,0,0,9.035-.661,10.45,10.45,0,0,0,3.047-.781c.484-.279.576-.59.272-.926a8.338,8.338,0,0,0-2.407-1.357l12.666-1.98c1.948.152,2.9.548,2.623.806a3.839,3.839,0,0,1-1.4.311v.59c.873.134,1.75.272,2.626.407l5.684-.887v-.59c-.859-.035-1.937-.1-3.111-.24A27.864,27.864,0,0,1,435.612,669.313Zm-18.93,4.122a5.358,5.358,0,0,1-2.605.785,37.7,37.7,0,0,1-5.387.431,41.285,41.285,0,0,1-5.568-.311l12.532-1.958Q417.011,673,416.682,673.435Zm2.248-2.375c-.947-.414-1.34-.753-1.188-1.022s.94-.516,2.361-.739a33.257,33.257,0,0,1,4.96-.343,44.751,44.751,0,0,1,5.4.3Z" transform="translate(-302.93 -662.457)"/><path class="f" d="M435.612,669.029l4.868-.763-2.754-.428-5.027.785q-2.126-.271-4.514-.431T423.374,668c-1.616-.014-3.192.021-4.744.11s-2.984.237-4.32.445a9.128,9.128,0,0,0-2.733.707c-.435.255-.509.534-.233.838a7.827,7.827,0,0,0,2.234,1.251l.343.152-13.642,2.132q-2.932-.488-3.319-.937c-.251-.3.318-.622,1.7-.972l-2.648-.41-5.79.905a34.541,34.541,0,0,0,3.355.9q2.174.493,4.468.866l-4.843.756,2.761.431,4.9-.767a76.23,76.23,0,0,0,9.824.686,57.4,57.4,0,0,0,9.035-.661,10.439,10.439,0,0,0,3.047-.781c.484-.279.576-.59.272-.926a8.423,8.423,0,0,0-2.407-1.358l12.666-1.979c1.559.258,2.429.527,2.623.806s-.279.58-1.4.9l2.626.406,5.684-.887A47.238,47.238,0,0,0,435.612,669.029Zm-18.93,4.122a5.363,5.363,0,0,1-2.605.785,37.26,37.26,0,0,1-5.387.431,40.723,40.723,0,0,1-5.568-.311l12.532-1.958Q417.011,672.718,416.682,673.151Zm2.248-2.375c-.947-.414-1.34-.753-1.188-1.022s.94-.516,2.361-.739a33.244,33.244,0,0,1,4.96-.343,44.788,44.788,0,0,1,5.4.3Z" transform="translate(-302.93 -662.764)"/></g><g transform="translate(62.624 57.914)"><path class="b" d="M498.381,668.16l-2.747,1.679c-2.481-1.52-6.6-.332-14.25-1.52-22.55-3.5-59.006-3.5-81.414,0-6.9,1.078-11.651-1.52-14.281-.156l-2.446.057.057,6c-.7,2.439,4.945,4.917,16.936,6.777,22.557,3.5,59.006,3.5,81.414,0,10.736-1.676,16.289-3.853,16.692-6.052h.039Z" transform="translate(-383.241 -659.191)"/><path class="c" d="M481.385,666.48c-22.55-3.5-59.006-3.5-81.414,0s-22.288,9.18.265,12.68,59.006,3.5,81.414,0S503.942,669.98,481.385,666.48Z" transform="translate(-383.241 -663.853)"/><path class="d" d="M474.148,671.781c-.756-1.57-5-3.107-12.726-4.3-17.053-2.651-44.618-2.651-61.562,0-7.6,1.188-11.778,2.708-12.524,4.263-.908-1.895,3.256-3.836,12.524-5.285,16.943-2.648,44.509-2.648,61.562,0C470.811,667.917,475.063,669.875,474.148,671.781Z" transform="translate(-373.172 -662.285)"/><path class="e" d="M474.06,671.05c-.746,1.559-4.924,3.075-12.528,4.266-16.94,2.648-44.5,2.644-61.558,0-7.724-1.2-11.969-2.736-12.726-4.305.746-1.556,4.921-3.075,12.524-4.263,16.943-2.651,44.509-2.651,61.562,0C469.058,667.943,473.3,669.48,474.06,671.05Z" transform="translate(-373.085 -661.554)"/><path class="d" d="M437.478,666.761l4.868-.76v-.591c-.919.053-1.835.109-2.754.163l-5.023.785c-1.421-.18-2.92-.325-4.518-.435s-3.2-.17-4.811-.184-3.192.021-4.744.109-2.983.233-4.32.442a9.287,9.287,0,0,0-2.732.71c-.435.255-.509.534-.233.834a7.933,7.933,0,0,0,2.238,1.255l.339.152-13.638,2.132c-1.958-.325-3.065-.64-3.319-.937s.318-.622,1.693-.972v-.59l-2.644.18-5.794.315v.59c.909.279,2,.59,3.355.9q2.174.488,4.472.866-2.423.079-4.843.166v.59c.919.142,1.838.286,2.757.428l4.9-.763a75.4,75.4,0,0,0,9.82.682,57.821,57.821,0,0,0,9.035-.657,10.524,10.524,0,0,0,3.051-.785c.481-.279.573-.586.269-.926a8.445,8.445,0,0,0-2.4-1.358l12.662-1.976c1.948.152,2.9.548,2.623.8a3.839,3.839,0,0,1-1.4.311v.594c.877.134,1.75.269,2.626.407l5.684-.887v-.59c-.859-.035-1.937-.106-3.111-.24A27.743,27.743,0,0,1,437.478,666.761Zm-18.926,4.122a5.333,5.333,0,0,1-2.609.788,37.24,37.24,0,0,1-5.387.428,40.734,40.734,0,0,1-5.568-.311l12.532-1.958Q418.877,670.455,418.552,670.883Zm2.245-2.372q-1.416-.62-1.188-1.025c.152-.268.944-.513,2.365-.735a33.162,33.162,0,0,1,4.956-.343,44.741,44.741,0,0,1,5.4.3Z" transform="translate(-360.823 -659.905)"/><path class="f" d="M437.478,666.477l4.868-.76-2.754-.428-5.023.785c-1.421-.18-2.92-.325-4.518-.435s-3.2-.169-4.811-.184-3.192.021-4.744.11a42.434,42.434,0,0,0-4.32.445,9.2,9.2,0,0,0-2.732.707c-.435.255-.509.534-.233.834a7.846,7.846,0,0,0,2.238,1.255l.339.152-13.638,2.131q-2.938-.488-3.319-.937c-.251-.3.318-.626,1.693-.972l-2.644-.41-5.794.9q1.2.4,3.355.9,2.174.493,4.468.866l-4.84.756,2.757.428,4.9-.763a75.988,75.988,0,0,0,9.82.686,58.289,58.289,0,0,0,9.035-.661,10.414,10.414,0,0,0,3.051-.785c.481-.279.573-.587.269-.926a8.375,8.375,0,0,0-2.4-1.354l12.662-1.98c1.559.255,2.429.523,2.623.8s-.276.58-1.4.9l2.626.41,5.684-.887A47.209,47.209,0,0,0,437.478,666.477ZM418.552,670.6a5.33,5.33,0,0,1-2.609.788,37.153,37.153,0,0,1-5.387.428,41.279,41.279,0,0,1-5.568-.308l12.532-1.958Q418.877,670.169,418.552,670.6Zm2.245-2.372q-1.416-.621-1.188-1.025c.152-.269.944-.516,2.365-.735a33.157,33.157,0,0,1,4.956-.343,44.792,44.792,0,0,1,5.4.3Z" transform="translate(-360.823 -660.212)"/></g><g transform="translate(56.026 47.804)"><path class="b" d="M496.516,665.3l-2.747,1.679c-2.485-1.52-6.6-.332-14.25-1.52-22.55-3.5-59.006-3.5-81.418,0-6.893,1.078-11.648-1.516-14.278-.155l-2.45.056.06,6c-.707,2.439,4.942,4.917,16.933,6.78,22.557,3.5,59.006,3.5,81.418,0,10.736-1.679,16.286-3.857,16.692-6.055h.039Z" transform="translate(-381.375 -656.331)"/><path class="c" d="M479.52,663.62c-22.55-3.5-59.006-3.5-81.418,0s-22.285,9.18.265,12.68,59.006,3.5,81.418,0S502.077,667.123,479.52,663.62Z" transform="translate(-381.375 -660.993)"/><path class="d" d="M472.284,668.918c-.756-1.566-5-3.107-12.726-4.3-17.053-2.648-44.619-2.648-61.562,0-7.6,1.188-11.779,2.708-12.528,4.263-.9-1.895,3.259-3.835,12.528-5.281,16.943-2.648,44.509-2.648,61.562,0C468.943,665.055,473.2,667.013,472.284,668.918Z" transform="translate(-371.307 -659.423)"/><path class="e" d="M472.2,668.188c-.749,1.559-4.924,3.079-12.528,4.267-16.943,2.648-44.5,2.648-61.562,0-7.72-1.2-11.966-2.736-12.726-4.306.749-1.555,4.924-3.076,12.528-4.263,16.943-2.648,44.509-2.648,61.562,0C467.195,665.081,471.44,666.622,472.2,668.188Z" transform="translate(-371.22 -658.692)"/><path class="d" d="M435.612,663.9l4.868-.76v-.59c-.919.053-1.835.11-2.754.163l-5.027.785q-2.126-.27-4.514-.435t-4.811-.184c-1.616-.014-3.192.021-4.744.11s-2.984.233-4.32.445a9.119,9.119,0,0,0-2.733.707c-.435.255-.509.534-.233.834a7.8,7.8,0,0,0,2.238,1.255l.336.152-13.638,2.132q-2.932-.488-3.319-.937c-.247-.3.318-.622,1.7-.972v-.59l-2.648.18-5.79.315v.59c.9.279,2,.591,3.355.9q2.174.493,4.468.866l-4.843.166v.59l2.761.428,4.9-.764a76.165,76.165,0,0,0,9.824.686,58.272,58.272,0,0,0,9.035-.661,10.4,10.4,0,0,0,3.047-.785q.727-.419.272-.926a8.363,8.363,0,0,0-2.407-1.354l12.666-1.98c1.948.152,2.9.548,2.623.8a3.77,3.77,0,0,1-1.4.314v.59q1.31.2,2.626.407l5.684-.887v-.59c-.859-.036-1.937-.106-3.111-.241A27.271,27.271,0,0,1,435.612,663.9Zm-18.93,4.125a5.361,5.361,0,0,1-2.605.785,37.662,37.662,0,0,1-5.387.431,41.8,41.8,0,0,1-5.568-.311l12.532-1.958Q417.011,667.593,416.682,668.026Zm2.248-2.375c-.947-.414-1.34-.756-1.188-1.025s.94-.513,2.361-.735a33.248,33.248,0,0,1,4.96-.343,44.839,44.839,0,0,1,5.4.3Z" transform="translate(-358.956 -657.045)"/><path class="f" d="M435.612,663.617l4.868-.76-2.754-.428-5.027.785q-2.126-.271-4.514-.431t-4.811-.187c-1.616-.014-3.192.021-4.744.109s-2.984.237-4.32.445a9.11,9.11,0,0,0-2.733.707c-.435.255-.509.534-.233.834a7.728,7.728,0,0,0,2.234,1.255l.343.152L400.28,668.23c-1.955-.325-3.061-.64-3.319-.937s.318-.622,1.7-.972l-2.648-.41-5.79.9q1.2.4,3.355.9,2.174.493,4.468.866l-4.843.757,2.761.428,4.9-.763a76.218,76.218,0,0,0,9.824.686,58.265,58.265,0,0,0,9.035-.661,10.3,10.3,0,0,0,3.047-.785c.484-.279.576-.587.272-.923a8.261,8.261,0,0,0-2.407-1.357l12.666-1.979c1.559.258,2.429.527,2.623.8s-.279.58-1.4.905l2.626.406,5.684-.887A47.591,47.591,0,0,0,435.612,663.617Zm-18.93,4.125a5.361,5.361,0,0,1-2.605.785,37.705,37.705,0,0,1-5.387.431,41.842,41.842,0,0,1-5.568-.311l12.532-1.958Q417.011,667.309,416.682,667.742Zm2.248-2.375c-.947-.414-1.34-.756-1.188-1.025s.94-.512,2.361-.735a33.22,33.22,0,0,1,4.96-.343,44.788,44.788,0,0,1,5.4.3Z" transform="translate(-358.956 -657.352)"/></g><g transform="translate(56.026 38.245)"><path class="b" d="M496.516,662.593l-2.747,1.679c-2.485-1.516-6.6-.332-14.25-1.52-22.55-3.5-59.006-3.5-81.418,0-6.893,1.075-11.648-1.52-14.278-.159l-2.45.057.06,6.006c-.707,2.435,4.942,4.913,16.933,6.776,22.557,3.5,59.006,3.5,81.418,0,10.736-1.679,16.286-3.856,16.692-6.052h.039Z" transform="translate(-381.375 -653.626)"/><path class="c" d="M479.52,660.913c-22.55-3.5-59.006-3.5-81.418,0s-22.285,9.18.265,12.684,59.006,3.5,81.418,0S502.077,664.416,479.52,660.913Z" transform="translate(-381.375 -658.289)"/><path class="d" d="M472.284,666.217c-.756-1.569-5-3.107-12.726-4.306-17.053-2.648-44.619-2.648-61.562,0-7.6,1.191-11.779,2.708-12.528,4.263-.9-1.895,3.259-3.836,12.528-5.281,16.943-2.648,44.509-2.648,61.562,0C468.943,662.349,473.2,664.308,472.284,666.217Z" transform="translate(-371.307 -656.72)"/><path class="e" d="M472.2,665.487c-.749,1.555-4.924,3.075-12.528,4.267-16.943,2.648-44.5,2.644-61.562,0-7.72-1.2-11.966-2.74-12.726-4.309.749-1.556,4.924-3.072,12.528-4.263,16.943-2.648,44.509-2.648,61.562,0C467.195,662.38,471.44,663.917,472.2,665.487Z" transform="translate(-371.22 -655.99)"/><path class="d" d="M435.612,661.2l4.868-.764v-.59c-.919.057-1.835.109-2.754.163-1.676.262-3.351.527-5.027.785q-2.126-.27-4.514-.431t-4.811-.187c-1.616-.014-3.192.021-4.744.11s-2.984.237-4.32.445a9.119,9.119,0,0,0-2.733.707c-.435.254-.509.534-.233.838a7.816,7.816,0,0,0,2.238,1.251l.336.152-13.638,2.132q-2.932-.488-3.319-.937c-.247-.3.318-.622,1.7-.972v-.59l-2.648.18-5.79.315v.59c.9.283,2,.594,3.355.9q2.174.493,4.468.866l-4.843.166v.59l2.761.431,4.9-.767a76.119,76.119,0,0,0,9.824.685,57.84,57.84,0,0,0,9.035-.661,10.446,10.446,0,0,0,3.047-.781c.484-.279.576-.587.272-.926a8.433,8.433,0,0,0-2.407-1.357l12.666-1.979c1.948.152,2.9.548,2.623.806a3.839,3.839,0,0,1-1.4.311v.59c.873.134,1.75.272,2.626.407l5.684-.887v-.59c-.859-.035-1.937-.1-3.111-.24A27.9,27.9,0,0,1,435.612,661.2Zm-18.93,4.121a5.36,5.36,0,0,1-2.605.785,37.217,37.217,0,0,1-5.387.431,40.685,40.685,0,0,1-5.568-.311l12.532-1.958Q417.011,664.888,416.682,665.321Zm2.248-2.375c-.947-.414-1.34-.753-1.188-1.022s.94-.516,2.361-.739a33.247,33.247,0,0,1,4.96-.343,44.739,44.739,0,0,1,5.4.3Z" transform="translate(-358.956 -654.343)"/><path class="f" d="M435.612,660.915l4.868-.763-2.754-.428-5.027.788c-1.418-.184-2.92-.325-4.514-.435s-3.2-.17-4.811-.187-3.192.021-4.744.11-2.984.237-4.32.445a9.138,9.138,0,0,0-2.733.707c-.435.255-.509.534-.233.838a7.828,7.828,0,0,0,2.234,1.251l.343.156-13.642,2.128q-2.932-.488-3.319-.937c-.251-.3.318-.622,1.7-.972l-2.648-.41-5.79.905a34.586,34.586,0,0,0,3.355.9q2.174.493,4.468.866l-4.843.76,2.761.428,4.9-.767a76.12,76.12,0,0,0,9.824.686,57.427,57.427,0,0,0,9.035-.661,10.456,10.456,0,0,0,3.047-.781c.484-.279.576-.59.272-.926a8.426,8.426,0,0,0-2.407-1.357l12.666-1.979c1.559.258,2.429.527,2.623.806s-.279.58-1.4.9l2.626.406,5.684-.887A47.268,47.268,0,0,0,435.612,660.915Zm-18.93,4.122a5.361,5.361,0,0,1-2.605.785,37.75,37.75,0,0,1-5.387.431,40.694,40.694,0,0,1-5.568-.311l12.532-1.958Q417.011,664.6,416.682,665.037Zm2.248-2.375c-.947-.414-1.34-.753-1.188-1.022s.94-.516,2.361-.739a33.247,33.247,0,0,1,4.96-.343,44.033,44.033,0,0,1,5.4.3Z" transform="translate(-358.956 -654.65)"/></g><g transform="translate(58.907 28.662)"><path class="b" d="M497.332,659.882l-2.747,1.683c-2.481-1.52-6.6-.332-14.249-1.52-22.55-3.5-59.006-3.5-81.414,0-6.9,1.078-11.651-1.52-14.281-.156l-2.45.053.06,6.006c-.707,2.439,4.945,4.913,16.936,6.776,22.557,3.5,59.006,3.5,81.414,0,10.736-1.676,16.289-3.853,16.692-6.052h.039Z" transform="translate(-382.19 -650.916)"/><path class="c" d="M480.334,658.2c-22.55-3.5-59.006-3.5-81.414,0s-22.288,9.18.265,12.68,59.006,3.5,81.414,0S502.891,661.7,480.334,658.2Z" transform="translate(-382.189 -655.578)"/><path class="d" d="M473.1,663.506c-.757-1.569-5-3.107-12.726-4.305-17.053-2.648-44.619-2.648-61.562,0-7.6,1.191-11.778,2.711-12.528,4.267-.9-1.895,3.259-3.835,12.528-5.285,16.943-2.648,44.509-2.648,61.562,0C469.762,659.642,474.014,661.6,473.1,663.506Z" transform="translate(-372.122 -654.01)"/><path class="e" d="M473.012,662.776c-.746,1.556-4.924,3.076-12.528,4.267-16.943,2.648-44.5,2.644-61.558,0-7.724-1.2-11.969-2.736-12.729-4.306.749-1.555,4.924-3.075,12.528-4.267,16.943-2.648,44.509-2.648,61.562,0C468.01,659.669,472.255,661.206,473.012,662.776Z" transform="translate(-372.035 -653.28)"/><path class="d" d="M436.427,658.486l4.868-.76v-.59c-.919.053-1.835.106-2.754.163l-5.023.785c-1.421-.18-2.92-.325-4.518-.435s-3.2-.17-4.811-.184-3.192.021-4.744.109-2.984.233-4.32.442a9.159,9.159,0,0,0-2.733.707c-.435.258-.509.537-.233.838a7.943,7.943,0,0,0,2.238,1.255l.339.152L401.1,663.1q-2.938-.493-3.319-.937c-.251-.3.318-.626,1.693-.972v-.59c-.88.056-1.764.117-2.644.177q-2.9.159-5.794.315v.59c.9.283,2,.594,3.355.9q2.174.488,4.468.866l-4.839.166v.59l2.757.428,4.9-.767a75.375,75.375,0,0,0,9.82.686,57.421,57.421,0,0,0,9.035-.661,10.442,10.442,0,0,0,3.051-.781c.481-.279.573-.587.269-.926a8.429,8.429,0,0,0-2.407-1.357l12.666-1.98c1.948.156,2.9.548,2.623.806a3.835,3.835,0,0,1-1.4.311v.59l2.626.41,5.684-.891v-.59c-.859-.035-1.937-.1-3.111-.237A27.769,27.769,0,0,1,436.427,658.486ZM417.5,662.607a5.325,5.325,0,0,1-2.609.788,37.676,37.676,0,0,1-5.387.428,40.7,40.7,0,0,1-5.568-.311l12.532-1.958C417.373,661.968,417.716,662.321,417.5,662.607Zm2.245-2.372q-1.416-.62-1.188-1.025c.152-.268.944-.516,2.365-.735a33.205,33.205,0,0,1,4.956-.343,43.311,43.311,0,0,1,5.4.3Z" transform="translate(-359.771 -651.63)"/><path class="f" d="M436.427,658.2l4.868-.76-2.754-.428-5.023.785c-1.421-.18-2.92-.325-4.518-.435s-3.2-.17-4.811-.184-3.192.021-4.744.11-2.984.233-4.32.442a9.274,9.274,0,0,0-2.733.707c-.435.258-.509.537-.233.838a7.933,7.933,0,0,0,2.238,1.255l.339.152L401.1,662.815q-2.938-.488-3.319-.94c-.251-.3.318-.622,1.693-.969l-2.644-.414-5.794.905c.8.272,1.916.573,3.355.9s2.938.615,4.468.866l-4.839.756,2.757.428,4.9-.767a74.823,74.823,0,0,0,9.82.686,57.407,57.407,0,0,0,9.035-.661,10.447,10.447,0,0,0,3.051-.781c.481-.279.573-.587.269-.926a8.423,8.423,0,0,0-2.407-1.357l12.666-1.979c1.559.258,2.429.527,2.623.806s-.276.58-1.4.9l2.626.41,5.684-.891A47.685,47.685,0,0,0,436.427,658.2ZM417.5,662.324a5.328,5.328,0,0,1-2.609.788,37.7,37.7,0,0,1-5.387.428,40.7,40.7,0,0,1-5.568-.311l12.532-1.958C417.373,661.684,417.716,662.037,417.5,662.324Zm2.245-2.372c-.944-.413-1.34-.757-1.188-1.025s.944-.516,2.365-.735a33.212,33.212,0,0,1,4.956-.343,44,44,0,0,1,5.4.3Z" transform="translate(-359.771 -651.937)"/></g><g transform="translate(56.026 19.121)"><path class="b" d="M496.516,657.186l-2.747,1.679c-2.485-1.52-6.6-.332-14.25-1.52-22.55-3.5-59.006-3.5-81.418,0-6.893,1.078-11.648-1.516-14.278-.155l-2.45.056.06,6c-.707,2.439,4.942,4.917,16.933,6.78,22.557,3.5,59.006,3.5,81.418,0,10.736-1.679,16.286-3.857,16.692-6.055h.039Z" transform="translate(-381.375 -648.217)"/><path class="c" d="M479.52,655.506c-22.55-3.5-59.006-3.5-81.418,0s-22.285,9.18.265,12.68,59.006,3.5,81.418,0S502.077,659.006,479.52,655.506Z" transform="translate(-381.375 -652.879)"/><path class="d" d="M472.284,660.806c-.756-1.566-5-3.1-12.726-4.3-17.053-2.648-44.619-2.648-61.562,0-7.6,1.188-11.779,2.708-12.528,4.263-.9-1.895,3.259-3.835,12.528-5.281,16.943-2.651,44.509-2.651,61.562,0C468.943,656.942,473.2,658.9,472.284,660.806Z" transform="translate(-371.307 -651.31)"/><path class="e" d="M472.2,660.074c-.749,1.559-4.924,3.079-12.528,4.267-16.943,2.648-44.5,2.648-61.562,0-7.72-1.2-11.966-2.736-12.726-4.306.749-1.555,4.924-3.075,12.528-4.263,16.943-2.648,44.509-2.648,61.562,0C467.195,656.971,471.44,658.508,472.2,660.074Z" transform="translate(-371.22 -650.578)"/><path class="d" d="M435.612,655.786l4.868-.76v-.591c-.919.053-1.835.11-2.754.163l-5.027.785q-2.126-.27-4.514-.431t-4.811-.187c-1.616-.014-3.192.021-4.744.11s-2.984.237-4.32.445a9.129,9.129,0,0,0-2.733.707c-.435.255-.509.534-.233.834a7.8,7.8,0,0,0,2.238,1.255l.336.152L400.28,660.4c-1.955-.325-3.061-.64-3.319-.937s.318-.622,1.7-.972v-.59l-2.648.18-5.79.315v.59c.9.279,2,.59,3.355.9q2.174.493,4.468.866-2.418.085-4.843.166v.59l2.761.428,4.9-.764a76.1,76.1,0,0,0,9.824.686,58.3,58.3,0,0,0,9.035-.661,10.293,10.293,0,0,0,3.047-.785c.484-.279.576-.587.272-.923a8.254,8.254,0,0,0-2.407-1.357l12.666-1.98c1.948.152,2.9.548,2.623.8a3.767,3.767,0,0,1-1.4.314v.59c.873.135,1.75.272,2.626.407l5.684-.887v-.59c-.859-.035-1.937-.106-3.111-.24A27.278,27.278,0,0,1,435.612,655.786Zm-18.93,4.125a5.361,5.361,0,0,1-2.605.785,37.662,37.662,0,0,1-5.387.431,41.852,41.852,0,0,1-5.568-.311l12.532-1.958Q417.011,659.479,416.682,659.912Zm2.248-2.375c-.947-.414-1.34-.756-1.188-1.025s.94-.513,2.361-.735a33.216,33.216,0,0,1,4.96-.343,44.777,44.777,0,0,1,5.4.3Z" transform="translate(-358.956 -648.931)"/><path class="f" d="M435.612,655.5l4.868-.76-2.754-.428-5.027.785q-2.126-.27-4.514-.431t-4.811-.187c-1.616-.014-3.192.021-4.744.109s-2.984.237-4.32.445a9.117,9.117,0,0,0-2.733.707c-.435.255-.509.534-.233.838a7.928,7.928,0,0,0,2.234,1.251l.343.152-13.642,2.131c-1.955-.325-3.061-.64-3.319-.937s.318-.622,1.7-.972l-2.648-.41-5.79.905q1.2.408,3.355.9,2.174.493,4.468.866l-4.843.756,2.761.428,4.9-.763a76.131,76.131,0,0,0,9.824.686,57.832,57.832,0,0,0,9.035-.661,10.565,10.565,0,0,0,3.047-.781c.484-.283.576-.59.272-.926a8.254,8.254,0,0,0-2.407-1.357l12.666-1.979c1.559.258,2.429.527,2.623.8s-.279.58-1.4.9l2.626.407,5.684-.887A47.621,47.621,0,0,0,435.612,655.5Zm-18.93,4.125a5.361,5.361,0,0,1-2.605.785,37.705,37.705,0,0,1-5.387.432,41.852,41.852,0,0,1-5.568-.311l12.532-1.958Q417.011,659.2,416.682,659.628Zm2.248-2.376c-.947-.413-1.34-.756-1.188-1.025s.94-.513,2.361-.735a33.214,33.214,0,0,1,4.96-.343,44.726,44.726,0,0,1,5.4.3Z" transform="translate(-358.956 -649.238)"/></g><g transform="translate(69.962 13.214)"><path class="b" d="M500.457,655.515l-2.747,1.679c-2.482-1.52-6.6-.332-14.25-1.52-22.55-3.5-59.006-3.5-81.414,0-6.9,1.078-11.651-1.516-14.281-.155l-2.446.057.057,6c-.7,2.439,4.945,4.917,16.936,6.78,22.557,3.5,59.006,3.5,81.414,0,10.736-1.679,16.289-3.857,16.692-6.055h.039Z" transform="translate(-385.317 -646.546)"/><path class="c" d="M483.461,653.835c-22.55-3.5-59.006-3.5-81.414,0s-22.288,9.18.265,12.68,59.006,3.5,81.414,0S506.018,657.335,483.461,653.835Z" transform="translate(-385.317 -651.208)"/><path class="d" d="M476.224,659.135c-.756-1.566-5-3.107-12.726-4.3-17.053-2.648-44.619-2.648-61.562,0-7.6,1.188-11.779,2.708-12.524,4.263-.909-1.895,3.256-3.835,12.524-5.281,16.943-2.651,44.509-2.651,61.562,0C472.887,655.272,477.139,657.23,476.224,659.135Z" transform="translate(-375.248 -649.64)"/><path class="e" d="M476.136,658.4c-.746,1.559-4.924,3.079-12.528,4.267-16.94,2.648-44.5,2.648-61.558,0-7.724-1.2-11.969-2.736-12.726-4.306.746-1.555,4.921-3.075,12.524-4.263,16.943-2.648,44.509-2.648,61.562,0C471.134,655.3,475.38,656.837,476.136,658.4Z" transform="translate(-375.161 -648.908)"/><path class="d" d="M439.554,654.115l4.868-.76v-.59c-.919.053-1.835.11-2.754.163l-5.023.785c-1.421-.18-2.92-.325-4.518-.435s-3.2-.169-4.811-.184-3.192.022-4.744.11-2.983.237-4.32.445a9.147,9.147,0,0,0-2.732.707c-.435.254-.509.534-.233.834a7.855,7.855,0,0,0,2.238,1.255l.339.152-13.638,2.132q-2.938-.488-3.319-.937c-.251-.3.318-.622,1.693-.972v-.59l-2.644.18q-2.9.154-5.794.315v.59c.908.279,2,.59,3.355.9q2.174.493,4.468.866l-4.839.166v.59l2.757.428,4.9-.764a75.381,75.381,0,0,0,9.82.682,57.889,57.889,0,0,0,9.035-.657,10.43,10.43,0,0,0,3.051-.785c.481-.279.573-.587.269-.926a8.376,8.376,0,0,0-2.4-1.354l12.662-1.98c1.948.152,2.9.548,2.623.8a3.76,3.76,0,0,1-1.4.314v.59c.877.135,1.75.269,2.627.407l5.684-.887v-.59c-.859-.035-1.937-.106-3.111-.24A27.249,27.249,0,0,1,439.554,654.115Zm-18.926,4.126a5.384,5.384,0,0,1-2.609.785,37.673,37.673,0,0,1-5.387.431,41.882,41.882,0,0,1-5.567-.311l12.531-1.959Q420.953,657.808,420.627,658.241Zm2.245-2.375q-1.416-.62-1.188-1.025c.152-.269.944-.513,2.365-.735a33.2,33.2,0,0,1,4.956-.343,44.781,44.781,0,0,1,5.4.3Z" transform="translate(-362.899 -647.26)"/><path class="f" d="M439.554,653.832l4.868-.76-2.754-.428-5.023.785c-1.421-.18-2.92-.325-4.518-.431s-3.2-.173-4.811-.187-3.192.021-4.744.11-2.983.237-4.32.446a9.181,9.181,0,0,0-2.732.707c-.435.255-.509.534-.233.834a7.848,7.848,0,0,0,2.238,1.255l.339.152-13.638,2.131c-1.958-.325-3.065-.64-3.319-.937s.318-.622,1.693-.972l-2.644-.41-5.794.905q1.2.4,3.355.9,2.174.493,4.468.866l-4.839.757,2.757.428,4.9-.763a76.08,76.08,0,0,0,9.82.686,58.29,58.29,0,0,0,9.035-.661,10.3,10.3,0,0,0,3.051-.785c.481-.276.573-.587.269-.923a8.273,8.273,0,0,0-2.4-1.357l12.662-1.979c1.559.258,2.428.523,2.623.8s-.276.58-1.4.9l2.627.407,5.684-.887A47.187,47.187,0,0,0,439.554,653.832Zm-18.926,4.125a5.38,5.38,0,0,1-2.609.785,37.717,37.717,0,0,1-5.387.431,41.913,41.913,0,0,1-5.567-.311L419.6,656.9Q420.953,657.524,420.627,657.957Zm2.245-2.375q-1.416-.62-1.188-1.025c.152-.268.944-.513,2.365-.735a33.231,33.231,0,0,1,4.956-.343,44.729,44.729,0,0,1,5.4.3Z" transform="translate(-362.899 -647.567)"/></g><g transform="translate(56.026)"><path class="b" d="M496.516,651.774l-2.747,1.683c-2.485-1.52-6.6-.332-14.25-1.52-22.55-3.5-59.006-3.5-81.418,0-6.893,1.078-11.648-1.52-14.278-.155l-2.45.053.06,6.006c-.707,2.439,4.942,4.917,16.933,6.777,22.557,3.5,59.006,3.5,81.418,0,10.736-1.676,16.286-3.853,16.692-6.052h.039Z" transform="translate(-381.375 -642.808)"/><path class="c" d="M479.52,650.094c-22.55-3.5-59.006-3.5-81.418,0s-22.285,9.18.265,12.68,59.006,3.5,81.418,0S502.077,653.6,479.52,650.094Z" transform="translate(-381.375 -647.47)"/><path class="d" d="M472.284,655.4c-.756-1.57-5-3.107-12.726-4.306-17.053-2.648-44.619-2.648-61.562,0-7.6,1.192-11.779,2.712-12.528,4.267-.9-1.895,3.259-3.835,12.528-5.285,16.943-2.648,44.509-2.648,61.562,0C468.943,651.534,473.2,653.492,472.284,655.4Z" transform="translate(-371.307 -645.901)"/><path class="e" d="M472.2,654.668c-.749,1.555-4.924,3.075-12.528,4.267-16.943,2.648-44.5,2.644-61.562,0-7.72-1.2-11.966-2.736-12.726-4.306.749-1.555,4.924-3.075,12.528-4.267,16.943-2.648,44.509-2.648,61.562,0C467.195,651.56,471.44,653.1,472.2,654.668Z" transform="translate(-371.22 -645.171)"/><path class="d" d="M435.612,650.378l4.868-.76v-.59c-.919.053-1.835.109-2.754.163l-5.027.785q-2.126-.27-4.514-.435t-4.811-.184c-1.616-.018-3.192.021-4.744.11s-2.984.233-4.32.442a9.1,9.1,0,0,0-2.733.71c-.435.255-.509.534-.233.834a7.877,7.877,0,0,0,2.238,1.255l.336.152-13.638,2.131q-2.932-.493-3.319-.937-.371-.45,1.7-.972v-.59l-2.648.177-5.79.318v.591c.9.279,2,.59,3.355.9q2.174.488,4.468.866-2.418.08-4.843.166v.59c.923.142,1.842.286,2.761.428l4.9-.767a75.506,75.506,0,0,0,9.824.686,57.4,57.4,0,0,0,9.035-.661,10.442,10.442,0,0,0,3.047-.781q.727-.419.272-.926a8.423,8.423,0,0,0-2.407-1.357l12.666-1.976c1.948.152,2.9.544,2.623.8a3.839,3.839,0,0,1-1.4.311v.59c.873.138,1.75.272,2.626.41l5.684-.891v-.59c-.859-.035-1.937-.1-3.111-.237A27.731,27.731,0,0,1,435.612,650.378Zm-18.93,4.122a5.309,5.309,0,0,1-2.605.788,37.2,37.2,0,0,1-5.387.428,40.733,40.733,0,0,1-5.568-.311l12.532-1.958C416.558,653.859,416.9,654.213,416.682,654.5Zm2.248-2.372c-.947-.414-1.34-.756-1.188-1.025s.94-.516,2.361-.735a33.216,33.216,0,0,1,4.96-.343,44.088,44.088,0,0,1,5.4.3Z" transform="translate(-358.956 -643.522)"/><path class="f" d="M435.612,650.094l4.868-.76-2.754-.428-5.027.785q-2.126-.27-4.514-.435t-4.811-.184c-1.616-.014-3.192.021-4.744.11s-2.984.233-4.32.442a9.229,9.229,0,0,0-2.733.707c-.435.258-.509.537-.233.838a7.819,7.819,0,0,0,2.234,1.255l.343.152-13.642,2.132q-2.932-.488-3.319-.937c-.251-.3.318-.626,1.7-.972l-2.648-.414-5.79.908q1.2.4,3.355.9,2.174.488,4.468.866l-4.843.757,2.761.428,4.9-.767a74.869,74.869,0,0,0,9.824.686,57.427,57.427,0,0,0,9.035-.661,10.439,10.439,0,0,0,3.047-.781q.727-.419.272-.926a8.426,8.426,0,0,0-2.407-1.357l12.666-1.98c1.559.258,2.429.527,2.623.806s-.279.58-1.4.9l2.626.41,5.684-.891A47.708,47.708,0,0,0,435.612,650.094Zm-18.93,4.122a5.309,5.309,0,0,1-2.605.788,37.727,37.727,0,0,1-5.387.428,40.7,40.7,0,0,1-5.568-.311l12.532-1.959Q417.011,653.788,416.682,654.216Zm2.248-2.372c-.947-.414-1.34-.756-1.188-1.025s.94-.516,2.361-.735a33.208,33.208,0,0,1,4.96-.343,44.791,44.791,0,0,1,5.4.3Z" transform="translate(-358.956 -643.828)"/></g></g><g transform="translate(14.734)"><path class="g" d="M392.586,635.591c.937-.962,1.771-2.047,1.453-2.676-.241-.477-.969-.346-1.195-.763-.41-.753,1.23-2.584,3.065-4.069a20.525,20.525,0,0,1,10.693-4.221c2.853-.272,7.4-.711,10.753,2.121a7.483,7.483,0,0,1,2.662,5.161,6.361,6.361,0,0,1-.951,3.669c-1.41,2.153-3.454,1.895-7.653,3.493-5.734,2.177-6.844,3.592-9.983,4-.251.032-3.966-2.238-3.966-2.238Z" transform="translate(-311.663 -593.526)"/><path class="h" d="M393.7,630.776s-.707-1.107.979-2.588,10.329-2.517,12.818-2.994,5.253-1.142,5.822.467a2.138,2.138,0,0,1-1.881,2.807,55.769,55.769,0,0,0-6.1,2.057C405.184,630.592,393.7,630.776,393.7,630.776Z" transform="translate(-309.224 -591.034)"/><path class="i" d="M410.2,635.824c-1.909,10.442-6.356,17.12-9.944,16.876-2.987-.2-6.437-5.274-6.914-10.149a12.625,12.625,0,0,1,.265-4.058q1.3-.78,2.616-1.555a7.536,7.536,0,0,0,.251-2.662c-.064-.654-.152-.809-1.269-3.857-.233-.636-.506-1.4-.827-2.319-.113-.321-.219-.65-.332-.972-.134-.407-.272-.81-.413-1.216.725-.36,1.446-.725,2.17-1.085,1.4-.7,2.793-1.4,4.2-2.1.633-.315,1.259-.629,1.891-.944.329,1.014.668,2.057,1.032,3.107.184.523.371,1.057.562,1.591.134.375.269.753.41,1.131.937,2.549,1.912,4.96,2.892,7.24Q408.489,635.34,410.2,635.824Z" transform="translate(-309.909 -598.288)"/><path class="j" d="M402.89,625.437c.032.187.039.332.042.368.057,1.036,1.308,3.252,1.319,4.041.007.862-1.446,2.121-8.328,3.754-.064-.654-.152-.809-1.269-3.857-.233-.636-.506-1.4-.827-2.319-.113-.321-.219-.651-.332-.972l1.757-2.3c1.4-.7,2.793-1.4,4.2-2.1a6.788,6.788,0,0,1,2.923,2.163A3.109,3.109,0,0,1,402.89,625.437Z" transform="translate(-309.361 -597.611)"/><path class="i" d="M404.73,617.639c4.132,1.435,5.674,5.5,6.183,6.844.29.763.753,2.2.764,7.427,0,2.121-.064,4.984-.375,8.406a2.064,2.064,0,0,1-1.739,1.842,15.531,15.531,0,0,1-13.946-4.44c-.346-.375-4.5-5.016-3.793-11.27a9.809,9.809,0,0,1,12.906-8.809Z" transform="translate(-313.8 -610.04)"/><path class="k" d="M396.294,620.7a8.888,8.888,0,0,1,.3,4.4,8.366,8.366,0,0,1-.329,1.2,1.865,1.865,0,0,0,1.188-.884c.237-.5.064-1-.258-1.958C397.011,622.9,396.7,621.965,396.294,620.7Z" transform="translate(-302.327 -601.036)"/><g transform="translate(84.59 16.951)"><g transform="translate(2.548 0.792)"><path class="l" d="M394.44,623.537a2.671,2.671,0,1,0,2.149-3.294A2.785,2.785,0,0,0,394.44,623.537Z" transform="translate(-394.211 -620.023)"/><path class="m" d="M394.39,623.7a2.856,2.856,0,1,1,3.316,2.573A2.974,2.974,0,0,1,394.39,623.7Zm.368-.06a2.487,2.487,0,1,0,1.994-3.083A2.6,2.6,0,0,0,394.757,623.639Z" transform="translate(-394.344 -620.156)"/></g><g transform="translate(9.404)"><path class="l" d="M396.38,623.089a2.336,2.336,0,1,0,1.821-3.079A2.55,2.55,0,0,0,396.38,623.089Z" transform="translate(-396.153 -619.8)"/><path class="m" d="M396.331,623.249a2.518,2.518,0,1,1,2.931,2.474A2.729,2.729,0,0,1,396.331,623.249Zm.364-.06a2.153,2.153,0,1,0,1.669-2.863A2.36,2.36,0,0,0,396.695,623.189Z" transform="translate(-396.284 -619.932)"/></g><g transform="translate(7.903 2.839)"><path class="m" d="M397.581,621.856l.308-.2c-.148-.255-.569-.894-1.025-.916-.346-.018-.665.283-1,.951l.332.166c.346-.689.573-.753.65-.746C397.047,621.114,397.365,621.492,397.581,621.856Z" transform="translate(-395.859 -620.735)"/></g><g transform="translate(0 4.35)"><rect class="m" width="2.824" height="0.371" transform="translate(0 0.358) rotate(-7.274)"/></g></g><path class="m" d="M389.44,672.009q-.578,1.363-1.149,2.718a41.18,41.18,0,0,1-4.959,1.51c-6.292,1.492-9.5.679-11.782,2.991a7.066,7.066,0,0,0-1.856,4.475q12.461-.312,24.925-.629l1.343-2.28q.716,1.1,1.425,2.209c1.163-.162,2.322-.329,3.485-.491a25.723,25.723,0,0,0-2.545-12.447Z" transform="translate(-369.694 -475.894)"/><path class="m" d="M396.418,671.772q-.763,2.026-1.534,4.051a3.764,3.764,0,0,1-.848,1.237c-1.7,1.626-3.9.421-7.024,1.449a6.906,6.906,0,0,0-4.037,2.9,6.741,6.741,0,0,0-.18,5.348,71.564,71.564,0,0,0,11.966-1.089c2.432-.431,4.687-.961,6.752-1.538l1.5-1.453.272,1.177q2.4-.159,4.808-.322a24.242,24.242,0,0,0-.467-6.257,24.623,24.623,0,0,0-2.163-6.179Q400.937,671.439,396.418,671.772Z" transform="translate(-337.698 -473.27)"/><path class="m" d="M439.057,644.118c-8.848,4.8-16.3,8.216-21.627,10.506,0,0-21.16,6.957-31.822,18.569-.4.435-.721.8-.933,1.046a5.415,5.415,0,0,0-.693,1.817c-.23,1.315-4.1,27.378-9.357,63.06q6.554-.34,13.111-.672c7.575-27.2,13.178-47.058,13.61-48.316a4.271,4.271,0,0,1,1.184-1.789,5.537,5.537,0,0,1,.548-.346c.166-.092.29-.145.3-.152.279-.127,20.7-11.2,70.254-38.114Z" transform="translate(-357.194 -541.669)"/><path class="i" d="M393.442,644.722a7.313,7.313,0,0,0,1.7,2.117c.7.343,5.207,3.129,5.207,3.129l.749,5.766-1.4.184-4,1.138a9.2,9.2,0,0,0-6.5-6l.552-5.85Z" transform="translate(-320.264 -540.138)"/><path class="n" d="M396.646,628.121s-5.511,10.538-5.978,18.894-2.093,25.774-1.831,26.8,1.149,15.9,1.149,15.9l5.317-1.227a139.067,139.067,0,0,0,11.74-37.859Q401.846,639.38,396.646,628.121Z" transform="translate(-321.238 -582.221)"/><path class="o" d="M428.737,691.7a11.609,11.609,0,0,0,6.222-.626,12.251,12.251,0,0,0,2.107-1.138c2.075-1.442,5.716-7.993,3.627-21.475-1.824-11.764-5.85-14.882-8.477-29.86-.509-2.9-.8-5.3-.961-6.854A12.034,12.034,0,0,0,427.2,629.5c-.17-.053-.329-.092-.481-.135-.322-.077-.689-.148-1.131-.254a16.034,16.034,0,0,1-2.3-.732c-.445-.184-.548-.247-1.623-.707-.979-.424-2.089-.887-2.584-1.082a19.5,19.5,0,0,0-4.574-1.114,8.341,8.341,0,0,1,.608,4.023,8.476,8.476,0,0,1-.459,2c-1.205,3.4-5.893,10.386-6.321,11.019a41.271,41.271,0,0,1-5.073-9.933c-.481-1.372-.855-2.687-1.156-3.927-.428.194-.862.413-1.3.643-.509.262-1,.53-1.467.809a32.894,32.894,0,0,0-3.592,2.4,32.475,32.475,0,0,0-2.7,2.3c-3.39,7.18-3.164,12.3-2.192,15.766,2.9,10.333,14.967,15.02,13.55,23.762-.159.979-.279.682-.81,2.733A36.575,36.575,0,0,0,403,692.474a17.134,17.134,0,0,0,2.817,1.722C415.064,698.671,425.729,693.333,428.737,691.7Z" transform="translate(-317.64 -588.918)"/><path class="p" d="M434.687,644.778a52.854,52.854,0,0,0-11.015,3.4s-9.431,4.213-22.709,18.371c-1.3,1.389-2.333,2.7-2.333,2.7-.654.809-1.4,1.813-2.241,3.093a23.225,23.225,0,0,0-2.655,3.694,14.7,14.7,0,0,0-1.053,2.923c-.686,2.835-4.033,28.846-8.307,64.273q8.431-.138,16.862-.272,4.56-28.209,9.117-56.422a44.441,44.441,0,0,1,12.641-9.12c10.375-4.946,16.229-1.142,23.932-6.529,1.205-.841,8.251-5.949,9.382-14.956a21.36,21.36,0,0,0-2.581-12.783A72.5,72.5,0,0,0,434.687,644.778Z" transform="translate(-332.481 -544.333)"/><path class="q" d="M429.34,663.831l19.5-13.224L414.6,645.056l-33.339,7.466Z" transform="translate(-340.369 -539.29)"/><path class="r" d="M433.986,681.619l.59-.4q-3.473-16.321-6.953-32.642L380.247,638.04l-.817.378Q406.706,660.015,433.986,681.619Z" transform="translate(-345.014 -557.076)"/><path class="r" d="M433.986,681.348,427.029,648.8q-23.8-5.329-47.6-10.655,3.24,15.944,6.476,31.889Z" transform="translate(-345.014 -556.805)"/><path class="q" d="M448.8,647.281l.032-.654-19.5,13.224L381.262,648.54l.049,1.166,47.97,11.361Z" transform="translate(-340.369 -535.309)"/><path class="h" d="M397,631.085l-5.207-1.891a32.92,32.92,0,0,1,3.592-2.4,3.45,3.45,0,0,1,.212.559,8.123,8.123,0,0,1,.11,2.015A2.576,2.576,0,0,0,397,631.085Z" transform="translate(-313.679 -585.595)"/><path class="h" d="M406.042,626.9a8.824,8.824,0,0,1-2.966,2.743,17.556,17.556,0,0,1-4.5,1.506h0a16.284,16.284,0,0,0,2.284-.912,8.7,8.7,0,0,0,1.707-.986,5.869,5.869,0,0,0,1.863-2.74Z" transform="translate(-296.479 -586.312)"/><path class="s" d="M415.62,620.628a5.7,5.7,0,0,1,.039,4.839,3.44,3.44,0,0,1,1.594,2.2,3.686,3.686,0,0,1-2.372,3.853c-1.135-1.722-2.075-2.072-2.715-2.082-1.255-.025-1.524,1.248-3.266,1.619-1.492.318-1.813-.505-3.715-.149a3.549,3.549,0,0,0-2.368,1.241,3.057,3.057,0,0,0-.474,1.541,20.373,20.373,0,0,0-.032,4.168l-.583-.389c-.039-1.7-1.163-2.778-2.04-2.708a2.139,2.139,0,0,0-1.517,2.361c.117.608.541.569,1.258,1.736.541.877.552,1.3,1,1.52a1.864,1.864,0,0,0,1.587-.2,5.687,5.687,0,0,1,.081,1.983c-.025.177-.056.332-.35,1.548-.12.491-.219.9-.286,1.181a8.043,8.043,0,0,1-1.209-.474,9.048,9.048,0,0,1-1.424-.912,10.711,10.711,0,0,1-2.871-4.924,4.307,4.307,0,0,1-3.8-2.577,4.5,4.5,0,0,1,.371-3.984,4.3,4.3,0,0,1-2.164-3.751,4.191,4.191,0,0,1,1.191-2.736,4.454,4.454,0,0,1,.59-4.79,4.639,4.639,0,0,1,3.864-1.467,5.915,5.915,0,0,1,2.764-3.058,6.185,6.185,0,0,1,5.31.035,5.235,5.235,0,0,1,7.745,1.478A5.677,5.677,0,0,1,415.62,620.628Z" transform="translate(-317.295 -615.136)"/><path class="t" d="M417.848,633.141l4.5-6.1,2.026-3a2.466,2.466,0,0,1,.544.817,3.639,3.639,0,0,1-.138,2.358c-.166.657-.4,1.647-.657,2.92q2.185,1.183,4.366,2.368a4.051,4.051,0,0,1,.251,1.842c-.085.809-.364.909-.661,1.976-.417,1.506-.035,1.969-.58,2.552a4.7,4.7,0,0,1-1.375.859h0c-.389.353-.781.707-1.17,1.06a5.127,5.127,0,0,1-1.672.2c-1.633-.085-2.429-.962-3.436-1.262-.961-.29-2.51-.173-5.005,1.87l-2.185-4.447Z" transform="translate(-260.779 -592.561)"/><path class="u" d="M422.169,627.322a.846.846,0,0,0-.325-.439,3.094,3.094,0,0,0-2.192-.519c-.527.088-1.651.431-1.771,1.121-.1.551.552.781.407,1.272s-.912.594-1.3,1.372a3.972,3.972,0,0,1,.011,1.573,1.012,1.012,0,0,1-.286.442c-.3.262-.587.138-.887.265a1.662,1.662,0,0,0-.523,2.185.957.957,0,0,0,.576.343,8.592,8.592,0,0,0,3.662,0,3.977,3.977,0,0,0,1.676-1.421c.414-.651.184-.785.647-2.616a7.172,7.172,0,0,0,.5-2.665A4.143,4.143,0,0,0,422.169,627.322Z" transform="translate(-254.646 -586.767)"/><path class="n" d="M402.537,626.849l25.742,5.483q7.821-1.787,15.639-3.581,1.58,4.364,3.153,8.731a92.07,92.07,0,0,1-18.4,6.373c-.937.216-4.634.781-12.037,1.905-8.113,1.23-10.3,1.46-12.284.007-2.34-1.718-2.877-4.68-3.33-7.158A20.367,20.367,0,0,1,402.537,626.849Z" transform="translate(-291.04 -585.445)"/><rect class="m" width="1.417" height="2.653" rx="0.171" transform="translate(89.973 19.207) rotate(-7.511)"/><rect class="m" width="1.416" height="2.653" rx="0.171" transform="translate(95.663 18.546) rotate(-7.511)"/><path class="m" d="M394.982,620.7a7.1,7.1,0,0,1,2.764-.314.29.29,0,1,0-.064-.576,7.059,7.059,0,0,0-1.382.021,7.377,7.377,0,0,0-1.386.29.292.292,0,0,0,.067.58Z" transform="translate(-306.409 -603.349)"/><path class="m" d="M396.829,620.487a6.981,6.981,0,0,1,1.393-.3,6.645,6.645,0,0,1,1.372-.014.3.3,0,0,0,.258-.321.291.291,0,0,0-.322-.258,7.072,7.072,0,0,0-1.382.021,7.374,7.374,0,0,0-1.386.29.294.294,0,0,0-.254.322A.288.288,0,0,0,396.829,620.487Z" transform="translate(-301.727 -603.892)"/><path class="m" d="M397.589,624.1a1.8,1.8,0,0,1-.94-.163,1.972,1.972,0,0,1-.774-.59.171.171,0,0,1,.269-.212,1.584,1.584,0,0,0,.636.488,1.278,1.278,0,0,0,1.1.028,1.119,1.119,0,0,0,.495-.6.17.17,0,0,1,.219-.1.166.166,0,0,1,.1.216,1.466,1.466,0,0,1-.654.781A1.358,1.358,0,0,1,397.589,624.1Z" transform="translate(-303.418 -595.337)"/></g></svg>