<svg xmlns="http://www.w3.org/2000/svg" xmlns:xlink="http://www.w3.org/1999/xlink" width="411.366" height="489.449" viewBox="0 0 411.366 489.449"><defs><style>.a{fill:#fbc02d;}.b{fill:#f9a825;}.c{opacity:0.5;fill:url(#a);}.ad,.c{mix-blend-mode:multiply;isolation:isolate;}.d{fill:#00695c;}.e{fill:#00796b;}.f{fill:#26a69a;}.g{fill:#9e9d24;}.h{fill:#d4e157;}.i{fill:#827717;}.j{fill:#c0ca33;}.k{fill:#689f38;}.l{fill:#33691e;}.m{fill:#ffccbc;}.n{fill:url(#b);}.o{fill:#f5f5f5;}.p{fill:url(#c);}.q{fill:url(#d);}.r{fill:#e65100;}.s{fill:url(#e);}.t{fill:#212121;}.u{fill:url(#f);}.v{fill:url(#g);}.w{fill:#bf360c;}.x{fill:#f4511e;}.y{fill:#fff;}.z{fill:url(#h);}.aa{fill:url(#i);}.ab{fill:url(#j);}.ac{fill:#7cb342;}.ad{fill:#c5e1a5;}.ae{fill:#ffab91;}.af{fill:#e57373;}.ag{fill:url(#k);}</style><linearGradient id="a" x1="0.501" y1="0.671" x2="0.424" y2="-2.394" gradientUnits="objectBoundingBox"><stop offset="0" stop-color="#fff"/><stop offset="0.992" stop-color="#ff6f00"/></linearGradient><linearGradient id="b" y1="0.5" x2="1" y2="0.5" gradientUnits="objectBoundingBox"><stop offset="0" stop-color="#fff"/><stop offset="1" stop-color="#e3f2fd"/></linearGradient><linearGradient id="c" x1="0" y1="0.5" x2="1" y2="0.5" xlink:href="#b"/><linearGradient id="d" x1="0.423" y1="-0.067" x2="0.876" y2="1.021" xlink:href="#b"/><linearGradient id="e" x1="14.889" y1="12.567" x2="13.918" y2="11.696" gradientUnits="objectBoundingBox"><stop offset="0" stop-color="#ffab91"/><stop offset="1" stop-color="#ffccbc"/></linearGradient><linearGradient id="f" x1="-10.614" y1="-0.102" x2="-9.47" y2="1.44" xlink:href="#e"/><linearGradient id="g" x1="-58.665" y1="-2.843" x2="-59.613" y2="-5.396" gradientUnits="objectBoundingBox"><stop offset="0" stop-color="#e53935"/><stop offset="1" stop-color="#ff8a65"/></linearGradient><linearGradient id="h" x1="-25.474" y1="-5.213" x2="-26.77" y2="-5.861" xlink:href="#g"/><linearGradient id="i" x1="-12.025" y1="2.14" x2="-12.096" y2="0.797" xlink:href="#g"/><linearGradient id="j" x1="-26.521" y1="2.613" x2="-26.783" y2="1.69" xlink:href="#e"/><linearGradient id="k" x1="2.897" y1="2.055" x2="3.827" y2="2.055" xlink:href="#e"/></defs><g transform="translate(0 130.663)"><path class="a" d="M584.21,596.9c-4.794-5.97-23.9-4.857-34.473-2.644-29.754,6.215-41.486,31.514-43.933,37.2,13.486-.633,60.862-3.7,75.6-22.843C583.093,606.415,587.388,600.844,584.21,596.9Zm-20.973,13.412c-2.234,5.232-11.786,7.565-18.866,9.057a114.723,114.723,0,0,1-15.783,2.061c-1.266.085-2.217-.778-1.8-1.616a34.38,34.38,0,0,1,4.96-7.31,26.593,26.593,0,0,1,15.876-9.269c4.836-.806,12.659-.711,15.246,2.4A4.454,4.454,0,0,1,563.237,610.307Z" transform="translate(-334.715 -592.477)"/><path class="b" d="M524.369,609.964c0,6.586-4.436,11.927-9.908,11.927s-9.909-5.341-9.909-11.927,4.436-11.93,9.909-11.93S524.369,603.375,524.369,609.964Z" transform="translate(-337.888 -578.393)"/><path class="a" d="M490.359,608.476c14.737,16.738,62.11,19.418,75.6,19.969a60.429,60.429,0,0,0-43.929-32.525c-10.573-1.933-29.68-2.909-34.473,2.312C484.374,601.685,488.669,606.553,490.359,608.476Zm18.53-2.609c2.588-2.718,10.407-2.8,15.246-2.1a27.437,27.437,0,0,1,15.875,8.1,30.164,30.164,0,0,1,4.956,6.391c.424.732-.527,1.488-1.8,1.414a130.458,130.458,0,0,1-15.78-1.8c-7.084-1.3-16.632-3.344-18.866-7.915A3.488,3.488,0,0,1,508.889,605.867Z" transform="translate(-383.875 -587.683)"/><path class="b" d="M491.726,634.22c-.986-.364-9.955-3.853-12.178-13.754-.233-1.029-1.743-7.756,1.1-11.655,3.047-4.171,12.39-2.089,14.126-1.686,13.489,3.135,44.47,8.339,87.194,15.221,7.94-2.545,115.3-36.63,123.346-23.14,1.311,2.2,5.136,15.307,4.21,20.308h0a20.185,20.185,0,0,1-4.889,7.2C701.955,629.25,612.145,632.36,491.726,634.22Z" transform="translate(-402.814 -583.398)"/><path class="c" d="M806.9,771.572l61.873-4.465-68.359-83.429L527.076,663.362l-69.671,36.644,52.583,71.566Z" transform="translate(-457.405 -412.785)"/><rect class="d" width="139.611" height="173.196" transform="translate(203.395 97.698)"/><rect class="e" width="183.755" height="173.196" transform="translate(19.641 97.698)"/><rect class="e" width="139.611" height="58.749" transform="translate(203.395 38.949)"/><rect class="f" width="183.755" height="58.749" transform="translate(19.641 38.949)"/><rect class="a" width="24.714" height="231.945" transform="translate(88.912 38.949)"/><rect class="b" width="15.227" height="231.945" transform="translate(269.333 38.949)"/></g><g transform="translate(0 249.447)"><rect class="g" width="109.286" height="125.773" transform="translate(143.841 42.663)"/><rect class="h" width="143.841" height="125.773" transform="translate(0 42.663)"/><rect class="i" width="109.286" height="42.663" transform="translate(143.841)"/><rect class="j" width="143.841" height="42.663"/><rect class="k" width="19.346" height="168.436" transform="translate(54.225)"/><rect class="l" width="11.92" height="168.436" transform="translate(195.457)"/></g><g transform="translate(43.772 14.894)"><path class="m" d="M479.557,620.622q.042,6.962.088,13.924l4.1-.863q1.023-6.13,2.05-12.266Z" transform="translate(-445.023 -405.362)"/><path class="n" d="M488.083,624.907l-.739,1.63-10.152,3.344-1.212,1.824h15.059l.93-2.807.742,2.807c.7-.081,1.41-.166,2.114-.244a15.734,15.734,0,0,0-1.347-7.6Q490.778,624.386,488.083,624.907Z" transform="translate(-454.093 -397.151)"/><path class="o" d="M488.111,711.676q3-26.428,6-52.852l10.619-61.346q-.779-2.2-1.566-4.4c-.7-.654-1.453-1.311-2.28-1.951a33.665,33.665,0,0,0-12.92-6.08,385.736,385.736,0,0,0-6.614,126.627Z" transform="translate(-446.722 -495.539)"/><path class="m" d="M487.3,621.7q1.4,5.817,2.8,11.63l3.588-.693.078-11.828Z" transform="translate(-425.402 -404.891)"/><path class="p" d="M496.267,624.905c-.241.538-.484,1.071-.725,1.605l-9.983,3.287-1.191,1.792h14.8l.916-2.757.732,2.757c.689-.081,1.382-.159,2.075-.24a15.375,15.375,0,0,0-1.322-7.469Q498.916,624.394,496.267,624.905Z" transform="translate(-432.827 -397.103)"/><path class="q" d="M501.864,714.112h6.982A545.128,545.128,0,0,1,506,657.768c.032-10.934-2.061-22.058.049-32.8,1.506-7.667,4.953-19.252-.76-30.327-.516-.993-1-1.781-1.319-2.284l-.417-8.007a77.965,77.965,0,0,1-22.1,2.46c1.4,20.687,3.843,43.18,7.795,67.144C492.811,675.591,497.159,695.687,501.864,714.112Z" transform="translate(-440.216 -497.303)"/><path class="r" d="M507.4,596.545c-3.892-15.133,4.055-22.67-2.128-29.764a17.177,17.177,0,0,0-14.193-5.334,16.156,16.156,0,0,0-6.929,2.478,11.177,11.177,0,0,0-2.128,1.739c-.223.233-.392.491-.59.735l1.718,38.7c.9,4.429,2.054,8.346,4.949,9.679,4.412,2.033,10.746-2.913,14.2-.131a11.353,11.353,0,0,0,2.69,1.824c2.209,1.043,3.429.665,3.9,1.3.611.813-.163,3.093-5.7,9.276,4.4-1.64,9.7-4.472,11.273-9.456C516.505,611.151,510.262,607.68,507.4,596.545Z" transform="translate(-440.272 -555.598)"/><path class="m" d="M507.6,612.15q-12.174,2.142-24.328,4.263a17.324,17.324,0,0,1-2.651-6.214c-1.145-5.31.8-8.572,1.078-8.852.145-.156.3-.308.3-.308.205-.166.41-.34.608-.52,3.637-3.319,4.843-8.074,5.182-11.976A7.912,7.912,0,0,0,494.4,583.1c-.085-1.845-.141-2.8-.184-3.312-.014-.187-.014-.838-.085-1.7a1.26,1.26,0,0,0,0-.166c-.276-3.383-1.085-5.3-1.5-8.5-.085-.636-.148-1.315-.187-2.061-.039-.573-.049-1.032-.064-1.3a20,20,0,0,0,5.843,1.866c.491.067.972.117,1.439.167.18,0,.339.014.488.021.1,0,.187.018.293.021.014,0,.046-.007.074,0a21.625,21.625,0,0,0,2.623-.078,25.515,25.515,0,0,0-.611,2.492,26.234,26.234,0,0,0-.4,2.958c0,.075-.011.131-.007.205s-.007.134-.017.191a.957.957,0,0,0-.014.177c-.018.367-.032.721-.028,1.06l-.014.251c-.117,2.485-.113,4.931-.007,7.339q2.354,2.869,4.709,5.744a24.323,24.323,0,0,1,3.309,9.336A24.865,24.865,0,0,1,507.6,612.15Z" transform="translate(-443.247 -543.691)"/><path class="s" d="M493.312,572.994A10.01,10.01,0,0,1,491,576.437a11.018,11.018,0,0,1-2.291,1.647,9.9,9.9,0,0,1-3.3.99c-.018-.686-.053-1.269-.085-1.7a1.261,1.261,0,0,0,0-.166c-.276-3.383-1.085-5.3-1.5-8.5-.032-.509-.085-1.347-.092-2.372a6.891,6.891,0,0,0,3.22,1.5,7,7,0,0,0,3.9-.459c.226-.11.421-.195.583-.286a6.047,6.047,0,0,0,.608-.361c-.078.106-.159.24-.24.375a2.211,2.211,0,0,0-.17.315c-.067.124-.756,1.414-.456,2.015.24.5,1.287.735,2.542.4.141-.035.3-.085.438-.135A13.414,13.414,0,0,1,493.312,572.994Z" transform="translate(-434.439 -542.981)"/><path class="m" d="M487.444,563.116a10.084,10.084,0,0,0-5.366,7.809c-.021.428-.021,1.414-.106,3.545-.092,2.259-.145,2.436-.152,3.107-.018.944-.088,5.614,3.019,8.975a4.762,4.762,0,0,0,2.019,1.587c2.74.905,5.956-1.951,8.13-3.956a15.194,15.194,0,0,0,2.291-2.665l.8-1.435a3.462,3.462,0,0,0,1.884-.382c2.549-1.4,2.563-6.37,1.831-9.34l-.007-.028a10.079,10.079,0,0,0-14.338-7.218Z" transform="translate(-439.296 -553.638)"/><path class="t" d="M485.408,565.894a7.883,7.883,0,0,0-1.573-.205,7.7,7.7,0,0,0-1.523.106.331.331,0,0,1-.315-.336.327.327,0,0,1,.336-.315,8.207,8.207,0,0,1,1.534-.1,8.492,8.492,0,0,1,1.563.2.326.326,0,0,1,.311.336A.321.321,0,0,1,485.408,565.894Z" transform="translate(-438.84 -546.256)"/><path class="r" d="M507.324,583.2a33.824,33.824,0,0,1-.35-7.911q-1.262-3.622-2.524-7.236a14.915,14.915,0,0,0-2.255-2.679,14.541,14.541,0,0,0-6.678-3.623c-3.563-.742-9.035-.056-12.365,4.306a12.162,12.162,0,0,0-1.205,12.528,11.007,11.007,0,0,1,4.4-4.246,4.776,4.776,0,0,0,1.032-.46c2.3-1.145,3.068-1.63,4.514-1.916a6.452,6.452,0,0,1,3.238-.11c2.337.7,4.1,3.242,4.981,6.681a18.971,18.971,0,0,0,5.172,10.145,3.088,3.088,0,0,0,1.672-.933C508,586.538,507.574,584.685,507.324,583.2Z" transform="translate(-441.992 -555.256)"/><path class="u" d="M488.549,567.058a23.606,23.606,0,0,1-1.6,7.65c-.29.735-.6,1.417-.926,2.05a9.007,9.007,0,0,1-1.432,2.375c-.371.442-.7.7-.746.781-1.152,2.252.11,11.107.7,15.667a45.683,45.683,0,0,1,.3,8.558A37.054,37.054,0,0,1,493,591.234l8.307,12.468q-5.705,4.613-11.457,9.375-2.365,1.957-4.7,3.906a4.321,4.321,0,0,1-6.253-.76,19.846,19.846,0,0,1-3.125-6.215,12.559,12.559,0,0,1-.424-1.926,33.066,33.066,0,0,1,1.255-13.235,47.354,47.354,0,0,0,1.591-17.463,9.193,9.193,0,0,0,1.637-2.4,10.526,10.526,0,0,0,.18-7.812q2.8,1.909,5.6,3.814a5.224,5.224,0,0,1,1.686-3.16A4.709,4.709,0,0,1,488.549,567.058Z" transform="translate(-456.249 -541.146)"/><path class="v" d="M0,0H3.895a.844.844,0,0,1,.844.844V6.152A.844.844,0,0,1,3.9,7H0A0,0,0,0,1,0,7V0A0,0,0,0,1,0,0Z" transform="translate(35.578 15.176) rotate(11.183)"/><path class="w" d="M482.584,566.357a23.926,23.926,0,0,1-7.3,11.892l.159,1.343s8.092-4.076,8.127-4.26.711-8.83.711-8.83Z" transform="translate(-455.855 -542.923)"/><path class="w" d="M477.636,566.327l-1.016,3.321.663.452,2.013-3.446Z" transform="translate(-452.468 -543)"/><path class="x" d="M478.2,566.274c-.042.106-1.4,3.959-1.4,3.959l1.813.774,2.1-4.1Z" transform="translate(-451.991 -543.133)"/><path class="x" d="M483.774,566.242a21.261,21.261,0,0,1-4.6,10.107,20.541,20.541,0,0,1-3.843,3.535l6.338.9a14.5,14.5,0,0,0,1.785-1.813,16.194,16.194,0,0,0,2.372-3.987,39.02,39.02,0,0,0,2.372-7.438Q485.985,566.9,483.774,566.242Z" transform="translate(-455.74 -543.214)"/><path class="y" d="M490.53,572.05c-.629,3.174-1.863,5.72-3.008,6.413a1.26,1.26,0,0,1-.474.177,2.413,2.413,0,0,1-.286.011l-10.481-2.072,2.793-14.14,10.485,2.072s.177.074.258.12a1.227,1.227,0,0,1,.375.347C490.982,566.051,491.155,568.875,490.53,572.05Z" transform="translate(-453.33 -552.857)"/><path class="y" d="M479.114,573.451c-1.142,5.78-3.394,10.418-5.479,11.676a2.2,2.2,0,0,1-.863.325,1.552,1.552,0,0,1-.513-.01c-2.386-.474-3.181-6.607-1.782-13.7s4.472-12.461,6.858-11.987a1.494,1.494,0,0,1,.481.184,2.208,2.208,0,0,1,.675.629C479.938,562.528,480.256,567.672,479.114,573.451Z" transform="translate(-469.788 -559.728)"/><path class="z" d="M471.537,562.907h0c-.279-.057-.636.569-.8,1.393s-.071,1.538.209,1.594h0l9.354,3,1.032-5.207Z" transform="translate(-467.583 -551.679)"/><path class="aa" d="M492.256,575.5c-.774,3.928-2.365,6.922-3.549,6.688-.078-.018-.445-.074-.76-.138-.152-.028-7.257-1.184-10.686-.254l-5.889,1.594c1.7-1.82,3.468-6.045,4.472-11.132s.986-9.664.1-12l4.836,3.715a18.465,18.465,0,0,0,7.667,3.492c.64.124,2.952.477,3.068.5C492.7,568.2,493.033,571.57,492.256,575.5Z" transform="translate(-465.774 -558.384)"/><path class="w" d="M477.349,573.042c-1,5.091-2.871,9.294-4.723,11.086l-1.75.4c2.086-1.258,4.337-5.9,5.479-11.676s.824-10.923-.622-12.881L477.2,561C478.232,563.363,478.356,567.955,477.349,573.042Z" transform="translate(-467.029 -559.124)"/><path class="w" d="M471.564,564.271a1.832,1.832,0,0,1-.513,1.092.214.214,0,0,1-.081.032.111.111,0,0,1-.049,0c-.223-.046-.3-.619-.166-1.283s.421-1.17.643-1.124l.046.014a.246.246,0,0,1,.06.06A1.837,1.837,0,0,1,471.564,564.271Z" transform="translate(-467.501 -551.471)"/><path class="ab" d="M475.958,570.083a7.674,7.674,0,0,1,4.811-3.344,6.626,6.626,0,0,1,2.192-.021,2.063,2.063,0,0,1-.513,1.043c-.813.852-2.107.484-2.436,1.131-.106.212-.127.573.262,1.216.06-.039.141-.092.24-.152.148-.092.35-.216.566-.332a3.125,3.125,0,0,1,1.156-.382c.52-.021.937.3,1.75.958a12.311,12.311,0,0,1,1.308,1.22,2.241,2.241,0,0,1-2.026.325c-.311-.169-.293-.364-.647-.534a1.829,1.829,0,0,0-2.188.618,1.1,1.1,0,0,0-.138.371,6.1,6.1,0,0,1,2.124.148,6.16,6.16,0,0,1,2.22,1.057,2.177,2.177,0,0,1-1.623.8,2.1,2.1,0,0,1-1.315-.481l-2.743,2.329a2.043,2.043,0,0,0-.2.94c.025.689.414.969.555,1.573.184.763-.092,1.789-.516,1.919-.771.233-2.552-2.294-3.21-4.878C475.191,574.056,475.958,570.083,475.958,570.083Z" transform="translate(-455.376 -542.215)"/><path class="k" d="M492.307,572.33a5.266,5.266,0,0,0-1.1.134,7,7,0,0,0-3.853,2.885c-2.443,3.227-5.865,5.585-8.668,8.5h0s8,8.4,8.123,8.668a.963.963,0,0,0,.548.583c1.435.46,4.284-4.32,5.437-6.72,1.209-2.528,2.884-7.318,1.916-14.6C493.909,571.966,493.11,572.149,492.307,572.33Z" transform="translate(-447.228 -529.163)"/><path class="ac" d="M482.439,610.752c.064.325.336,2.2.827,4.846.014.071.021.141.032.212.431,2.938.689,5.444.848,7.328a41.981,41.981,0,0,0,22.235-.725c-.071-.88-.148-2.1-.166-3.563a47.768,47.768,0,0,1,.481-7.625c.484-2.9,1-3.711,3.995-9.456a51.016,51.016,0,0,0,4.532-11.62c1.227-5.059.891-8.431.226-9.834a5.565,5.565,0,0,0-2.188-2.478c-.679-.138-1.4-.307-2.146-.519a27.585,27.585,0,0,1-4.451-1.7s-2.718-1.877-3.189-2.114-.223-2.775-.223-2.775-.371-.417-2.114-.6-7.491,1.64-8.194,1.959-.3,2.948-.3,2.948a9.544,9.544,0,0,1-3.51,1.262c-.134.018-.265.032-.4.046a2.356,2.356,0,0,0-1.774,1.159,20.911,20.911,0,0,0-1.8,4.076,36.8,36.8,0,0,1-1.69,4.4c-.753,1.584-1.152,1.98-1.676,2.984a13.575,13.575,0,0,0-1.421,6.741C481.654,605.764,482.2,609.454,482.439,610.752Z" transform="translate(-442.952 -533.388)"/><path class="ad" d="M481.2,603.775c.431,2.937.689,5.444.849,7.328a41.982,41.982,0,0,0,22.235-.725c-.071-.88-.148-2.1-.166-3.563a47.761,47.761,0,0,1,.481-7.625c.608-3.641,1.838-5.32,3.995-9.456a51.017,51.017,0,0,0,4.532-11.62l-4.041-3.248s.559,5.4-7.929,15.8C495.4,597.713,486.412,601.838,481.2,603.775Z" transform="translate(-440.855 -521.353)"/><path class="ae" d="M484.06,566.475a4.375,4.375,0,0,0-1.135,1.98,1.63,1.63,0,0,0,.011,1.333,1.575,1.575,0,0,0,1.591.488,12.321,12.321,0,0,1-.279-1.213A12.865,12.865,0,0,1,484.06,566.475Z" transform="translate(-436.838 -542.624)"/><rect class="t" width="1.527" height="2.72" rx="0.184" transform="translate(44.208 21.032) rotate(1.894)"/><rect class="t" width="1.527" height="2.72" rx="0.184" transform="matrix(0.999, 0.033, -0.033, 0.999, 50.167, 21.227)"/><path class="t" d="M487.179,565.951a7.861,7.861,0,0,0-1.573-.205,7.732,7.732,0,0,0-1.524.106.326.326,0,0,1-.311-.336.319.319,0,0,1,.332-.311,7.61,7.61,0,0,1,1.534-.1,8.154,8.154,0,0,1,1.563.2.324.324,0,1,1-.021.647Z" transform="translate(-434.34 -546.108)"/><path class="w" d="M487.806,568.191l-.014.442v.01a2.515,2.515,0,0,1-.587,1.513,2.374,2.374,0,0,1-.407.392,2.5,2.5,0,0,1-3.143-.106,2.222,2.222,0,0,1-.421-.47,2.517,2.517,0,0,1-.445-1.492v-.014l.018-.442Z" transform="translate(-436.83 -538.695)"/><path class="y" d="M487.8,568.19l-.014.44v.012l-5-.164v-.012l.014-.441Z" transform="translate(-436.829 -538.693)"/><path class="af" d="M486.885,569.143a2.373,2.373,0,0,1-.407.392,2.5,2.5,0,0,1-3.143-.106,2.222,2.222,0,0,1-.421-.47l.1-.092a1.59,1.59,0,0,1,1.163-.442l1.446.05A1.621,1.621,0,0,1,486.885,569.143Z" transform="translate(-436.51 -537.681)"/><path class="ag" d="M499.355,583.681q1.267,2.731,2.542,5.465a1.588,1.588,0,0,1-.711,2.1q-.286.138-.583.308h0a4.23,4.23,0,0,0-2.429,1.93c-.771,1.106-3.62,5.66-7.3,12l-.788,4.38-3.429,4.543a.891.891,0,0,0,.283,1.319L492.4,618.7q.753-.854,1.509-1.7-.392-3.861-.785-7.713a87.949,87.949,0,0,1,7.271-5.642c4.069-2.821,6.911-4.263,10.69-7.773.693-.643,1.294-1.241,1.8-1.76a2.437,2.437,0,0,0,.548-2.471l-5.09-15.108Q503.846,580.1,499.355,583.681Z" transform="translate(-427.491 -517.145)"/><path class="k" d="M493.512,572.3c.1.028.251.071.428.134a8.108,8.108,0,0,1,3.825,3.171c1.156,1.584,2.45,3.072,3.521,4.712,1.135,1.739,2.8,4.193,5.03,7.134a12.919,12.919,0,0,1-9.064,12.305,90.673,90.673,0,0,1-5.575-7.3c-2.135-3.118-2.556-4.157-2.782-4.811a14.167,14.167,0,0,1-.212-8.431A13.726,13.726,0,0,1,493.512,572.3Z" transform="translate(-423.26 -527.863)"/></g><path class="y" d="M491.984,571.251a.794.794,0,0,1-.421-.12l-22.695-14.147a.8.8,0,0,1,.841-1.35L492.4,569.78a.8.8,0,0,1-.421,1.471Zm-3.086,8.76a.8.8,0,0,0-.689-.887l-28.552-3.616a.795.795,0,0,0-.2,1.577l28.548,3.62.1,0A.8.8,0,0,0,488.9,580.011ZM464,596.795l24.017-5.992a.8.8,0,0,0-.385-1.545l-24.017,6a.795.795,0,0,0,.191,1.566A.738.738,0,0,0,464,596.795Z" transform="translate(-453.965 -555.514)"/></svg>