<svg xmlns="http://www.w3.org/2000/svg" width="13.96" height="16.744" viewBox="0 0 13.96 16.744"><defs><style>.a{fill:#292f33;}</style></defs><g transform="translate(-551.02 -477.299)"><path class="a" d="M554.287,483.474h.954v-2.562l1.11-3.613h-.969l-.589,2.468h-.062l-.619-2.468h-.96l1.134,3.727Z"/><path class="a" d="M556.308,482.322a1.269,1.269,0,0,0,.334.923,1.179,1.179,0,0,0,.889.344,1.219,1.219,0,0,0,.906-.333,1.241,1.241,0,0,0,.331-.919v-2.351a1.147,1.147,0,0,0-.336-.853,1.182,1.182,0,0,0-.862-.33,1.3,1.3,0,0,0-.92.314,1.088,1.088,0,0,0-.342.843Zm.871-2.4a.322.322,0,0,1,.1-.241.351.351,0,0,1,.252-.091.393.393,0,0,1,.271.091.309.309,0,0,1,.1.241v2.482a.4.4,0,0,1-.1.288.369.369,0,0,1-.274.1.326.326,0,0,1-.258-.1.421.421,0,0,1-.092-.29Z"/><path class="a" d="M560.077,483.54a1.007,1.007,0,0,0,.492-.145,1.882,1.882,0,0,0,.488-.424v.5h.847v-4.556h-.847v3.458a1.186,1.186,0,0,1-.263.245.448.448,0,0,1-.236.1.2.2,0,0,1-.172-.072.4.4,0,0,1-.053-.234v-3.493h-.847v3.808a1.023,1.023,0,0,0,.15.61A.512.512,0,0,0,560.077,483.54Z"/><path class="a" d="M559.469,488.453a.381.381,0,0,0-.177.045.619.619,0,0,0-.176.138v2.839a.727.727,0,0,0,.2.161.459.459,0,0,0,.206.049.266.266,0,0,0,.227-.1.515.515,0,0,0,.074-.314v-2.352a.566.566,0,0,0-.091-.35A.309.309,0,0,0,559.469,488.453Z"/><path class="a" d="M562.583,488.47a.333.333,0,0,0-.29.123.735.735,0,0,0-.088.411v.461h.749V489a.726.726,0,0,0-.089-.411A.321.321,0,0,0,562.583,488.47Z"/><path class="a" d="M564.886,486.729a2.006,2.006,0,0,0-2.017-1.993q-2.264-.092-4.624-.093h-.492q-2.358,0-4.625.093a2.005,2.005,0,0,0-2.015,1.993q-.1,1.308-.093,2.614t.093,2.615a2,2,0,0,0,2.015,1.992q2.382.1,4.871.093t4.87-.093a2.005,2.005,0,0,0,2.017-1.992q.1-1.308.094-2.615T564.886,486.729Zm-10.844,5.614h-.955v-5.279H552.1v-.9h2.928v.9h-.986Zm3.393,0h-.847v-.5a1.883,1.883,0,0,1-.488.424,1,1,0,0,1-.492.144.519.519,0,0,1-.443-.2,1.047,1.047,0,0,1-.148-.611v-3.808h.847v3.492a.4.4,0,0,0,.054.235.2.2,0,0,0,.172.072.466.466,0,0,0,.236-.1,1.179,1.179,0,0,0,.262-.245v-3.458h.847Zm3.259-.944a1.2,1.2,0,0,1-.2.743.684.684,0,0,1-.575.258.948.948,0,0,1-.443-.1,1.129,1.129,0,0,1-.362-.308v.351h-.855v-6.176h.855v1.988a1.314,1.314,0,0,1,.363-.316.785.785,0,0,1,.39-.11.716.716,0,0,1,.614.293,1.437,1.437,0,0,1,.211.849Zm3.131-1.227h-1.62v.859a1.014,1.014,0,0,0,.085.5.3.3,0,0,0,.285.139.333.333,0,0,0,.294-.118,1.022,1.022,0,0,0,.085-.519v-.316h.871v.341a1.54,1.54,0,0,1-.318,1.056,1.217,1.217,0,0,1-.952.353,1.128,1.128,0,0,1-.9-.375,1.526,1.526,0,0,1-.327-1.034v-2.045a1.339,1.339,0,0,1,.358-.966,1.239,1.239,0,0,1,.93-.373,1.138,1.138,0,0,1,.892.346,1.431,1.431,0,0,1,.312.993Z"/></g></svg>