<svg xmlns="http://www.w3.org/2000/svg" width="113.704" height="113.705" viewBox="0 0 113.704 113.705"><defs><style>.a{fill:#292f33;}</style></defs><g transform="translate(-688.979 -238.439)"><path class="a" d="M733,249.437c0-2.475-.011-4.766,0-7.057a3.677,3.677,0,0,1,3.939-3.936q30.884-.009,61.767,0a3.663,3.663,0,0,1,3.974,4.015q.009,23.492,0,46.984c0,2.547-1.5,4.011-4.1,4.012q-19.194.006-38.389,0h-1.521v1.385q0,22.976,0,45.953a10.914,10.914,0,0,1-8.186,10.953,12.58,12.58,0,0,1-3.167.377q-23.492.034-46.984.011a10.982,10.982,0,0,1-11.341-11.36q-.015-40.911,0-81.821a9.147,9.147,0,0,1,9.545-9.508q16.559-.018,33.118-.009Zm14.671,40.371c0,3.259-.017,6.352.017,9.445a6.185,6.185,0,0,0,.369,1.441,5.978,5.978,0,0,0,1.194-1.024q3.03-4.447,5.967-8.957a1.8,1.8,0,0,1,1.74-.945q20.339.043,40.677.02h1.286V242.178H736.742v47.63Zm-3.674,3.648c-2.322,0-4.494,0-6.667,0-2.96,0-4.335-1.381-4.336-4.357q0-11.861,0-23.722V264.17H700.052v62.217H747.6V304.5c-2.918-1.182-3.6-2.195-3.611-5.294C743.989,297.336,743.992,295.47,743.992,293.456ZM732.94,253.111h-.822q-16.9,0-33.807.006a5.486,5.486,0,0,0-5.658,5.864q-.007,40.912,0,81.825a7.322,7.322,0,0,0,7.63,7.662q23.551.015,47.1,0A7.308,7.308,0,0,0,755,340.906q.022-21.03,0-42.059c0-.265-.054-.529-.1-.994-1.083,1.621-2.074,3.026-2.97,4.488a3.606,3.606,0,0,0-.565,1.759c-.038,7.181-.024,14.363-.025,21.545,0,3.185-1.321,4.49-4.543,4.49H700.836c-3.21,0-4.524-1.31-4.524-4.513q0-30.541,0-61.082c0-2.613,1.5-4.1,4.128-4.1l31.171.005h1.328Z" transform="translate(0 0)"/><path class="a" d="M912.618,281.857v-7.265h3.618v36.522h-3.595v-3.521H875.992v3.536H872.31v-3.468c-.489-.137-.928-.226-1.342-.381a3.648,3.648,0,0,1-2.357-3.47q-.032-5.443.006-10.886A3.634,3.634,0,0,1,872.3,289.2c1.18-.027,2.36,0,3.52,0,.723-2.854,1.788-3.668,4.717-3.669h9.053c3.016,0,4,.737,4.816,3.616.105.016.217.036.329.049,2.234.247,3.87-.069,5.21-2.449,1.866-3.313,5.238-4.762,9.074-4.881C910.165,281.827,911.308,281.857,912.618,281.857Zm-40.291,21.937h40.21V292.955h-18.3v3.51H875.9v-3.542h-3.568Zm18.213-10.988V289.28H879.673v3.526Zm22.038-7.209c-3.857-.28-7.458-.174-9.93,3.53h9.93Z" transform="translate(-124.61 -25.081)"/><path class="a" d="M868.817,274.516h3.542v3.565h-3.542Z" transform="translate(-124.764 -25.029)"/><path class="a" d="M892.765,278.159v-3.518H896.3v3.518Z" transform="translate(-141.378 -25.116)"/><path class="a" d="M920.33,278.145H916.8v-3.552h3.532Z" transform="translate(-158.051 -25.082)"/><path class="a" d="M788.755,456.838h10.882v-7.2h3.63V460.5H785.092V442.3h10.843v3.561h-7.18Z" transform="translate(-66.679 -141.428)"/><path class="a" d="M804.12,444.968l-5.1-5.054,2.721-2.454,1.7,2.281,9.936-13.22,2.931,2.183Z" transform="translate(-76.341 -130.483)"/><path class="a" d="M759.057,370.431v3.537H737.2v-3.537Z" transform="translate(-33.451 -91.57)"/><path class="a" d="M759.06,394.388v3.535H737.2v-3.535Z" transform="translate(-33.453 -108.191)"/><path class="a" d="M772.995,349.959v-3.534h10.863v3.534Z" transform="translate(-58.287 -74.916)"/><path class="a" d="M748.005,442.353v3.5H737.112v-3.5Z" transform="translate(-33.392 -141.467)"/><path class="a" d="M748.06,466.252v3.531H737.2v-3.531Z" transform="translate(-33.454 -158.047)"/><path class="a" d="M737.041,493.666v-3.53H747.9v3.53Z" transform="translate(-33.343 -174.617)"/><path class="a" d="M744.346,350.011h-7.191v-3.548h7.191Z" transform="translate(-33.422 -74.942)"/><path class="a" d="M737.043,421.814v-3.527h3.534v3.527Z" transform="translate(-33.344 -124.771)"/><path class="a" d="M761.008,421.818v-3.523h3.526v3.523Z" transform="translate(-49.97 -124.776)"/><path class="a" d="M788.588,418.3v3.521h-3.539V418.3Z" transform="translate(-66.649 -124.783)"/><path class="a" d="M773.559,560.818c-2.9,0-5.805.013-8.708,0-2.57-.015-4.015-1.494-4.027-4.086,0-1.108-.029-2.216.009-3.323a3.6,3.6,0,0,1,3.589-3.581q9.223-.051,18.447,0a3.613,3.613,0,0,1,3.621,3.669c.03,1.183.025,2.368,0,3.552a3.645,3.645,0,0,1-3.767,3.762c-3.055.027-6.111.007-9.166.007Zm-9.017-3.754h18.193v-3.526H764.542Z" transform="translate(-49.835 -216.008)"/></g></svg>