<svg xmlns="http://www.w3.org/2000/svg" width="105.796" height="105.795" viewBox="0 0 105.796 105.795"><defs><style>.a{fill:#292f33;}</style></defs><path class="a" d="M134.4,65.5v-1.9a19.4,19.4,0,0,0-38.791,0v7.053H88.555a1.763,1.763,0,0,0-1.763,1.763v7.053a1.763,1.763,0,0,0,1.763,1.763h.176L90.4,97.109H83.265V21.29a5.29,5.29,0,0,0-10.579,0v75.82H55.053a3.531,3.531,0,0,0-3.526,3.526v5.073l-3.474,13.9a1.763,1.763,0,0,0,1.711,2.191h82.873a1.763,1.763,0,0,0,1.763-1.763v-6.96l2.489-23.643a5.4,5.4,0,0,0,2.8-4.761V71.983a6.623,6.623,0,0,0-5.29-6.48Zm-35.265-1.9a15.869,15.869,0,1,1,31.738,0v1.763h-16.31a6.623,6.623,0,0,0-6.48,5.29H99.134ZM90.318,74.187H107.95v3.526H90.318Zm1.959,7.053H107.95V84.67a5.463,5.463,0,0,0,1.626,3.866,5.2,5.2,0,0,0,3.745,1.521,5.313,5.313,0,0,0,3.445-1.35,5.28,5.28,0,0,0,7.053,0,5.281,5.281,0,0,0,7.051,0,5.236,5.236,0,0,0,2.417,1.229l-2.239,21.279H105.8l-1.377-5.507v-5.073a3.531,3.531,0,0,0-3.526-3.526H93.946ZM76.212,21.29a1.763,1.763,0,0,1,3.526,0v75.82H76.212ZM55.053,100.636H100.9v3.526H55.053Zm4.022,17.632,2.645-10.579h3.418l-2.645,10.579Zm-4.408-10.579h3.418L55.44,118.268H52.022Zm14.106,0h3.679l-1.322,10.579h-5Zm5.91,10.579,1.322-10.579h3.94l1.322,10.579Zm10.139,0L83.5,107.689h3.679l2.645,10.579Zm8.636,0-2.645-10.579h3.418l2.645,10.579Zm7.053,0-2.645-10.579h3.418l2.645,10.579Zm30.362,0H107.564l-.882-3.526h24.19Zm5.29-38.791v5.19a1.835,1.835,0,0,1-1.675,1.861,1.763,1.763,0,0,1-1.851-1.761V77.714h-3.527v7.053a1.763,1.763,0,1,1-3.526,0V77.714h-3.527v7.053a1.763,1.763,0,1,1-3.526,0V77.714H115v7.053a1.761,1.761,0,0,1-1.735,1.763h-.024a1.7,1.7,0,0,1-1.193-.507,1.915,1.915,0,0,1-.573-1.353V71.983a3.089,3.089,0,0,1,3.086-3.086h18.514a3.089,3.089,0,0,1,3.086,3.086Z" transform="translate(-40.947 -16)"/><rect class="a" width="2.739" height="8.218" transform="translate(83.537 83.554)"/><rect class="a" width="2.739" height="3.424" transform="translate(83.537 76.021)"/><path class="a" d="M71.142,216.428a1.763,1.763,0,0,0,3.345,0,9.433,9.433,0,0,1,5.938-5.938,1.763,1.763,0,0,0,0-3.346,9.433,9.433,0,0,1-5.938-5.938,1.763,1.763,0,0,0-3.345,0,9.433,9.433,0,0,1-5.938,5.938,1.763,1.763,0,0,0,0,3.346,9.433,9.433,0,0,1,5.938,5.938Zm1.673-10.792A13.049,13.049,0,0,0,76,208.817,13.05,13.05,0,0,0,72.815,212a13.05,13.05,0,0,0-3.181-3.181A13.049,13.049,0,0,0,72.815,205.636Z" transform="translate(-53.419 -159.446)"/><path class="a" d="M432.425,111.144a9.433,9.433,0,0,1-5.938-5.938,1.763,1.763,0,0,0-3.345,0,9.433,9.433,0,0,1-5.938,5.938,1.763,1.763,0,0,0,0,3.346,9.433,9.433,0,0,1,5.938,5.938,1.763,1.763,0,0,0,3.345,0,9.433,9.433,0,0,1,5.938-5.938,1.763,1.763,0,0,0,0-3.346ZM424.815,116a13.049,13.049,0,0,0-3.181-3.181,13.049,13.049,0,0,0,3.181-3.181A13.05,13.05,0,0,0,428,112.817,13.049,13.049,0,0,0,424.815,116Z" transform="translate(-327.836 -84.605)"/><path class="a" d="M24.815,313.633a1.763,1.763,0,0,0,1.673-1.206,9.433,9.433,0,0,1,5.938-5.938,1.763,1.763,0,0,0,0-3.346,9.433,9.433,0,0,1-5.938-5.938,1.763,1.763,0,0,0-3.345,0,9.433,9.433,0,0,1-5.938,5.938,1.763,1.763,0,0,0,0,3.346,9.433,9.433,0,0,1,5.938,5.938A1.763,1.763,0,0,0,24.815,313.633Zm0-12A13.049,13.049,0,0,0,28,304.817,13.049,13.049,0,0,0,24.815,308a13.049,13.049,0,0,0-3.181-3.181A13.049,13.049,0,0,0,24.815,301.636Z" transform="translate(-15.998 -234.287)"/></svg>