<svg xmlns="http://www.w3.org/2000/svg" width="73.1" height="54.824" viewBox="0 0 73.1 54.824"><defs><style>.a{fill:#292f33;}</style></defs><g transform="translate(0 -3)"><g transform="translate(0 3)"><path class="a" d="M65.485,57.825H7.615A7.625,7.625,0,0,1,0,50.21v-39.6A7.625,7.625,0,0,1,7.615,3H65.485A7.625,7.625,0,0,1,73.1,10.615v39.6A7.625,7.625,0,0,1,65.485,57.825ZM7.615,6.046a4.574,4.574,0,0,0-4.569,4.569v39.6a4.574,4.574,0,0,0,4.569,4.569H65.485a4.574,4.574,0,0,0,4.569-4.569v-39.6a4.574,4.574,0,0,0-4.569-4.569Z" transform="translate(0 -3)"/></g><g transform="translate(15.229 15.183)"><path class="a" d="M12.615,22.229a7.615,7.615,0,1,1,7.615-7.615A7.625,7.625,0,0,1,12.615,22.229Zm0-12.183a4.569,4.569,0,1,0,4.569,4.569A4.574,4.574,0,0,0,12.615,10.046Z" transform="translate(-5 -7)"/></g><g transform="translate(9.137 33.458)"><path class="a" d="M28.889,25.183a1.523,1.523,0,0,1-1.523-1.523V20.615A4.574,4.574,0,0,0,22.8,16.046H10.615a4.574,4.574,0,0,0-4.569,4.569V23.66A1.523,1.523,0,0,1,3,23.66V20.615A7.625,7.625,0,0,1,10.615,13H22.8a7.625,7.625,0,0,1,7.615,7.615V23.66A1.523,1.523,0,0,1,28.889,25.183Z" transform="translate(-3 -13)"/></g><g transform="translate(42.641 18.229)"><path class="a" d="M33.8,11.046H15.523a1.523,1.523,0,1,1,0-3.046H33.8a1.523,1.523,0,0,1,0,3.046Z" transform="translate(-14 -8)"/></g><g transform="translate(42.641 30.412)"><path class="a" d="M33.8,15.046H15.523a1.523,1.523,0,1,1,0-3.046H33.8a1.523,1.523,0,0,1,0,3.046Z" transform="translate(-14 -12)"/></g><g transform="translate(42.641 42.596)"><path class="a" d="M33.8,19.046H15.523a1.523,1.523,0,1,1,0-3.046H33.8a1.523,1.523,0,0,1,0,3.046Z" transform="translate(-14 -16)"/></g></g></svg>