<svg xmlns="http://www.w3.org/2000/svg" width="54.846" height="70.005" viewBox="0 0 54.846 70.005"><defs><style>.a{fill:#292f33;}</style></defs><g transform="translate(-0.473 0.001)"><path class="a" d="M54.485.195a1.579,1.579,0,0,0-1.62.094L45.281,5.449,37.414.273a1.572,1.572,0,0,0-1.731,0L27.9,5.449,20.124.273a1.572,1.572,0,0,0-1.731,0L10.526,5.449,2.927.273A1.579,1.579,0,0,0,1.306.179,1.549,1.549,0,0,0,.473,1.563V68.43A1.578,1.578,0,0,0,2.046,70h51.7a1.578,1.578,0,0,0,1.573-1.573V1.563A1.54,1.54,0,0,0,54.485.195ZM52.172,66.873H3.62V4.553L9.63,8.643a1.568,1.568,0,0,0,1.746.016l7.867-5.192L27.03,8.643a1.6,1.6,0,0,0,1.747,0l7.772-5.176,7.867,5.192a1.569,1.569,0,0,0,1.747-.016l6.01-4.091Zm0,0" transform="translate(0)"/><path class="a" d="M110.831,354.543H85.343a1.573,1.573,0,1,0,0,3.147h25.488a1.573,1.573,0,1,0,0-3.147Zm0,0" transform="translate(-70.192 -298.762)"/><path class="a" d="M139.187,144.987a1.573,1.573,0,0,0,0-3.147H126.726a1.573,1.573,0,0,0,0,3.147H130.3a3.762,3.762,0,0,1,3.43,2.2h-6.986a1.573,1.573,0,1,0,0,3.147h6.986a3.787,3.787,0,0,1-3.43,2.2h-3.571a1.578,1.578,0,0,0-1.086,2.722l8.905,8.417a1.575,1.575,0,0,0,1.085.425,1.62,1.62,0,0,0,1.149-.487,1.567,1.567,0,0,0-.063-2.219l-6.042-5.711a6.944,6.944,0,0,0,6.357-5.333h2.155a1.573,1.573,0,0,0,0-3.147h-2.155a6.869,6.869,0,0,0-.944-2.2h3.1Zm0,0" transform="translate(-105.061 -119.525)"/><path class="a" d="M76.178,95.543a18.408,18.408,0,1,0,18.408,18.408A18.408,18.408,0,0,0,76.178,95.543Zm0,33.669a15.261,15.261,0,1,1,15.261-15.261A15.262,15.262,0,0,1,76.178,129.212Zm0,0" transform="translate(-48.282 -80.512)"/></g></svg>