<svg xmlns="http://www.w3.org/2000/svg" width="104.601" height="104.587" viewBox="0 0 104.601 104.587"><defs><style>.a{fill:#292f33;}</style></defs><g transform="translate(0 -0.032)"><g transform="translate(13.952 62.783)"><path class="a" d="M90.18,296.747H83.208v-6.972a1.743,1.743,0,0,0-1.743-1.743H74.493a1.743,1.743,0,0,0-1.743,1.743v6.972H65.777a1.743,1.743,0,0,0-1.743,1.743v6.972a1.743,1.743,0,0,0,1.743,1.743h6.972v6.972a1.743,1.743,0,0,0,1.743,1.743h6.972a1.743,1.743,0,0,0,1.743-1.743v-6.972H90.18a1.743,1.743,0,0,0,1.743-1.743v-6.972A1.743,1.743,0,0,0,90.18,296.747Zm-1.743,6.972H81.465a1.743,1.743,0,0,0-1.743,1.743v6.972H76.236v-6.972a1.743,1.743,0,0,0-1.743-1.743H67.52v-3.486h6.972a1.743,1.743,0,0,0,1.743-1.743v-6.972h3.486v6.972a1.743,1.743,0,0,0,1.743,1.743h6.972Z" transform="translate(-64.034 -288.032)"/></g><g transform="translate(0 0.032)"><g transform="translate(0 0)"><path class="a" d="M104.419,73.543C103.082,61.532,91.8,50.294,79.778,49.013a28.936,28.936,0,0,0-3.075-.174H57.53V41.866H54.043V38.38a6.972,6.972,0,0,0-6.972-6.972H38.356a3.486,3.486,0,1,1,0-6.972H66.245a6.972,6.972,0,0,0,0-13.945H57.53A3.486,3.486,0,0,1,54.043,7V.032H50.557V7a6.972,6.972,0,0,0,6.972,6.972h8.715a3.486,3.486,0,0,1,0,6.972H38.356a6.972,6.972,0,1,0,0,13.945h8.715a3.486,3.486,0,0,1,3.486,3.486v3.486H47.071v6.972H27.9a28.437,28.437,0,0,0-3.078.174C12.791,50.3,1.517,61.54.184,73.552a27.89,27.89,0,0,0,42.392,26.882,17.071,17.071,0,0,1,7.65-2.7,26.879,26.879,0,0,1,4.053-.014,17.2,17.2,0,0,1,7.771,2.733,27.89,27.89,0,0,0,42.369-26.907ZM50.557,45.352h3.486v3.486H50.557ZM94.893,93a24.388,24.388,0,0,1-31.006,4.488,20.569,20.569,0,0,0-9.359-3.247q-1.1-.08-2.228-.08c-.793,0-1.569.033-2.35.094a20.5,20.5,0,0,0-9.217,3.218A24.4,24.4,0,0,1,3.649,73.939C4.8,63.617,14.861,53.59,25.194,52.48a25.074,25.074,0,0,1,2.7-.155H76.7a25.642,25.642,0,0,1,2.7.145C89.739,53.58,99.8,63.606,100.952,73.929A24.229,24.229,0,0,1,94.893,93Z" transform="translate(0 -0.032)"/></g></g><g transform="translate(69.731 59.297)"><path class="a" d="M327.007,272.032A6.972,6.972,0,1,0,333.979,279,6.972,6.972,0,0,0,327.007,272.032Zm0,10.459A3.486,3.486,0,1,1,330.493,279,3.486,3.486,0,0,1,327.007,282.491Z" transform="translate(-320.034 -272.032)"/></g><g transform="translate(69.731 80.214)"><path class="a" d="M327.007,368.032A6.972,6.972,0,1,0,333.979,375,6.972,6.972,0,0,0,327.007,368.032Zm0,10.459A3.486,3.486,0,1,1,330.493,375,3.486,3.486,0,0,1,327.007,378.491Z" transform="translate(-320.034 -368.032)"/></g><g transform="translate(57.53 69.756)"><path class="a" d="M271.006,320.032A6.972,6.972,0,1,0,277.979,327,6.972,6.972,0,0,0,271.006,320.032Zm0,10.459A3.486,3.486,0,1,1,274.493,327,3.486,3.486,0,0,1,271.006,330.491Z" transform="translate(-264.034 -320.032)"/></g><g transform="translate(81.933 69.756)"><path class="a" d="M383.006,320.032A6.972,6.972,0,1,0,389.979,327,6.972,6.972,0,0,0,383.006,320.032Zm0,10.459A3.486,3.486,0,1,1,386.493,327,3.486,3.486,0,0,1,383.006,330.491Z" transform="translate(-376.034 -320.032)"/></g></g></svg>