<svg xmlns="http://www.w3.org/2000/svg" width="105.341" height="105.341" viewBox="0 0 105.341 105.341"><defs><style>.a{fill:#292f33;}</style></defs><path class="a" d="M103.7,234.105H70.776v-3.292h1.646a1.646,1.646,0,1,0,0-3.292H70.776v-1.646a6.584,6.584,0,0,1,13.168,0,1.646,1.646,0,1,0,3.292,0,9.876,9.876,0,0,0-19.751,0v8.23H39.865a4.907,4.907,0,0,0,1.284-3.292v-9.876a1.646,1.646,0,0,0-1.646-1.646H14.814a1.646,1.646,0,0,0-1.646,1.646v9.876a4.907,4.907,0,0,0,1.284,3.292H1.646A1.646,1.646,0,0,0,0,235.751v39.5A1.646,1.646,0,0,0,1.646,276.9H103.7a1.646,1.646,0,0,0,1.646-1.646v-39.5A1.646,1.646,0,0,0,103.7,234.105ZM16.46,222.584h21.4v8.23a1.646,1.646,0,0,1-1.646,1.646H18.105a1.646,1.646,0,0,1-1.646-1.646Zm9.876,51.025H3.292V253.857H26.335Zm0-23.043H3.292V237.4H8.23a1.646,1.646,0,0,0,1.646,1.646h9.876A1.646,1.646,0,0,0,21.4,237.4h4.938Zm49.379,23.043H29.627V237.4H75.714Zm26.335,0H79.006V253.857h23.043Zm0-23.043H79.006V237.4h4.938a1.646,1.646,0,0,0,1.646,1.646h9.876a1.646,1.646,0,0,0,1.646-1.646h4.938Z" transform="translate(0 -171.559)"/><path class="a" d="M153.646,363.751h39.5a1.646,1.646,0,0,0,1.646-1.646v-16.46A1.646,1.646,0,0,0,193.149,344h-39.5A1.646,1.646,0,0,0,152,345.646v16.46A1.646,1.646,0,0,0,153.646,363.751Zm1.646-16.46H191.5V360.46H155.292Z" transform="translate(-120.727 -273.224)"/><path class="a" d="M221.4,464H201.646a1.646,1.646,0,1,0,0,3.292H221.4a1.646,1.646,0,1,0,0-3.292Z" transform="translate(-158.851 -368.535)"/><path class="a" d="M81.646,24.689h69.13a1.646,1.646,0,0,0,1.646-1.646V1.646A1.646,1.646,0,0,0,150.776,0H81.646A1.646,1.646,0,0,0,80,1.646v21.4A1.646,1.646,0,0,0,81.646,24.689Zm36.211-21.4H149.13V21.4H117.857Zm-34.565,0h31.273V21.4H83.292Z" transform="translate(-63.54)"/><path class="a" d="M142.814,56H129.646a1.646,1.646,0,0,0,0,3.292h13.168a1.646,1.646,0,0,0,0-3.292Z" transform="translate(-101.665 -44.478)"/><path class="a" d="M318.814,56H305.646a1.646,1.646,0,1,0,0,3.292h13.168a1.646,1.646,0,1,0,0-3.292Z" transform="translate(-241.454 -44.478)"/><path class="a" d="M82.3,148.674A4.609,4.609,0,0,0,80,152.46a1.646,1.646,0,0,0,3.292,0c0-.347.165-.53.988-1.152a4.262,4.262,0,0,0,0-7.571c-.831-.624-.988-.806-.988-1.152s.165-.527.988-1.152a4.609,4.609,0,0,0,2.3-3.786,1.646,1.646,0,0,0-3.292,0c0,.344-.165.527-.988,1.152a4.262,4.262,0,0,0,0,7.571c.823.624.988.807.988,1.152S83.127,148.048,82.3,148.674Z" transform="translate(-63.54 -108.019)"/><path class="a" d="M124.279,141.432a4.609,4.609,0,0,0,2.3-3.786,1.646,1.646,0,1,0-3.292,0c0,.344-.165.527-.988,1.152a4.262,4.262,0,0,0,0,7.571c.823.624.988.807.988,1.152s-.165.53-.988,1.152a4.609,4.609,0,0,0-2.3,3.786,1.646,1.646,0,0,0,3.292,0c0-.347.165-.53.988-1.152a4.262,4.262,0,0,0,0-7.571c-.823-.624-.988-.806-.988-1.152S123.457,142.052,124.279,141.432Z" transform="translate(-95.311 -108.019)"/><path class="a" d="M164.279,141.432a4.609,4.609,0,0,0,2.3-3.786,1.646,1.646,0,0,0-3.292,0c0,.344-.165.527-.988,1.152a4.262,4.262,0,0,0,0,7.571c.823.624.988.807.988,1.152s-.165.53-.988,1.152a4.609,4.609,0,0,0-2.3,3.786,1.646,1.646,0,1,0,3.292,0c0-.347.165-.53.988-1.152a4.262,4.262,0,0,0,0-7.571c-.823-.624-.988-.806-.988-1.152S163.457,142.052,164.279,141.432Z" transform="translate(-127.081 -108.019)"/></svg>