<svg xmlns="http://www.w3.org/2000/svg" width="165.599" height="78.675" viewBox="0 0 165.599 78.675"><defs><style>.a{fill:#eebf1e;}.b{font-size:37px;letter-spacing:-0.072em;}.b,.c{font-family:EarthOrbiterBold, Earth Orbiter;}.c{font-size:56px;letter-spacing:-0.133em;}.d{font-size:61px;}</style></defs><g transform="translate(-272.001 -26.001)"><g transform="translate(272.001 26.001)"><g transform="translate(0 8.675)"><path class="a" d="M201.652,144.294a2.52,2.52,0,0,0-1.5,2.182v37.635a2.52,2.52,0,0,0,1.5,2.182l25.749,9.835a1.033,1.033,0,0,0,1.5-1.034v-59.6a1.034,1.034,0,0,0-1.5-1.034Zm20.817,40.842a1.084,1.084,0,0,1-1.525,1.089L207.679,181.7a2.407,2.407,0,0,1-1.522-2.126V151.011a2.411,2.411,0,0,1,1.522-2.128l13.265-4.523a1.084,1.084,0,0,1,1.525,1.09Z" transform="translate(-200.151 -134.36)"/><g transform="translate(2.837 31.486)"><path class="a" d="M227.733,189.19c0,.349-.724.635-1.608.635H206.642c-.884,0-1.608-.286-1.608-.635s.724-.636,1.608-.636h19.483C227.009,188.554,227.733,188.84,227.733,189.19Z" transform="translate(-205.034 -188.554)"/></g><g transform="translate(13.525 7.889)"><path class="a" d="M224.091,190.6c-.363,0-.66-.725-.66-1.609V149.548c0-.884.3-1.609.66-1.609s.664.725.664,1.609v39.438C224.755,189.87,224.454,190.6,224.091,190.6Z" transform="translate(-223.431 -147.939)"/></g></g><text class="b" transform="translate(33.411 30)"><tspan x="0" y="0">COZY</tspan></text><text class="c" transform="translate(30.599 68.675)"><tspan x="0" y="0">sT</tspan><tspan class="d" y="0">A</tspan><tspan y="0">Y</tspan></text></g></g></svg>