<svg xmlns="http://www.w3.org/2000/svg" xmlns:xlink="http://www.w3.org/1999/xlink" width="181.825" height="181.825" viewBox="0 0 181.825 181.825"><defs><style>.a{fill:#fff;stroke:#eebf1e;stroke-width:2px;}.b{clip-path:url(#a);}.c{isolation:isolate;}.d{fill:none;}.e{fill:#27debf;}</style><clipPath id="a"><rect class="a" width="181.826" height="181.826" rx="17" transform="translate(1055.18 1292.105)"/></clipPath></defs><g class="b" transform="translate(-1055.18 -1292.105)"><g class="c" transform="translate(1158.873 1399.931)"><path class="d" d="M66,0A66,66,0,1,1,0,66,66,66,0,0,1,66,0Z" transform="translate(0 0)"/><path class="e" d="M66,28.593A37.408,37.408,0,1,0,103.409,66,37.45,37.45,0,0,0,66,28.593M66,0A66,66,0,1,1,0,66,66,66,0,0,1,66,0Z" transform="translate(0 0)"/></g></g></svg>