<svg xmlns="http://www.w3.org/2000/svg" width="117.986" height="117.989" viewBox="0 0 117.986 117.989"><defs><style>.a{fill:#707070;}</style></defs><g transform="translate(15.669 104.162)"><path class="a" d="M71.936,452.676a2.3,2.3,0,1,0,.675,1.629A2.32,2.32,0,0,0,71.936,452.676Z" transform="translate(-68.003 -452.001)"/></g><g transform="translate(104.265 41.482)"><path class="a" d="M456.388,180.683a2.3,2.3,0,1,0,.677,1.629A2.317,2.317,0,0,0,456.388,180.683Z" transform="translate(-452.454 -180.008)"/></g><g transform="translate(0)"><path class="a" d="M117.318.675A2.306,2.306,0,0,0,115.688,0L59,0a2.3,2.3,0,0,0-2.3,2.3V8.9L34.851,14.751a2.3,2.3,0,0,0-1.629,2.822L44.543,59.824l-9.794,9.794A6.911,6.911,0,0,0,29.042,66.6H6.92A6.921,6.921,0,0,0,.007,73.513v37.562a6.921,6.921,0,0,0,6.913,6.913H29.043a6.925,6.925,0,0,0,6.709-5.25l2.74,2.39a11.61,11.61,0,0,0,7.632,2.86h69.564a2.3,2.3,0,0,0,2.3-2.3V2.3A2.307,2.307,0,0,0,117.318.675Zm-85.971,110.4a2.307,2.307,0,0,1-2.3,2.3H6.92a2.307,2.307,0,0,1-2.3-2.3V73.514a2.307,2.307,0,0,1,2.3-2.3h8.757V97.756a2.3,2.3,0,0,0,4.609,0V71.209h8.757a2.307,2.307,0,0,1,2.3,2.3v37.562Zm6.923-92.47L56.7,13.669v8.539l-1.544.414a2.3,2.3,0,0,0-1.629,2.822,6.212,6.212,0,0,1-4.387,7.6,2.3,2.3,0,0,0-1.628,2.827l8.983,33.262H51.863l-2.384-9.325A2.3,2.3,0,0,0,49.093,59ZM56.7,32.776V52.222l-4.2-15.563A10.8,10.8,0,0,0,56.7,32.776ZM89.8,113.38H46.124a7,7,0,0,1-4.6-1.725L35.956,106.8V74.929L46.016,64.868l1.825,7.139a2.3,2.3,0,0,0,2.233,1.734l45.307,0a3.226,3.226,0,1,1,0,6.453H72.165a2.3,2.3,0,0,0,0,4.609h30.428a3.226,3.226,0,1,1,0,6.452H72.165a2.3,2.3,0,0,0,0,4.609h25.5a3.226,3.226,0,0,1,0,6.453h-25.5a2.3,2.3,0,0,0,0,4.609H89.8a3.226,3.226,0,1,1,0,6.452Zm23.582,0H96.939a7.807,7.807,0,0,0,0-6.453h.723a7.83,7.83,0,0,0,7-11.342,7.828,7.828,0,0,0,4.216-12.222V54.157a2.3,2.3,0,1,0-4.609,0V80.38a7.837,7.837,0,0,0-1.68-.183h-.076A7.83,7.83,0,0,0,95.38,69.135h-3.7a11.028,11.028,0,1,0-8.665,0h-12.6V25.318a10.848,10.848,0,0,0,8.262-8.262H96.01a10.848,10.848,0,0,0,8.262,8.262v7.165a2.3,2.3,0,1,0,4.609,0V23.26a2.3,2.3,0,0,0-2.3-2.3,6.212,6.212,0,0,1-6.2-6.2,2.3,2.3,0,0,0-2.3-2.3H76.619a2.3,2.3,0,0,0-2.3,2.3,6.212,6.212,0,0,1-6.2,6.2,2.3,2.3,0,0,0-2.3,2.3V69.135H61.3V4.611l52.08,0ZM87.344,65.414a6.42,6.42,0,1,1,6.42-6.42A6.427,6.427,0,0,1,87.344,65.414Z" transform="translate(-0.007 0)"/></g></svg>