<svg xmlns="http://www.w3.org/2000/svg" width="113.92" height="117.989" viewBox="0 0 113.92 117.989"><defs><style>.a{fill:#707070;}</style></defs><g transform="translate(0)"><path class="a" d="M17.977,270A18.328,18.328,0,0,0-.332,288.309c0,7.911,12,26.352,18.309,35.193,6.306-8.841,18.309-27.283,18.309-35.193A18.329,18.329,0,0,0,17.977,270Zm0,30.514a12.206,12.206,0,1,1,12.206-12.206A12.206,12.206,0,0,1,17.977,300.514Zm0,0" transform="translate(0.332 -215.074)"/><path class="a" d="M65.942,328.137A8.137,8.137,0,1,1,57.805,320,8.138,8.138,0,0,1,65.942,328.137Zm0,0" transform="translate(-39.497 -254.903)"/><path class="a" d="M416.285,18.309a18.309,18.309,0,1,0-36.617,0c0,7.911,12,26.352,18.309,35.193C404.283,44.659,416.285,26.216,416.285,18.309Zm-30.514,0a12.206,12.206,0,1,1,12.206,12.206A12.206,12.206,0,0,1,385.771,18.309Zm0,0" transform="translate(-302.365)"/><path class="a" d="M445.942,58.137A8.137,8.137,0,1,1,437.805,50,8.138,8.138,0,0,1,445.942,58.137Zm0,0" transform="translate(-342.194 -39.829)"/><path class="a" d="M157.054,291.734a18.239,18.239,0,0,0-6.7,14.156v14.731A22.4,22.4,0,0,1,127.976,343H109.668v4.069h18.309a26.477,26.477,0,0,0,26.446-26.446V305.889a14.24,14.24,0,0,1,17.033-13.952l11.039,2.2.8-3.988-11.046-2.209a18.26,18.26,0,0,0-15.193,3.8Zm0,0" transform="translate(-87.291 -229.077)"/></g></svg>