<svg xmlns="http://www.w3.org/2000/svg" width="81.464" height="108.779" viewBox="0 0 81.464 108.779"><defs><style>.a{fill:#292f33;}</style></defs><g transform="translate(4.582)"><path class="a" d="M155.68,196.775a12.387,12.387,0,1,0-12.387-12.387A12.387,12.387,0,0,0,155.68,196.775Zm0-19.959a7.6,7.6,0,1,1-7.6,7.6A7.595,7.595,0,0,1,155.68,176.816Zm0,0" transform="translate(-119.53 -139.031)"/><path class="a" d="M127.692,325.123a18.591,18.591,0,0,0-13.466,5.631,19.873,19.873,0,0,0-5.559,14.065,2.4,2.4,0,0,0,2.4,2.4H144.32a2.4,2.4,0,0,0,2.4-2.4,19.873,19.873,0,0,0-5.559-14.065,18.59,18.59,0,0,0-13.465-5.631Zm-14.065,17.3a14.653,14.653,0,0,1,4.025-8.314,14.114,14.114,0,0,1,20.078,0,14.731,14.731,0,0,1,4.025,8.314Zm0,0" transform="translate(-91.542 -262.803)"/><path class="a" d="M64.9,0H7.4A11.985,11.985,0,0,0-4.582,11.98V96.8A11.985,11.985,0,0,0,7.4,108.779H64.9A11.985,11.985,0,0,0,76.882,96.8V11.98A11.985,11.985,0,0,0,64.9,0ZM72.09,96.8a7.209,7.209,0,0,1-7.188,7.188H7.4A7.209,7.209,0,0,1,.21,96.8V11.98A7.209,7.209,0,0,1,7.4,4.792H64.9A7.209,7.209,0,0,1,72.09,11.98Zm0,0"/><path class="a" d="M145.689,63.667h19.168a2.4,2.4,0,0,0,0-4.792H145.689a2.4,2.4,0,1,0,0,4.792Zm0,0" transform="translate(-119.53 -47.59)"/></g></svg>