<svg xmlns="http://www.w3.org/2000/svg" width="69.902" height="70.005" viewBox="0 0 69.902 70.005"><defs><style>.a{fill:#292f33;}</style></defs><g transform="translate(-2.049 -1.995)"><path class="a" d="M60.41,43.44a1,1,0,0,1-1-1V39.47a1,1,0,0,1,2,0v2.97A1,1,0,0,1,60.41,43.44Z"/><path class="a" d="M28.48,72a1,1,0,0,1-1-1V3a1,1,0,0,1,1.1-1L60.51,5.23a1,1,0,0,1,.9,1V22.56a1,1,0,0,1-2,0V7.134L29.48,4.106V69.855L59.41,65.8V49.44a1,1,0,0,1,2,0V66.67a1,1,0,0,1-.865.991l-31.93,4.33A1.022,1.022,0,0,1,28.48,72Z"/><path class="a" d="M60.41,33.47a1,1,0,0,1-1-1V29.56a1,1,0,1,1,2,0v2.91A1,1,0,0,1,60.41,33.47Z"/><path class="a" d="M13.659,68.306a1,1,0,0,1-1-1V6.2a1,1,0,0,1,1-1h14.82a1,1,0,1,1,0,2H14.659V67.306A1,1,0,0,1,13.659,68.306Z"/><path class="a" d="M19.307,68.306a1,1,0,0,1-1-1V12.041a1,1,0,0,1,1-1h9.165a1,1,0,0,1,0,2H20.307V67.306A1,1,0,0,1,19.307,68.306Z"/><path class="a" d="M28.472,68.306H3.049a1,1,0,0,1,0-2H28.472a1,1,0,1,1,0,2Z"/><path class="a" d="M70.951,68.306H55.643a1,1,0,0,1,0-2H70.951a1,1,0,0,1,0,2Z"/><path class="a" d="M35.42,40.614A3.614,3.614,0,1,1,39.034,37a3.614,3.614,0,0,1-3.614,3.614Zm0-5.228A1.614,1.614,0,1,0,37.034,37a1.614,1.614,0,0,0-1.614-1.614Z"/></g></svg>