<svg xmlns="http://www.w3.org/2000/svg" width="88.492" height="117.989" viewBox="0 0 88.492 117.989"><defs><style>.a{fill:#707070;}</style></defs><path class="a" d="M80.43,82.743H14.061A11.075,11.075,0,0,1,3,71.682V20.061A11.075,11.075,0,0,1,14.061,9H80.43A11.075,11.075,0,0,1,91.492,20.061v51.62A11.075,11.075,0,0,1,80.43,82.743ZM14.061,16.374a3.692,3.692,0,0,0-3.687,3.687v51.62a3.692,3.692,0,0,0,3.687,3.687H80.43a3.692,3.692,0,0,0,3.687-3.687V20.061a3.692,3.692,0,0,0-3.687-3.687Z" transform="translate(-3 35.246)"/><path class="a" d="M61.307,51.62a3.689,3.689,0,0,1-3.687-3.687V29.5a22.123,22.123,0,0,0-44.246,0V47.933a3.687,3.687,0,0,1-7.374,0V29.5a29.5,29.5,0,1,1,58.994,0V47.933A3.688,3.688,0,0,1,61.307,51.62Z" transform="translate(8.749)"/><path class="a" d="M19.832,32.665a9.832,9.832,0,1,1,9.832-9.832A9.842,9.842,0,0,1,19.832,32.665Zm0-12.291a2.458,2.458,0,1,0,2.458,2.458A2.462,2.462,0,0,0,19.832,20.374Z" transform="translate(24.413 50.911)"/><path class="a" d="M14.937,36.644a3.689,3.689,0,0,1-3.687-3.687V19.437a3.687,3.687,0,1,1,7.374,0v13.52A3.688,3.688,0,0,1,14.937,36.644Z" transform="translate(29.309 61.68)"/></svg>