<svg xmlns="http://www.w3.org/2000/svg" xmlns:xlink="http://www.w3.org/1999/xlink" width="281.351" height="148.835" viewBox="0 0 281.351 148.835"><defs><style>.a{fill:url(#a);}.b{fill:url(#b);}.c{fill:url(#d);}.d{fill:#f7f7f7;}.e{fill:#e4e4e4;mix-blend-mode:multiply;isolation:isolate;}.f{fill:url(#e);}</style><linearGradient id="a" x1="0.5" y1="1" x2="0.5" gradientUnits="objectBoundingBox"><stop offset="0" stop-color="#8f8f8f"/><stop offset="1" stop-color="#c6c6c6"/></linearGradient><linearGradient id="b" y1="0.5" x2="1" y2="0.5" gradientUnits="objectBoundingBox"><stop offset="0" stop-color="#d0d0d0"/><stop offset="1" stop-color="#fcfcfc"/></linearGradient><linearGradient id="d" x1="0.5" y1="1" x2="0.5" gradientUnits="objectBoundingBox"><stop offset="0" stop-color="#737373"/><stop offset="1" stop-color="#aaa"/></linearGradient><linearGradient id="e" y1="0.5" x2="1" y2="0.5" gradientUnits="objectBoundingBox"><stop offset="0" stop-color="#606060"/><stop offset="1" stop-color="#979797"/></linearGradient></defs><g transform="translate(0)"><path class="a" d="M201.251,321.442l14.4,85.733L406.783,259.1Z" transform="translate(-125.432 -259.095)"/><path class="b" d="M456.029,259.1,174.977,289.338l75.521,32.1Z" transform="translate(-174.679 -259.095)"/><path class="b" d="M214.257,343.169,309.1,382.484,382.4,259.1Z" transform="translate(-101.054 -259.095)"/><path class="c" d="M229,288.426l-22.621,64.351a.1.1,0,0,0,.161.118l61.2-48.358a.1.1,0,0,0-.023-.178l-38.582-15.993A.105.105,0,0,0,229,288.426Z" transform="translate(-115.833 -204.249)"/><path class="d" d="M382.713,259.1,214.093,342.57l3.155,1.711Z" transform="translate(-101.362 -259.095)"/><path class="d" d="M455.84,259.1,177.61,290.011l-2.533-1.349Z" transform="translate(-174.49 -259.095)"/><path class="e" d="M210.6,317.625l37.128-18.248-26.613-11.032Z" transform="translate(-107.911 -204.271)"/><path class="d" d="M265.09,388.663a.769.769,0,0,1-.742-.63l-14.334-85.328-75.141-31.943.592-1.388,75.52,32.106a.743.743,0,0,1,.448.566l13.92,82.887,22.012-61.289a.75.75,0,0,1,1-.44L382.707,362.3l.575,1.98L288.516,324.9,265.8,388.163A.756.756,0,0,1,265.09,388.663Z" transform="translate(-174.873 -239.828)"/><path class="f" d="M247.756,383.545l-.576-1.981L320.7,259.1l-.07,1.594Z" transform="translate(-39.346 -259.095)"/></g></svg>