<svg xmlns="http://www.w3.org/2000/svg" width="392.078" height="392.078" viewBox="0 0 392.078 392.078"><defs><style>.a{isolation:isolate;}.b{fill:none;}.c{fill:#27debf;}</style></defs><g class="a" transform="translate(0)"><path class="b" d="M196.039,0C304.308,0,392.078,87.77,392.078,196.039s-87.77,196.039-196.039,196.039S0,304.308,0,196.039,87.77,0,196.039,0Z" transform="translate(0)"/><path class="c" d="M196.039,84.927A111.112,111.112,0,1,0,307.151,196.039,111.237,111.237,0,0,0,196.039,84.927m0-84.927C304.307,0,392.078,87.769,392.078,196.039S304.307,392.078,196.039,392.078,0,304.307,0,196.039,87.769,0,196.039,0Z" transform="translate(0 0)"/></g></svg>