<svg xmlns="http://www.w3.org/2000/svg" width="181.825" height="181.825" viewBox="0 0 181.825 181.825"><defs><style>.a{fill:#fff;}.b,.c{stroke:none;}.c{fill:#27debf;}</style></defs><g class="a"><path class="b" d="M 164.8255157470703 180.8255157470703 L 17.0000114440918 180.8255157470703 C 12.72625064849854 180.8255157470703 8.708297729492188 179.1612243652344 5.68629789352417 176.1392211914062 C 2.664297819137573 173.1172332763672 1.000012159347534 169.0992736816406 1.000012159347534 164.8255157470703 L 1.000012159347534 17.0000114440918 C 1.000012159347534 12.72625064849854 2.664297819137573 8.708297729492188 5.68629789352417 5.68629789352417 C 8.708297729492188 2.664297819137573 12.72625064849854 1.000012159347534 17.0000114440918 1.000012159347534 L 164.8255157470703 1.000012159347534 C 169.0992736816406 1.000012159347534 173.1172332763672 2.664297819137573 176.1392211914062 5.68629789352417 C 179.1612243652344 8.708297729492188 180.8255157470703 12.72625064849854 180.8255157470703 17.0000114440918 L 180.8255157470703 164.8255157470703 C 180.8255157470703 169.0992736816406 179.1612243652344 173.1172332763672 176.1392211914062 176.1392211914062 C 173.1172332763672 179.1612243652344 169.0992736816406 180.8255157470703 164.8255157470703 180.8255157470703 Z"/><path class="c" d="M 17 2 C 12.99334716796875 2 9.226531982421875 3.560272216796875 6.393402099609375 6.393402099609375 C 3.560272216796875 9.226531982421875 2 12.99334716796875 2 17 L 2 164.8255004882812 C 2 168.8321533203125 3.560272216796875 172.5989685058594 6.393402099609375 175.4320983886719 C 9.226531982421875 178.2652282714844 12.99334716796875 179.8255004882812 17 179.8255004882812 L 164.8255004882812 179.8255004882812 C 168.8321533203125 179.8255004882812 172.5989685058594 178.2652282714844 175.4320983886719 175.4320983886719 C 178.2652282714844 172.5989685058594 179.8255004882812 168.8321533203125 179.8255004882812 164.8255004882812 L 179.8255004882812 17 C 179.8255004882812 12.99334716796875 178.2652282714844 9.226531982421875 175.4320983886719 6.393402099609375 C 172.5989685058594 3.560272216796875 168.8321533203125 2 164.8255004882812 2 L 17 2 M 17 0 L 164.8255004882812 0 C 174.2143249511719 0 181.8255004882812 7.61114501953125 181.8255004882812 17 L 181.8255004882812 164.8255004882812 C 181.8255004882812 174.2143249511719 174.2143249511719 181.8255004882812 164.8255004882812 181.8255004882812 L 17 181.8255004882812 C 7.61114501953125 181.8255004882812 0 174.2143249511719 0 164.8255004882812 L 0 17 C 0 7.61114501953125 7.61114501953125 0 17 0 Z"/></g></svg>