<svg xmlns="http://www.w3.org/2000/svg" width="87.565" height="113.704" viewBox="0 0 87.565 113.704"><defs><style>.a{fill:#292f33;}</style></defs><g transform="translate(-58.85)"><g transform="translate(58.85)"><path class="a" d="M143.606,80.179l-.039-.065q-.143-.234-.294-.465-.083-.127-.167-.253c-.069-.1-.138-.2-.209-.3q-.137-.2-.279-.388c-.028-.038-.054-.077-.083-.115l-.062-.079q-.171-.226-.348-.446L142,77.909c-.117-.143-.238-.285-.359-.425-.051-.058-.1-.117-.152-.175-.1-.114-.205-.226-.309-.337-.077-.084-.154-.167-.233-.249-.059-.061-.12-.121-.18-.181a19.306,19.306,0,0,0-8.325-4.967,1.632,1.632,0,0,0-.166-.04l-15.057-2.8c-.027,0-.053-.006-.08-.01a3.689,3.689,0,0,0-2.07.263,3.881,3.881,0,0,1-.869-2.344V63.919a24.164,24.164,0,0,0,2.768-2.058,19.56,19.56,0,0,0,6.588-12.908,5.177,5.177,0,0,0,4.929-5.165V39.9a5.149,5.149,0,0,0-1.889-3.994V26.982c5.444-2.683,6.627-5.811,6.627-8.018,0-3.787-3.527-8.527-9.2-12.371a37.989,37.989,0,0,0-42.777,0c-5.678,3.843-9.2,8.584-9.2,12.371,0,2.207,1.183,5.335,6.627,8.018v8.928A5.149,5.149,0,0,0,76.778,39.9v3.884a5.177,5.177,0,0,0,4.929,5.165,19.558,19.558,0,0,0,6.588,12.908,24.162,24.162,0,0,0,2.768,2.058v2.726a3.881,3.881,0,0,1-.869,2.344,3.684,3.684,0,0,0-2.15-.252l-15.057,2.8a1.635,1.635,0,0,0-.166.04A19.307,19.307,0,0,0,64.5,76.538c-.062.062-.124.123-.184.186-.078.081-.153.164-.23.246-.105.113-.21.226-.312.341-.05.057-.1.115-.15.173q-.183.211-.361.427c-.042.051-.082.1-.123.153q-.177.221-.348.447c-.02.027-.042.052-.062.079s-.055.077-.083.115q-.142.193-.279.388-.106.152-.209.3-.084.126-.166.252-.15.231-.294.465l-.039.065A19.3,19.3,0,0,0,58.85,90.25V92.28a1.666,1.666,0,1,0,3.332,0V90.25a16.129,16.129,0,0,1,.7-4.726,5.449,5.449,0,0,0,3.407,1.195,5.546,5.546,0,0,0,.6-.032,5.457,5.457,0,0,0,3.69-2.014l1.813-2.249a5.493,5.493,0,0,0-.181-7.109c.479-.195.968-.37,1.469-.521l9.607-1.785,7.623,10.668a3.922,3.922,0,0,0,3.2,1.656,3.971,3.971,0,0,0,1.554-.319l.507-.216,2.219,2.579-3.2,22.993H74.253V96.862a1.666,1.666,0,1,0-3.332,0v13.51H64.257a2.076,2.076,0,0,1-2.074-2.074v-8.264a1.666,1.666,0,0,0-3.332,0V108.3a5.413,5.413,0,0,0,5.406,5.406h76.752a5.413,5.413,0,0,0,5.406-5.406V90.25A19.308,19.308,0,0,0,143.606,80.179ZM69.8,80.332l-1.813,2.249a2.16,2.16,0,0,1-3.038.326l-.7-.561q.224-.4.469-.783l.006-.009c.14-.219.287-.433.437-.645.046-.064.091-.128.137-.191q.2-.274.412-.539c.036-.046.072-.092.109-.137q.239-.293.492-.573c.049-.055.1-.109.149-.163.167-.181.336-.358.511-.531l.045-.045A16.1,16.1,0,0,1,69.109,77l.365.294a2.16,2.16,0,0,1,.325,3.038Zm65.992-3.038.365-.294a16.084,16.084,0,0,1,2.09,1.73l.045.045c.175.173.344.351.511.531.05.054.1.108.149.163q.252.281.492.573c.037.045.073.092.109.137q.212.265.412.539c.046.063.092.127.137.191.15.212.3.425.437.645l.006.009q.245.384.469.783l-.7.561a2.16,2.16,0,0,1-3.038-.326l-1.813-2.249A2.163,2.163,0,0,1,135.791,77.294ZM115.9,72.408l.007-.005.436-.326a.351.351,0,0,1,.271-.063l1.748.325-6.719,9.4a.609.609,0,0,1-.738.208l-4.953-2.1Zm-13.267,5.756-9.709-7.257a7.155,7.155,0,0,0,1.471-4.262v-.975a21.722,21.722,0,0,0,8.219,1.672h.037a21.73,21.73,0,0,0,8.219-1.672v.975a7.156,7.156,0,0,0,1.471,4.262Zm3.243,5.268L104.358,85.2h-3.45L99.39,83.432l3.243-1.378ZM78.666,23.184c-2.141-1.32-3.295-2.778-3.295-4.22,0-3,4.012-7.087,7.74-9.611a34.657,34.657,0,0,1,39.041,0c3.728,2.524,7.74,6.608,7.74,9.611,0,1.442-1.153,2.9-3.295,4.22v-3.03a5.144,5.144,0,0,0-3.873-4.986,90.872,90.872,0,0,0-21.136-2.955h-.021a73.632,73.632,0,0,0-19.147,2.925,5.165,5.165,0,0,0-3.754,4.954Zm5.778,5.85-.07-.044c-.108-.069-.212-.139-.313-.208l-.122-.085q-.124-.088-.241-.177c-.054-.041-.105-.082-.156-.123s-.121-.1-.179-.147-.12-.1-.177-.157-.087-.078-.127-.118c-.065-.063-.126-.126-.186-.189-.028-.03-.058-.06-.085-.09l-.008-.01h27.972a1.666,1.666,0,1,0,0-3.332H82V20.092a1.821,1.821,0,0,1,1.324-1.746,70.269,70.269,0,0,1,18.245-2.8h.02A87.478,87.478,0,0,1,121.9,18.4a1.814,1.814,0,0,1,1.366,1.758v4.2H118.8a1.666,1.666,0,1,0,0,3.332h3.688l-.008.01c-.027.03-.057.06-.085.09-.06.063-.12.126-.186.189-.041.039-.084.078-.127.118s-.116.1-.177.157-.118.1-.179.147-.1.082-.156.123q-.117.089-.241.177l-.122.085c-.1.07-.2.139-.313.208l-.07.044a16.444,16.444,0,0,1-2.46,1.246c-.02.008-.038.02-.057.029a42.335,42.335,0,0,1-15.671,2.583,42.334,42.334,0,0,1-15.671-2.583c-.019-.009-.037-.02-.057-.029A16.444,16.444,0,0,1,84.445,29.033ZM84.6,32.9v3.246a9.245,9.245,0,0,0-2.6-.867V31.412A16.851,16.851,0,0,0,84.6,32.9Zm36.061,0a16.845,16.845,0,0,0,2.6-1.492v3.871a9.246,9.246,0,0,0-2.6.867ZM90.469,59.335a16.349,16.349,0,0,1-5.529-12.08,1.666,1.666,0,0,0-1.666-1.63H81.948a1.84,1.84,0,0,1-1.838-1.838V39.9a1.83,1.83,0,0,1,.676-1.422A6.047,6.047,0,0,1,83.4,39.3l.028.018a3.851,3.851,0,0,1,.381.281l.042.036c.06.051.118.1.175.16s.1.094.154.138l.047.037q.06.047.122.089l.049.033c.056.036.113.071.172.1h0c.06.031.121.059.183.085l.052.02c.047.018.094.035.142.05l.054.017c.063.018.126.034.19.047h0c.066.013.132.022.2.029l.054,0q.076.006.152.007l.034,0h.022c.066,0,.131,0,.2-.01h.005c.067-.007.135-.017.2-.03l.057-.012q.075-.016.149-.037l.059-.017c.066-.021.131-.044.2-.07a2.293,2.293,0,0,0,1.414-2.121V34.173a50.689,50.689,0,0,0,14.7,2.05,50.689,50.689,0,0,0,14.7-2.05v3.985a2.293,2.293,0,0,0,1.414,2.121c.065.027.131.05.2.071l.056.016c.051.014.1.027.153.038l.054.011a2.261,2.261,0,0,0,.406.04h.021l.032,0c.052,0,.1,0,.156-.008l.051,0a2.266,2.266,0,0,0,.394-.077l.052-.016c.048-.015.1-.032.144-.051l.051-.02c.062-.026.123-.054.183-.085h0c.059-.031.116-.065.172-.1l.05-.033q.062-.042.122-.089l.048-.038c.053-.044.1-.089.154-.138s.114-.108.173-.159l.046-.04c.055-.046.11-.09.167-.132l.016-.012c.061-.045.124-.087.187-.128l.051-.033c.056-.035.113-.07.17-.1l.025-.014q.1-.054.2-.1l.049-.024c.059-.028.118-.056.178-.082l.024-.011c.068-.029.137-.057.2-.083l.036-.014q.1-.036.194-.068l.011,0c.072-.024.144-.046.215-.066l.008,0a7,7,0,0,1,1.289-.238,1.83,1.83,0,0,1,.676,1.422v3.884a1.84,1.84,0,0,1-1.838,1.838h-1.326a1.666,1.666,0,0,0-1.666,1.63,16.349,16.349,0,0,1-5.529,12.08,18.165,18.165,0,0,1-24.327,0ZM94.36,81.947a.61.61,0,0,1-.738-.207l-6.719-9.4,1.748-.325a.349.349,0,0,1,.271.063l.436.326.007.005,9.948,7.435Zm4.193,28.424,3.04-21.843h2.079l3.04,21.843Zm42.455,0h-6.664V96.862a1.666,1.666,0,1,0-3.332,0v13.51H110.076l-3.2-22.993,2.219-2.579.507.216a3.97,3.97,0,0,0,1.554.319,3.921,3.921,0,0,0,3.2-1.656l7.623-10.668,9.607,1.785c.5.15.99.326,1.469.521a5.5,5.5,0,0,0-.182,7.109l1.813,2.249a5.456,5.456,0,0,0,3.69,2.014,5.552,5.552,0,0,0,.6.032,5.451,5.451,0,0,0,3.407-1.195,16.128,16.128,0,0,1,.7,4.726V108.3h0A2.076,2.076,0,0,1,141.008,110.371Z" transform="translate(-58.85)"/></g><g transform="translate(113.879 95.196)"><path class="a" d="M318.139,428.66h-8.774a2.725,2.725,0,0,0-2.722,2.722v4.675a2.725,2.725,0,0,0,2.722,2.722h8.774a2.725,2.725,0,0,0,2.722-2.722v-4.675A2.725,2.725,0,0,0,318.139,428.66Zm-8.164,6.786v-3.454h7.553v3.454Z" transform="translate(-306.643 -428.66)"/></g><g transform="translate(77.168 95.195)"><path class="a" d="M152.833,428.659h-8.774a2.725,2.725,0,0,0-2.722,2.722v4.674a2.725,2.725,0,0,0,2.722,2.722h8.774a2.725,2.725,0,0,0,2.722-2.722v-4.674A2.725,2.725,0,0,0,152.833,428.659Zm-.61,6.786h-7.553v-3.454h7.553Z" transform="translate(-141.337 -428.659)"/></g></g></svg>