<svg xmlns="http://www.w3.org/2000/svg" width="123.443" height="104.998" viewBox="0 0 123.443 104.998"><defs><style>.a{fill:#292f33;}</style></defs><g transform="translate(0 -9.567)"><path class="a" d="M122.6,54.251,47.377,10.823a9.415,9.415,0,0,0-12.841,3.44l-8.66,15L20.11,39.247a9.416,9.416,0,0,0,3.443,12.845L49.344,66.981l-4.011,6.84a6.052,6.052,0,0,1-5.2,2.979H25.075V65.323a1.688,1.688,0,0,0-1.688-1.688H14.225V61.458a7.483,7.483,0,0,0-7.474-7.474H1.688A1.687,1.687,0,0,0,0,55.671v57.206a1.687,1.687,0,0,0,1.688,1.688H6.751a7.483,7.483,0,0,0,7.474-7.474V101.73h9.162a1.688,1.688,0,0,0,1.688-1.688V91.748H40.133A21.057,21.057,0,0,0,58.227,81.385l4.063-6.928,14.137,8.162a9.355,9.355,0,0,0,4.685,1.263,9.451,9.451,0,0,0,2.45-.324,9.344,9.344,0,0,0,4.084-2.3,14.06,14.06,0,0,0,5.9,1.306,14.286,14.286,0,0,0,3.7-.49,14.094,14.094,0,0,0,7.687-5.208l3.456,2a1.687,1.687,0,0,0,2.306-.618l12.518-21.681A1.689,1.689,0,0,0,122.6,54.251ZM10.85,107.091a4.1,4.1,0,0,1-4.1,4.1H3.375V57.359H6.751a4.1,4.1,0,0,1,4.1,4.1ZM21.7,98.354H14.225V67.011H21.7ZM55.315,79.678a17.666,17.666,0,0,1-15.182,8.7H25.075v-8.2H40.133a9.44,9.44,0,0,0,8.112-4.647l4.026-6.859,7.1,4.1Zm22.8.018L25.24,49.168a6.034,6.034,0,0,1-2.207-8.234l4.918-8.522L76.411,60.389l14.857,8.577-4.919,8.526-.007.011a5.953,5.953,0,0,1-.425.627v.007A6.033,6.033,0,0,1,78.117,79.7ZM96.38,78.81a10.758,10.758,0,0,1-6.69-.352l4.507-7.8,7.8,4.506a10.758,10.758,0,0,1-5.623,3.651Zm12.243-3.723-10.914-6.3-3.293-1.9L57.154,45.373,29.642,29.489,37.459,15.95a6.034,6.034,0,0,1,8.234-2.2l73.758,42.585Z" transform="translate(0)"/><path class="a" d="M105.034,67.546a6.451,6.451,0,0,0,3.236.873,6.5,6.5,0,1,0-3.236-.873Zm.549-7.178a3.1,3.1,0,0,1,1.891-1.447,3.118,3.118,0,1,1-1.89,1.451Z" transform="translate(-3.623 -1.633)"/><path class="a" d="M44.9,49.967l-13.83-7.986A1.688,1.688,0,1,0,29.379,44.9l13.833,7.985A1.688,1.688,0,0,0,44.9,49.967Z" transform="translate(-1.016 -1.146)"/></g></svg>