<svg xmlns="http://www.w3.org/2000/svg" width="70.005" height="70.005" viewBox="0 0 70.005 70.005"><defs><style>.a{fill:#292f33;}</style></defs><path class="a" d="M58.337,12.361V5.834A5.841,5.841,0,0,0,52.5,0H5.834A5.841,5.841,0,0,0,0,5.834V31.5a5.822,5.822,0,0,0,5.232,5.774L9.618,48.661a5.835,5.835,0,0,0,7.541,3.347l27.388-10.55A16.866,16.866,0,0,0,46,56.432l.67,1.072V68.838A1.166,1.166,0,0,0,47.837,70h21A1.166,1.166,0,0,0,70,68.838V30.325a15.269,15.269,0,0,0-4.47-10.754Zm0,6.978,3.541,9.192a3.5,3.5,0,0,1-2.009,4.523l-2.024.782a5.835,5.835,0,0,0,.492-2.333ZM2.333,31.5V5.834a3.5,3.5,0,0,1,3.5-3.5H52.5a3.5,3.5,0,0,1,3.5,3.5V13.25h-.01l.01.027V31.5a3.548,3.548,0,0,1-.079.6L45.237,21.418a6.224,6.224,0,0,0-8.984,8.608L40.809,35H5.834A3.5,3.5,0,0,1,2.333,31.5Zm14.947,5.834-8.3,3.194L7.757,37.336Zm-.961,12.493a3.5,3.5,0,0,1-4.525-2.008L9.826,42.7l13.927-5.367v-.007H42.948l1.517,1.653ZM67.671,67.671H49V58.337H67.671Zm0-11.667H48.484l-.506-.809a14.549,14.549,0,0,1-.3-14.943,1.166,1.166,0,0,0-.153-1.367L37.969,28.455a3.891,3.891,0,0,1,5.618-5.382L62.179,41.661l1.65-1.65-4.317-4.317,1.2-.467a5.834,5.834,0,0,0,3.345-7.538L60.105,17.436l3.78,3.788a12.921,12.921,0,0,1,3.786,9.1Zm0,0"/><path class="a" d="M71.134,74.167a3.033,3.033,0,0,0,3.034-3.034v-5.6A3.033,3.033,0,0,0,71.134,62.5h-5.6A3.033,3.033,0,0,0,62.5,65.534v5.6a3.033,3.033,0,0,0,3.034,3.034Zm-6.3-3.034V69.5h2.333V67.167H64.834V65.534a.7.7,0,0,1,.7-.7h5.6a.7.7,0,0,1,.7.7v1.633H69.5V69.5h2.333v1.633a.7.7,0,0,1-.7.7h-5.6A.7.7,0,0,1,64.834,71.134Zm0,0" transform="translate(-57.833 -57.833)"/><path class="a" d="M78.125,265.625h4.667v2.333H78.125Zm0,0" transform="translate(-72.291 -245.79)"/><path class="a" d="M78.125,359.375h4.667v2.333H78.125Zm0,0" transform="translate(-72.291 -332.54)"/><path class="a" d="M359.375,359.375h4.667v2.333h-4.667Zm0,0" transform="translate(-332.54 -332.54)"/><path class="a" d="M171.875,265.625h4.667v2.333h-4.667Zm0,0" transform="translate(-159.041 -245.79)"/><path class="a" d="M265.625,265.625h4.667v2.333h-4.667Zm0,0" transform="translate(-245.79 -245.79)"/><path class="a" d="M359.375,265.625h4.667v2.333h-4.667Zm0,0" transform="translate(-332.54 -245.79)"/><path class="a" d="M656.25,78.125h2.333v3.5H656.25Zm0,0" transform="translate(-607.247 -72.291)"/><path class="a" d="M593.75,78.125h2.333v3.5H593.75Zm0,0" transform="translate(-549.414 -72.291)"/><path class="a" d="M531.25,78.125h2.334v3.5H531.25Zm0,0" transform="translate(-491.581 -72.291)"/><path class="a" d="M468.75,78.125h2.333v3.5H468.75Zm0,0" transform="translate(-433.748 -72.291)"/><path class="a" d="M687.5,812.5h2.333v2.333H687.5Zm0,0" transform="translate(-636.163 -751.829)"/></svg>