<svg xmlns="http://www.w3.org/2000/svg" width="106.049" height="95.939" viewBox="0 0 106.049 95.939"><defs><style>.a{fill:#292f33;}</style></defs><g transform="translate(8.285 76.055)"><path class="a" d="M41.657,391.595A1.657,1.657,0,0,0,40,393.252v3.314a1.657,1.657,0,0,0,3.314,0v-3.314A1.657,1.657,0,0,0,41.657,391.595Z" transform="translate(-40 -391.595)"/></g><g transform="translate(16.57 76.055)"><path class="a" d="M81.657,391.595A1.657,1.657,0,0,0,80,393.252v3.314a1.657,1.657,0,0,0,3.314,0v-3.314A1.657,1.657,0,0,0,81.657,391.595Z" transform="translate(-80 -391.595)"/></g><g transform="translate(24.855 76.055)"><path class="a" d="M121.657,391.595A1.657,1.657,0,0,0,120,393.252v3.314a1.657,1.657,0,1,0,3.314,0v-3.314A1.657,1.657,0,0,0,121.657,391.595Z" transform="translate(-120 -391.595)"/></g><g transform="translate(33.14 76.055)"><path class="a" d="M161.657,391.595A1.657,1.657,0,0,0,160,393.252v3.314a1.657,1.657,0,1,0,3.314,0v-3.314A1.657,1.657,0,0,0,161.657,391.595Z" transform="translate(-160 -391.595)"/></g><g transform="translate(41.425 76.055)"><path class="a" d="M201.657,391.595A1.657,1.657,0,0,0,200,393.252v3.314a1.657,1.657,0,1,0,3.314,0v-3.314A1.657,1.657,0,0,0,201.657,391.595Z" transform="translate(-200 -391.595)"/></g><g transform="translate(51.367 76.055)"><path class="a" d="M249.657,391.595A1.657,1.657,0,0,0,248,393.252v3.314a1.657,1.657,0,0,0,3.314,0v-3.314A1.657,1.657,0,0,0,249.657,391.595Z" transform="translate(-248 -391.595)"/></g><g transform="translate(59.653 76.055)"><path class="a" d="M289.657,391.595A1.657,1.657,0,0,0,288,393.252v3.314a1.657,1.657,0,1,0,3.314,0v-3.314A1.657,1.657,0,0,0,289.657,391.595Z" transform="translate(-288 -391.595)"/></g><g transform="translate(67.938 76.055)"><path class="a" d="M329.657,391.595A1.657,1.657,0,0,0,328,393.252v3.314a1.657,1.657,0,0,0,3.314,0v-3.314A1.657,1.657,0,0,0,329.657,391.595Z" transform="translate(-328 -391.595)"/></g><g transform="translate(76.223 76.055)"><path class="a" d="M369.657,391.595A1.657,1.657,0,0,0,368,393.252v3.314a1.657,1.657,0,0,0,3.314,0v-3.314A1.657,1.657,0,0,0,369.657,391.595Z" transform="translate(-368 -391.595)"/></g><g transform="translate(84.508 76.055)"><path class="a" d="M409.657,391.595A1.657,1.657,0,0,0,408,393.252v3.314a1.657,1.657,0,1,0,3.314,0v-3.314A1.657,1.657,0,0,0,409.657,391.595Z" transform="translate(-408 -391.595)"/></g><g transform="translate(79.537 69.427)"><path class="a" d="M392.285,359.595h-6.628a1.657,1.657,0,0,0,0,3.314h6.628a1.657,1.657,0,1,0,0-3.314Z" transform="translate(-384 -359.595)"/></g><g transform="translate(0 0)"><path class="a" d="M101.525,64.006H96.107V62.349A14.913,14.913,0,0,0,81.194,47.436H72.909V42.183a4.971,4.971,0,0,0,3.314-4.689V35.738a8.285,8.285,0,0,0-5.833-7.921,74.186,74.186,0,0,0-44.474,0h-.2a8.285,8.285,0,0,0-5.833,7.921v1.756A4.971,4.971,0,0,0,23.2,42.183v5.253H14.913A14.913,14.913,0,0,0,0,62.349v46.4a4.971,4.971,0,0,0,4.971,4.971H8.915l2.4,4.789a3.314,3.314,0,0,0,2.966,1.839h4.573a3.314,3.314,0,0,0,2.966-1.839l2.4-4.789H71.881l2.4,4.789a3.314,3.314,0,0,0,2.966,1.839h4.573a3.314,3.314,0,0,0,2.966-1.839l2.4-4.789h3.944a4.971,4.971,0,0,0,4.971-4.971v-4.971a4.971,4.971,0,0,0,4.971-4.971V92.175A4.971,4.971,0,0,0,96.107,87.2V75.141l6.843-2.287a4.542,4.542,0,0,0-1.425-8.848ZM23.2,35.738A4.971,4.971,0,0,1,26.695,31h.2a70.938,70.938,0,0,1,42.536,0,4.971,4.971,0,0,1,3.48,4.739v1.756a1.657,1.657,0,0,1-1.657,1.657,1.657,1.657,0,0,0-1.657,1.657V54.064H26.512V40.808a1.657,1.657,0,0,0-1.657-1.657A1.657,1.657,0,0,1,23.2,37.494Zm-4.341,81.293H14.283l-1.657-3.314h7.887Zm62.967,0H77.25l-1.657-3.314H83.48ZM92.793,90.518v18.227a1.657,1.657,0,0,1-1.657,1.657H4.971a1.657,1.657,0,0,1-1.657-1.657v-11.6H74.566a1.657,1.657,0,0,0,0-3.314H3.314V62.349a11.6,11.6,0,0,1,11.6-11.6H23.2v3.314H14.913a1.657,1.657,0,0,0,0,3.314H81.194a1.657,1.657,0,1,0,0-3.314H72.909V50.75h8.285a11.6,11.6,0,0,1,11.6,11.6Zm4.971,1.657V98.8a1.657,1.657,0,0,1-1.657,1.657V90.518A1.657,1.657,0,0,1,97.764,92.175Zm4.971-23.612a1.226,1.226,0,0,1-.845,1.16l-5.783,1.922V67.32h5.4a1.226,1.226,0,0,1,1.226,1.226Z" transform="translate(0 -24.406)"/></g><g transform="translate(9.942 39.6)"><path class="a" d="M52.971,215.595a4.971,4.971,0,1,0,4.971,4.971A4.971,4.971,0,0,0,52.971,215.595Zm0,7.109a2.138,2.138,0,1,1,2.138-2.138A2.137,2.137,0,0,1,52.971,222.7Z" transform="translate(-48 -215.595)"/></g><g transform="translate(33.14 19.716)"><path class="a" d="M164.971,119.595h-3.314a1.657,1.657,0,0,0,0,3.314h3.314a1.657,1.657,0,0,0,0-3.314Z" transform="translate(-160 -119.595)"/></g><g transform="translate(46.396 9.774)"><path class="a" d="M228.971,71.6h-3.314a1.657,1.657,0,1,0,0,3.314h3.314a1.657,1.657,0,0,0,0-3.314Z" transform="translate(-224 -71.595)"/></g><g transform="translate(23.198 42.914)"><path class="a" d="M120.285,231.595h-6.628a1.657,1.657,0,1,0,0,3.314h6.628a1.657,1.657,0,0,0,0-3.314Z" transform="translate(-112 -231.595)"/></g><g transform="translate(53.024 23.03)"><path class="a" d="M260.971,135.6h-3.314a1.657,1.657,0,1,0,0,3.314h3.314a1.657,1.657,0,1,0,0-3.314Z" transform="translate(-256 -135.595)"/></g></svg>