<svg xmlns="http://www.w3.org/2000/svg" width="33.075" height="31.095" viewBox="0 0 33.075 31.095"><defs><style>.a{fill:#1d1d1d;}</style></defs><path class="a" d="M50.649,61.441a1.07,1.07,0,1,0-1.07-1.07A1.074,1.074,0,0,0,50.649,61.441Zm0-1.606a.535.535,0,1,1-.535.535A.506.506,0,0,1,50.649,59.835Zm-25.69,1.606a1.07,1.07,0,1,0-1.07-1.07A1.074,1.074,0,0,0,24.959,61.441Zm0-1.606a.535.535,0,1,1-.535.535A.506.506,0,0,1,24.959,59.835Zm.749,7.493H24.1a.253.253,0,0,0-.268.268v1.07a.253.253,0,0,0,.268.268h1.606a.253.253,0,0,0,.268-.268V67.6A.287.287,0,0,0,25.708,67.328Zm-.268,1.07H24.37v-.535h1.07Zm.8-5.887H23.568a.268.268,0,0,0,0,.535h.268V65.99a.253.253,0,0,0,.268.268h1.606a.253.253,0,0,0,.268-.268V63.046h.268a.268.268,0,0,0,0-.535Zm-.8,3.211H24.37V63.046h1.07ZM51.4,67.328H49.792a.253.253,0,0,0-.268.268v1.07a.253.253,0,0,0,.268.268H51.4a.253.253,0,0,0,.268-.268V67.6A.287.287,0,0,0,51.4,67.328ZM51.13,68.4H50.06v-.535h1.07Zm.8-5.887H49.257a.268.268,0,0,0,0,.535h.268V65.99a.253.253,0,0,0,.268.268H51.4a.253.253,0,0,0,.268-.268V63.046h.268a.268.268,0,0,0,0-.535Zm-.8,3.211H50.06V63.046h1.07Z" transform="translate(-21.213 -39.498)"/><path class="a" d="M52.208,52.806h-.749V36.483a.253.253,0,0,0-.268-.268h-.268V34.5l.054-.054a1.85,1.85,0,0,0,.375-1.392,1.8,1.8,0,0,0-.7-1.231L48.3,29.953v-.161a.615.615,0,0,0,.321-.482.589.589,0,1,0-1.177,0,.468.468,0,0,0,.321.482v.161l-2.355,1.873a1.926,1.926,0,0,0-.7,1.231A1.725,1.725,0,0,0,45.09,34.4v1.338h-.268a.253.253,0,0,0-.268.268v.268H41.236l-.963-1.445V32.9l1.07-1.606a.239.239,0,0,0,0-.268.287.287,0,0,0-.214-.161h-.856v-.642l.054-.054a2.709,2.709,0,0,0,.482-2.194,2.629,2.629,0,0,0-1.338-1.766l-1.82-.963v-1.07a.253.253,0,0,0-.268-.268h-.268V23.37a1.07,1.07,0,1,0-2.141,0v.535h-.268a.253.253,0,0,0-.268.268V25.3l-1.873.91a2.953,2.953,0,0,0-1.392,1.927,2.514,2.514,0,0,0,.482,1.927v.8h-.749c-.107,0-.214.054-.214.161a.239.239,0,0,0,0,.268l.963,1.445V34.77l-.91,1.392H27.374v-.268a.253.253,0,0,0-.268-.268h-.268V34.449l.054-.054A1.85,1.85,0,0,0,27.267,33a1.8,1.8,0,0,0-.7-1.231L24.217,29.9v-.161a.615.615,0,0,0,.321-.482.589.589,0,0,0-1.177,0,.468.468,0,0,0,.321.482V29.9l-2.355,1.927a1.926,1.926,0,0,0-.7,1.231,1.725,1.725,0,0,0,.375,1.338v1.873h-.268a.253.253,0,0,0-.268.268V52.86h-.8a.268.268,0,1,0,0,.535h32.54a.253.253,0,0,0,.268-.268.3.3,0,0,0-.268-.321ZM45.2,33.111a1.385,1.385,0,0,1,.482-.91l2.3-1.82,2.3,1.82a1.192,1.192,0,0,1,.482.91,1.216,1.216,0,0,1-.268.963H45.411A1.833,1.833,0,0,1,45.2,33.111Zm.375,1.5h4.817v1.606H46.642v-.268a.253.253,0,0,0-.268-.268h-.8ZM44.5,45.849H43.216V43.708H44.5Zm-1.284.535H44.5V47.99H43.216ZM44.5,43.173H43.216V41.567H44.5Zm.268-2.141H24.752v-1.07H47.23v1.07H44.768Zm-5.031,2.676h1.284v2.141H39.738Zm1.284-.535H39.738V41.567h1.284Zm-1.284,3.211h1.284V47.99H39.738Zm-5.406-2.676h3.211v2.141H34.332Zm3.211-.535H34.332V41.567h3.211Zm-3.211,3.211h3.211V47.99H34.332Zm-3.479-2.676h1.231v2.141H30.853Zm1.284-.535H30.907V41.567h1.231Zm-1.284,3.211h1.231V47.99H30.853Zm-2.194-3.211H27.428V41.567h1.231Zm-1.231.535h1.231v2.141H27.428Zm0,2.676h1.231V47.99H27.428Zm20.016-6.958H24.056l1.07-1.07H46.856l1.07,1.07h-.482ZM25.769,36.215h1.07v1.606h-1.07ZM32.191,33h1.124l-.054,1.606h-1.07Zm2.73,1.659H33.8l.054-1.606h4.335l-.054,1.606H36.955l-.91-.535a.243.243,0,0,0-.268,0Zm3.158,1.552v-.8c0-.107-.054-.161-.161-.214l-.054-.054h.375l.7,1.07h-.856ZM38.721,33h.963V34.61H38.667Zm-4.977-.535-.7-1.07h5.941l-.7,1.07H33.743Zm.268,2.676-.054.054a.287.287,0,0,0-.161.214v.8h-.8l.7-1.07Zm.321.428,1.606-.91,1.606.91v2.248H34.332Zm10.7.642h1.07v1.606h-1.07ZM44.5,37.821H38.078V36.75H44.5Zm-4.87-1.606-.7-1.07h.91l.749,1.07Zm.214-3.746h-.91l.7-1.07h.963l-.749,1.07ZM35.4,23.37a.576.576,0,0,1,.535-.535.536.536,0,0,1,.535.535v.535H35.4Zm-.535,1.07h2.141v.535H34.867Zm-3.158,3.8a2.224,2.224,0,0,1,1.124-1.552l2.194-1.177H36.9L39.1,26.689a2.138,2.138,0,0,1,1.07,1.392,2.215,2.215,0,0,1-.375,1.713H36.955V29.2a1.258,1.258,0,0,0-.642-1.124l-.321-.214a.239.239,0,0,0-.268,0l-.321.214a1.325,1.325,0,0,0-.589,1.124v.589H32.031a2.287,2.287,0,0,1-.321-1.552Zm4.763,1.552H35.4V29.2a.915.915,0,0,1,.375-.7l.161-.107.161.107a.835.835,0,0,1,.375.7Zm-4.282.535h7.493v.535H32.191Zm-.268,1.07h.428l.7,1.07h-.963l-.7-1.07Zm.161,3.746h.963l-.7,1.07h-.963ZM27.428,36.75H33.8v1.07H27.428Zm-6.315-3.639a1.385,1.385,0,0,1,.482-.91l2.3-1.82,2.3,1.82a1.192,1.192,0,0,1,.482.91,1.216,1.216,0,0,1-.268.963H21.327a1.833,1.833,0,0,1-.214-.963Zm.375,1.5H26.3v1.07h-.8a.253.253,0,0,0-.268.268v.268H21.487Zm3.479,18.2H20.952V36.75h4.282v1.07H25.02c-.054,0-.161.054-.214.054L23.2,39.48c-.054.054-.107.214-.054.268a.455.455,0,0,0,.268.161h.749v1.338a.253.253,0,0,0,.268.268h.8V52.753h-.268Zm.8,0V41.567h1.124V52.806H25.769Zm1.659,0V48.525h1.231v4.282Zm1.766,0V41.567h1.124V52.806Zm1.659,0V48.525h1.231v4.282Zm1.82,0V41.567H33.8V52.806Zm1.659,0V48.525h3.211v4.282Zm3.746,0V41.567H39.2V52.806Zm1.659,0V48.525h1.284v4.282Zm1.82,0V41.567h1.124V52.806Zm1.659,0V48.525H44.5v4.282Zm2.355,0h-.535V41.567H46.16V52.806Zm1.124,0V41.567h.749a.253.253,0,0,0,.268-.268V39.962h.856a.294.294,0,0,0,.268-.161.235.235,0,0,0-.054-.268l-1.606-1.606c-.054-.054-.107-.054-.214-.054h-.321V36.8h4.282V52.86H46.7Z" transform="translate(-19.4 -22.3)"/></svg>