<svg xmlns="http://www.w3.org/2000/svg" width="105.341" height="105.34" viewBox="0 0 105.341 105.34"><defs><style>.a{fill:#292f33;}</style></defs><path class="a" d="M19.511,40.555a3.971,3.971,0,0,0,.439.024H89.3a3.973,3.973,0,0,0,.439-.024v1.78H93.25V19.95A3.955,3.955,0,0,0,89.3,16H19.95A3.955,3.955,0,0,0,16,19.95V47.6h3.511Zm0-20.6a.439.439,0,0,1,.439-.439H89.3a.439.439,0,0,1,.439.439V36.629a.439.439,0,0,1-.439.439H19.95a.439.439,0,0,1-.439-.439Z" transform="translate(-16 -16)"/><path class="a" d="M117.855,199.306a28.093,28.093,0,1,0-10.77,12.528l-1.875-2.969a24.543,24.543,0,1,1,9.427-10.966Z" transform="translate(-53.478 -128.376)"/><path class="a" d="M167.023,54.045A7.023,7.023,0,1,0,160,47.023,7.023,7.023,0,0,0,167.023,54.045Zm0-10.534a3.511,3.511,0,1,1-3.511,3.511,3.511,3.511,0,0,1,3.511-3.511Z" transform="translate(-128.398 -34.733)"/><path class="a" d="M136,80h3.511v3.511H136Z" transform="translate(-109.665 -65.955)"/><path class="a" d="M136,48h3.511v3.511H136Z" transform="translate(-109.665 -40.977)"/><path class="a" d="M232,80h3.511v3.511H232Z" transform="translate(-184.597 -65.955)"/><path class="a" d="M232,48h3.511v3.511H232Z" transform="translate(-184.597 -40.977)"/><path class="a" d="M257.756,54.045h15.8a1.756,1.756,0,0,0,1.756-1.756V41.756A1.756,1.756,0,0,0,273.557,40h-15.8A1.756,1.756,0,0,0,256,41.756V52.29A1.756,1.756,0,0,0,257.756,54.045Zm1.756-10.534H271.8v7.023h-12.29Z" transform="translate(-203.33 -34.733)"/><path class="a" d="M54.145,58.534h5.267a6.152,6.152,0,0,0,6.145-6.145V49.756A1.756,1.756,0,0,0,63.8,48H49.756A1.756,1.756,0,0,0,48,49.756v2.634A6.152,6.152,0,0,0,54.145,58.534Zm-2.634-7.023H62.045v.878a2.636,2.636,0,0,1-2.634,2.634H54.145a2.636,2.636,0,0,1-2.634-2.634Z" transform="translate(-40.977 -40.977)"/><path class="a" d="M296,144h8.778v3.511H296Z" transform="translate(-234.551 -115.909)"/><path class="a" d="M224,304h3.511v3.511H224Z" transform="translate(-178.352 -240.796)"/><path class="a" d="M200,336h3.511v3.511H200Z" transform="translate(-159.619 -265.773)"/><path class="a" d="M152,328h3.511v3.511H152Z" transform="translate(-122.154 -259.529)"/><path class="a" d="M117.068,192a21.068,21.068,0,1,0,21.068,21.068A21.068,21.068,0,0,0,117.068,192Zm0,3.511A17.589,17.589,0,0,1,133.9,208.054a18.8,18.8,0,0,0-4.016-.366c-6.169.063-9.351,2.628-12.158,4.891-2.7,2.18-5.04,4.063-9.99,4.113a12.9,12.9,0,0,1-8.184-2.5q-.036-.558-.036-1.126a17.576,17.576,0,0,1,17.557-17.557Zm0,35.113a17.588,17.588,0,0,1-16.609-11.864,16.636,16.636,0,0,0,7.081,1.443h.227c6.169-.063,9.351-2.628,12.158-4.891,2.7-2.18,5.04-4.063,9.99-4.113a14.107,14.107,0,0,1,4.669.67q.04.594.041,1.2A17.577,17.577,0,0,1,117.068,230.625Z" transform="translate(-78.443 -153.375)"/><path class="a" d="M115.2,195.892h-4.414a3.972,3.972,0,0,0,.024-.439V167.362a8.353,8.353,0,0,0-7.023-8.235V155.95a3.955,3.955,0,0,0-3.95-3.95H93.689a3.955,3.955,0,0,0-3.95,3.95v4.414l-2.4,4.8a10.591,10.591,0,0,0-1.112,4.711v25.579a3.974,3.974,0,0,0,.024.439H78.327a6.152,6.152,0,0,0-6.145,6.145V207.3a6.127,6.127,0,0,0,1.848,4.389,6.127,6.127,0,0,0-1.848,4.389v5.267a6.108,6.108,0,0,0,.593,2.634H44.091V215.2a1.756,1.756,0,0,0-1.756-1.756H24.778a1.756,1.756,0,0,0-1.756,1.756v8.778H19.95a.439.439,0,0,1-.439-.439V157.267H16v66.277a3.955,3.955,0,0,0,3.95,3.95H107.3v-3.511H78.327a2.636,2.636,0,0,1-2.634-2.634v-5.267a2.636,2.636,0,0,1,2.634-2.634H115.2a2.636,2.636,0,0,1,2.634,2.634v5.267a2.636,2.636,0,0,1-2.634,2.634h-4.389v3.511H115.2a6.152,6.152,0,0,0,6.145-6.145v-5.267a6.127,6.127,0,0,0-1.848-4.389,6.127,6.127,0,0,0,1.848-4.389v-5.267a6.152,6.152,0,0,0-6.145-6.145ZM26.534,223.983V216.96H31.8v3.511h3.511V216.96H40.58v7.023Zm63.2-42.136H107.3v7.023H89.738ZM107.3,167.362v3.95h-.878a2.636,2.636,0,0,1-2.634-2.634v-5.962a4.837,4.837,0,0,1,3.511,4.646ZM93.25,155.95a.439.439,0,0,1,.439-.439h6.145a.439.439,0,0,1,.439.439v3.072H93.25Zm-2.77,10.782,2.1-4.2h7.693v6.145a6.152,6.152,0,0,0,6.145,6.145h.878v3.511H89.738v-8.462A7.06,7.06,0,0,1,90.48,166.733Zm-.741,28.72V192.38H107.3v3.072a.439.439,0,0,1-.439.439H90.177a.439.439,0,0,1-.439-.439ZM78.327,209.937a2.637,2.637,0,0,1-2.634-2.634v-5.267a2.636,2.636,0,0,1,2.634-2.633H115.2a2.636,2.636,0,0,1,2.633,2.634V207.3a2.636,2.636,0,0,1-2.634,2.634Z" transform="translate(-16 -122.153)"/><path class="a" d="M384.913,25.441l3.521,1.926,1.926,3.521a1.756,1.756,0,0,0,3.081,0l1.926-3.521,3.521-1.926a1.756,1.756,0,0,0,0-3.081l-3.521-1.926-1.926-3.521a1.756,1.756,0,0,0-3.081,0l-1.926,3.521-3.521,1.926a1.756,1.756,0,0,0,0,3.081Zm5.657-2.172a1.756,1.756,0,0,0,.7-.7l.632-1.156.632,1.156a1.756,1.756,0,0,0,.7.7l1.156.632-1.156.632a1.756,1.756,0,0,0-.7.7l-.632,1.156-.632-1.156a1.756,1.756,0,0,0-.7-.7l-1.156-.632Z" transform="translate(-303.239 -16)"/><path class="a" d="M430.359,96.913l-1.926,3.521-3.521,1.926a1.756,1.756,0,0,0,0,3.081l3.521,1.926,1.926,3.521a1.756,1.756,0,0,0,3.081,0l1.926-3.521,3.521-1.926a1.756,1.756,0,0,0,0-3.081l-3.521-1.926-1.926-3.521a1.756,1.756,0,0,0-3.081,0Zm.908,5.657.632-1.156.632,1.156a1.756,1.756,0,0,0,.7.7l1.156.632-1.156.632a1.756,1.756,0,0,0-.7.7l-.632,1.156-.632-1.156a1.756,1.756,0,0,0-.7-.7l-1.156-.632,1.156-.632a1.756,1.756,0,0,0,.7-.7Z" transform="translate(-334.46 -78.443)"/></svg>