<svg xmlns="http://www.w3.org/2000/svg" width="94.705" height="94.891" viewBox="0 0 94.705 94.891"><defs><style>.a{fill:#292f33;}</style></defs><g transform="translate(-0.501)"><path class="a" d="M6.065,5.564H19.417V0H.5V18.916H6.065Z"/><path class="a" d="M139.578,140.89V84.376h-15.4V89.94h9.841v7.552h-6.967v5.564h6.967v7.922H118.1v-8.5h-5.564v8.5H101.172V88.251h6.519V82.688h-6.519V72.4H71.259v29.912H95.608V122.75H86.673v12.576H74.132v5.564h27.039v-5.564H92.237v-7.013h8.935V116.541h8.494V140.89h29.913Zm-5.564-5.564H115.229V116.541h18.785ZM76.823,77.967H95.608V96.752H76.823Z" transform="translate(-57.636 -58.976)"/><path class="a" d="M357.077,72.4H372.39v5.564H357.077Z" transform="translate(-290.448 -58.976)"/><path class="a" d="M136.413,135.563h5.746v5.564h-5.746Z" transform="translate(-110.707 -110.422)"/><path class="a" d="M341.092,346.049h5.746v5.564h-5.746Z" transform="translate(-277.427 -281.873)"/><path class="a" d="M287.523,72.4h5.746v5.564h-5.746Z" transform="translate(-233.793 -58.976)"/><path class="a" d="M293.352,174.775H299.1v5.564h-5.746Z" transform="translate(-238.541 -142.362)"/><path class="a" d="M86.259,343.882h5.746v5.564H86.259Z" transform="translate(-69.854 -280.108)"/><path class="a" d="M79.8,280.4H95.954v5.564H79.8Z" transform="translate(-64.593 -228.4)"/><path class="a" d="M6.065,409.668H.5v18.916H19.417v-5.564H6.065Z" transform="translate(0 -333.694)"/><path class="a" d="M409.167,0V5.564H422.52V18.916h5.564V0Z" transform="translate(-332.877)"/><path class="a" d="M422.52,423.021H409.167v5.564h18.916V409.668H422.52Z" transform="translate(-332.877 -333.694)"/></g></svg>